<?xml version="1.0" encoding="utf-8" standalone="no"?>
<!DOCTYPE svg PUBLIC "-//W3C//DTD SVG 1.1//EN"
  "http://www.w3.org/Graphics/SVG/1.1/DTD/svg11.dtd">
<svg xmlns:xlink="http://www.w3.org/1999/xlink" width="720pt" height="432pt" viewBox="0 0 720 432" xmlns="http://www.w3.org/2000/svg" version="1.1">
 <metadata>
  <rdf:RDF xmlns:dc="http://purl.org/dc/elements/1.1/" xmlns:cc="http://creativecommons.org/ns#" xmlns:rdf="http://www.w3.org/1999/02/22-rdf-syntax-ns#">
   <cc:Work>
    <dc:type rdf:resource="http://purl.org/dc/dcmitype/StillImage"/>
    <dc:date>2025-01-14T13:13:25.723564</dc:date>
    <dc:format>image/svg+xml</dc:format>
    <dc:creator>
     <cc:Agent>
      <dc:title>Matplotlib v3.10.0, https://matplotlib.org/</dc:title>
     </cc:Agent>
    </dc:creator>
   </cc:Work>
  </rdf:RDF>
 </metadata>
 <defs>
  <style type="text/css">*{stroke-linejoin: round; stroke-linecap: butt}</style>
 </defs>
 <g id="figure_1">
  <g id="patch_1">
   <path d="M 0 432 
L 720 432 
L 720 0 
L 0 0 
z
" style="fill: #ffffff"/>
  </g>
  <g id="axes_1">
   <g id="patch_2">
    <path d="M 90 384.48 
L 648 384.48 
L 648 51.84 
L 90 51.84 
z
" style="fill: #ffffff"/>
   </g>
   <g id="FillBetweenPolyCollection_1">
    <path d="M 228.457372 351.110111 
L 227.724446 351.110111 
L 227.527063 349.106924 
L 227.248623 347.103738 
L 226.867031 345.100551 
L 226.357622 343.097365 
L 225.693369 341.094179 
L 224.845049 339.090992 
L 223.7815 337.087806 
L 222.470189 335.084619 
L 220.878368 333.081433 
L 218.974949 331.078246 
L 216.732941 329.07506 
L 214.131968 327.071873 
L 211.160095 325.068687 
L 207.814239 323.0655 
L 204.098794 321.062314 
L 200.022775 319.059127 
L 195.596543 317.055941 
L 190.829591 315.052755 
L 185.730848 313.049568 
L 180.312171 311.046382 
L 174.594562 309.043195 
L 168.615446 307.040009 
L 162.434733 305.036822 
L 156.137595 303.033636 
L 149.833 301.030449 
L 143.648565 299.027263 
L 137.723581 297.024076 
L 132.202439 295.02089 
L 127.230081 293.017703 
L 122.949515 291.014517 
L 119.499903 289.011331 
L 117.012796 287.008144 
L 115.604435 285.004958 
L 115.363636 283.001771 
L 116.337011 280.998585 
L 118.51517 278.995398 
L 121.824302 276.992212 
L 126.1265 274.989025 
L 131.229852 272.985839 
L 136.906363 270.982652 
L 142.913514 268.979466 
L 149.014619 266.976279 
L 154.994387 264.973093 
L 160.668568 262.969907 
L 165.889189 260.96672 
L 170.548242 258.963534 
L 174.58226 256.960347 
L 177.978132 254.957161 
L 180.777925 252.953974 
L 183.078821 250.950788 
L 185.024428 248.947601 
L 186.786054 246.944415 
L 188.535994 244.941228 
L 190.418213 242.938042 
L 192.52357 240.934856 
L 194.876077 238.931669 
L 197.433869 236.928483 
L 200.104468 234.925296 
L 202.769998 232.92211 
L 205.315442 230.918923 
L 207.652724 228.915737 
L 209.735067 226.91255 
L 211.559289 224.909364 
L 213.15721 222.906177 
L 214.580123 220.902991 
L 215.881612 218.899804 
L 217.103658 216.896618 
L 218.269196 214.893432 
L 219.381908 212.890245 
L 220.431722 210.887059 
L 221.4031 208.883872 
L 222.282856 206.880686 
L 223.065075 204.877499 
L 223.752127 202.874313 
L 224.35226 200.871126 
L 224.875333 198.86794 
L 225.328599 196.864753 
L 225.714102 194.861567 
L 226.028479 192.85838 
L 226.26506 190.855194 
L 226.417484 188.852008 
L 226.483663 186.848821 
L 226.468968 184.845635 
L 226.38778 182.842448 
L 226.262951 180.839262 
L 226.123264 178.836075 
L 225.999366 176.832889 
L 225.919047 174.829702 
L 225.902881 172.826516 
L 225.961186 170.823329 
L 226.092957 168.820143 
L 226.286939 166.816956 
L 226.524487 164.81377 
L 226.783457 162.810584 
L 227.042167 160.807397 
L 227.282606 158.804211 
L 227.49235 156.801024 
L 227.665069 154.797838 
L 227.79985 152.794651 
L 228.381968 152.794651 
L 228.381968 152.794651 
L 228.516749 154.797838 
L 228.689468 156.801024 
L 228.899213 158.804211 
L 229.139652 160.807397 
L 229.398362 162.810584 
L 229.657331 164.81377 
L 229.89488 166.816956 
L 230.088861 168.820143 
L 230.220632 170.823329 
L 230.278937 172.826516 
L 230.262772 174.829702 
L 230.182452 176.832889 
L 230.058554 178.836075 
L 229.918867 180.839262 
L 229.794039 182.842448 
L 229.71285 184.845635 
L 229.698155 186.848821 
L 229.764334 188.852008 
L 229.916758 190.855194 
L 230.15334 192.85838 
L 230.467716 194.861567 
L 230.853219 196.864753 
L 231.306485 198.86794 
L 231.829558 200.871126 
L 232.429691 202.874313 
L 233.116743 204.877499 
L 233.898962 206.880686 
L 234.778718 208.883872 
L 235.750096 210.887059 
L 236.799911 212.890245 
L 237.912622 214.893432 
L 239.07816 216.896618 
L 240.300206 218.899804 
L 241.601695 220.902991 
L 243.024608 222.906177 
L 244.62253 224.909364 
L 246.446752 226.91255 
L 248.529094 228.915737 
L 250.866376 230.918923 
L 253.411821 232.92211 
L 256.07735 234.925296 
L 258.74795 236.928483 
L 261.305741 238.931669 
L 263.658248 240.934856 
L 265.763606 242.938042 
L 267.645824 244.941228 
L 269.395764 246.944415 
L 271.157391 248.947601 
L 273.102997 250.950788 
L 275.403893 252.953974 
L 278.203686 254.957161 
L 281.599558 256.960347 
L 285.633577 258.963534 
L 290.292629 260.96672 
L 295.51325 262.969907 
L 301.187431 264.973093 
L 307.167199 266.976279 
L 313.268304 268.979466 
L 319.275455 270.982652 
L 324.951966 272.985839 
L 330.055319 274.989025 
L 334.357516 276.992212 
L 337.666648 278.995398 
L 339.844808 280.998585 
L 340.818182 283.001771 
L 340.577383 285.004958 
L 339.169022 287.008144 
L 336.681915 289.011331 
L 333.232303 291.014517 
L 328.951737 293.017703 
L 323.979379 295.02089 
L 318.458238 297.024076 
L 312.533253 299.027263 
L 306.348819 301.030449 
L 300.044223 303.033636 
L 293.747085 305.036822 
L 287.566372 307.040009 
L 281.587256 309.043195 
L 275.869647 311.046382 
L 270.45097 313.049568 
L 265.352227 315.052755 
L 260.585275 317.055941 
L 256.159043 319.059127 
L 252.083024 321.062314 
L 248.367579 323.0655 
L 245.021723 325.068687 
L 242.049851 327.071873 
L 239.448878 329.07506 
L 237.20687 331.078246 
L 235.30345 333.081433 
L 233.711629 335.084619 
L 232.400318 337.087806 
L 231.336769 339.090992 
L 230.488449 341.094179 
L 229.824196 343.097365 
L 229.314787 345.100551 
L 228.933195 347.103738 
L 228.654755 349.106924 
L 228.457372 351.110111 
L 228.457372 351.110111 
z
" clip-path="url(#pfb684f2359)" style="fill: none; stroke: #858e8d; stroke-width: 3.5"/>
   </g>
   <g id="FillBetweenPolyCollection_2">
    <path d="M 510.349762 369.36 
L 509.46842 369.36 
L 509.234486 366.305455 
L 508.907677 363.250909 
L 508.465074 360.196364 
L 507.882144 357.141818 
L 507.132639 354.087273 
L 506.187592 351.032727 
L 505.013315 347.978182 
L 503.56864 344.923636 
L 501.802169 341.869091 
L 499.650643 338.814545 
L 497.039706 335.76 
L 493.888114 332.705455 
L 490.115781 329.650909 
L 485.65519 326.596364 
L 480.464667 323.541818 
L 474.541289 320.487273 
L 467.930783 317.432727 
L 460.732061 314.378182 
L 453.094915 311.323636 
L 445.210763 308.269091 
L 437.298004 305.214545 
L 429.58486 302.16 
L 422.293303 299.105455 
L 415.627244 296.050909 
L 409.766699 292.996364 
L 404.8675 289.941818 
L 401.064004 286.887273 
L 398.471077 283.832727 
L 397.181818 280.778182 
L 397.259215 277.723636 
L 398.722473 274.669091 
L 401.531332 271.614545 
L 405.573229 268.56 
L 410.658231 265.505455 
L 416.52519 262.450909 
L 422.860121 259.396364 
L 429.325001 256.341818 
L 435.592925 253.287273 
L 441.384039 250.232727 
L 446.496387 247.178182 
L 450.826414 244.123636 
L 454.375524 241.069091 
L 457.241345 238.014545 
L 459.595021 234.96 
L 461.648429 231.905455 
L 463.617197 228.850909 
L 465.686195 225.796364 
L 467.983567 222.741818 
L 470.56736 219.687273 
L 473.42589 216.632727 
L 476.490035 213.578182 
L 479.653325 210.523636 
L 482.794694 207.469091 
L 485.799148 204.414545 
L 488.572996 201.36 
L 491.052254 198.305455 
L 493.204535 195.250909 
L 495.025952 192.196364 
L 496.534991 189.141818 
L 497.765185 186.087273 
L 498.75799 183.032727 
L 499.556721 179.978182 
L 500.202059 176.923636 
L 500.729347 173.869091 
L 501.167668 170.814545 
L 501.540508 167.76 
L 501.867502 164.705455 
L 502.166587 161.650909 
L 502.455728 158.596364 
L 502.753562 155.541818 
L 503.078575 152.487273 
L 503.446951 149.432727 
L 503.869635 146.378182 
L 504.349486 143.323636 
L 504.879419 140.269091 
L 505.442192 137.214545 
L 506.012109 134.16 
L 506.558407 131.105455 
L 507.049743 128.050909 
L 507.458938 124.996364 
L 507.767166 121.941818 
L 507.966879 118.887273 
L 508.063023 115.832727 
L 508.072365 112.778182 
L 508.021049 109.723636 
L 507.940736 106.669091 
L 507.863933 103.614545 
L 507.819278 100.56 
L 507.827603 97.505455 
L 507.89946 94.450909 
L 508.034546 91.396364 
L 508.223032 88.341818 
L 508.448384 85.287273 
L 508.690973 82.232727 
L 508.931644 79.178182 
L 509.154548 76.123636 
L 509.348805 73.069091 
L 509.508924 70.014545 
L 509.6342 66.96 
L 510.183982 66.96 
L 510.183982 66.96 
L 510.309258 70.014545 
L 510.469377 73.069091 
L 510.663633 76.123636 
L 510.886537 79.178182 
L 511.127209 82.232727 
L 511.369797 85.287273 
L 511.59515 88.341818 
L 511.783636 91.396364 
L 511.918722 94.450909 
L 511.990578 97.505455 
L 511.998903 100.56 
L 511.954249 103.614545 
L 511.877446 106.669091 
L 511.797132 109.723636 
L 511.745817 112.778182 
L 511.755159 115.832727 
L 511.851302 118.887273 
L 512.051016 121.941818 
L 512.359244 124.996364 
L 512.768439 128.050909 
L 513.259775 131.105455 
L 513.806073 134.16 
L 514.37599 137.214545 
L 514.938763 140.269091 
L 515.468696 143.323636 
L 515.948547 146.378182 
L 516.37123 149.432727 
L 516.739606 152.487273 
L 517.06462 155.541818 
L 517.362454 158.596364 
L 517.651595 161.650909 
L 517.95068 164.705455 
L 518.277674 167.76 
L 518.650514 170.814545 
L 519.088835 173.869091 
L 519.616123 176.923636 
L 520.261461 179.978182 
L 521.060192 183.032727 
L 522.052997 186.087273 
L 523.283191 189.141818 
L 524.79223 192.196364 
L 526.613647 195.250909 
L 528.765928 198.305455 
L 531.245186 201.36 
L 534.019034 204.414545 
L 537.023488 207.469091 
L 540.164857 210.523636 
L 543.328146 213.578182 
L 546.392292 216.632727 
L 549.250822 219.687273 
L 551.834614 222.741818 
L 554.131987 225.796364 
L 556.200985 228.850909 
L 558.169753 231.905455 
L 560.223161 234.96 
L 562.576837 238.014545 
L 565.442658 241.069091 
L 568.991768 244.123636 
L 573.321795 247.178182 
L 578.434143 250.232727 
L 584.225257 253.287273 
L 590.49318 256.341818 
L 596.958061 259.396364 
L 603.292992 262.450909 
L 609.159951 265.505455 
L 614.244952 268.56 
L 618.28685 271.614545 
L 621.095709 274.669091 
L 622.558967 277.723636 
L 622.636364 280.778182 
L 621.347105 283.832727 
L 618.754178 286.887273 
L 614.950682 289.941818 
L 610.051482 292.996364 
L 604.190938 296.050909 
L 597.524879 299.105455 
L 590.233322 302.16 
L 582.520178 305.214545 
L 574.607419 308.269091 
L 566.723267 311.323636 
L 559.08612 314.378182 
L 551.887399 317.432727 
L 545.276892 320.487273 
L 539.353515 323.541818 
L 534.162992 326.596364 
L 529.702401 329.650909 
L 525.930068 332.705455 
L 522.778476 335.76 
L 520.167539 338.814545 
L 518.016013 341.869091 
L 516.249542 344.923636 
L 514.804867 347.978182 
L 513.630589 351.032727 
L 512.685543 354.087273 
L 511.936038 357.141818 
L 511.353108 360.196364 
L 510.910504 363.250909 
L 510.583696 366.305455 
L 510.349762 369.36 
L 510.349762 369.36 
z
" clip-path="url(#pfb684f2359)" style="fill: none; stroke: #c42840; stroke-width: 3.5"/>
   </g>
   <g id="matplotlib.axis_1">
    <g id="xtick_1">
     <g id="line2d_1">
      <defs>
       <path id="m94031a7353" d="M 0 0 
L 0 3.5 
" style="stroke: #000000; stroke-width: 0.8"/>
      </defs>
      <g>
       <use xlink:href="#m94031a7353" x="228.090909" y="384.48" style="stroke: #000000; stroke-width: 0.8"/>
      </g>
     </g>
     <g id="text_1">
      <!-- Controls -->
      <g transform="translate(207.415128 399.078438) scale(0.1 -0.1)">
       <defs>
        <path id="DejaVuSans-43" d="M 4122 4306 
L 4122 3641 
Q 3803 3938 3442 4084 
Q 3081 4231 2675 4231 
Q 1875 4231 1450 3742 
Q 1025 3253 1025 2328 
Q 1025 1406 1450 917 
Q 1875 428 2675 428 
Q 3081 428 3442 575 
Q 3803 722 4122 1019 
L 4122 359 
Q 3791 134 3420 21 
Q 3050 -91 2638 -91 
Q 1578 -91 968 557 
Q 359 1206 359 2328 
Q 359 3453 968 4101 
Q 1578 4750 2638 4750 
Q 3056 4750 3426 4639 
Q 3797 4528 4122 4306 
z
" transform="scale(0.015625)"/>
        <path id="DejaVuSans-6f" d="M 1959 3097 
Q 1497 3097 1228 2736 
Q 959 2375 959 1747 
Q 959 1119 1226 758 
Q 1494 397 1959 397 
Q 2419 397 2687 759 
Q 2956 1122 2956 1747 
Q 2956 2369 2687 2733 
Q 2419 3097 1959 3097 
z
M 1959 3584 
Q 2709 3584 3137 3096 
Q 3566 2609 3566 1747 
Q 3566 888 3137 398 
Q 2709 -91 1959 -91 
Q 1206 -91 779 398 
Q 353 888 353 1747 
Q 353 2609 779 3096 
Q 1206 3584 1959 3584 
z
" transform="scale(0.015625)"/>
        <path id="DejaVuSans-6e" d="M 3513 2113 
L 3513 0 
L 2938 0 
L 2938 2094 
Q 2938 2591 2744 2837 
Q 2550 3084 2163 3084 
Q 1697 3084 1428 2787 
Q 1159 2491 1159 1978 
L 1159 0 
L 581 0 
L 581 3500 
L 1159 3500 
L 1159 2956 
Q 1366 3272 1645 3428 
Q 1925 3584 2291 3584 
Q 2894 3584 3203 3211 
Q 3513 2838 3513 2113 
z
" transform="scale(0.015625)"/>
        <path id="DejaVuSans-74" d="M 1172 4494 
L 1172 3500 
L 2356 3500 
L 2356 3053 
L 1172 3053 
L 1172 1153 
Q 1172 725 1289 603 
Q 1406 481 1766 481 
L 2356 481 
L 2356 0 
L 1766 0 
Q 1100 0 847 248 
Q 594 497 594 1153 
L 594 3053 
L 172 3053 
L 172 3500 
L 594 3500 
L 594 4494 
L 1172 4494 
z
" transform="scale(0.015625)"/>
        <path id="DejaVuSans-72" d="M 2631 2963 
Q 2534 3019 2420 3045 
Q 2306 3072 2169 3072 
Q 1681 3072 1420 2755 
Q 1159 2438 1159 1844 
L 1159 0 
L 581 0 
L 581 3500 
L 1159 3500 
L 1159 2956 
Q 1341 3275 1631 3429 
Q 1922 3584 2338 3584 
Q 2397 3584 2469 3576 
Q 2541 3569 2628 3553 
L 2631 2963 
z
" transform="scale(0.015625)"/>
        <path id="DejaVuSans-6c" d="M 603 4863 
L 1178 4863 
L 1178 0 
L 603 0 
L 603 4863 
z
" transform="scale(0.015625)"/>
        <path id="DejaVuSans-73" d="M 2834 3397 
L 2834 2853 
Q 2591 2978 2328 3040 
Q 2066 3103 1784 3103 
Q 1356 3103 1142 2972 
Q 928 2841 928 2578 
Q 928 2378 1081 2264 
Q 1234 2150 1697 2047 
L 1894 2003 
Q 2506 1872 2764 1633 
Q 3022 1394 3022 966 
Q 3022 478 2636 193 
Q 2250 -91 1575 -91 
Q 1294 -91 989 -36 
Q 684 19 347 128 
L 347 722 
Q 666 556 975 473 
Q 1284 391 1588 391 
Q 1994 391 2212 530 
Q 2431 669 2431 922 
Q 2431 1156 2273 1281 
Q 2116 1406 1581 1522 
L 1381 1569 
Q 847 1681 609 1914 
Q 372 2147 372 2553 
Q 372 3047 722 3315 
Q 1072 3584 1716 3584 
Q 2034 3584 2315 3537 
Q 2597 3491 2834 3397 
z
" transform="scale(0.015625)"/>
       </defs>
       <use xlink:href="#DejaVuSans-43"/>
       <use xlink:href="#DejaVuSans-6f" transform="translate(69.824219 0)"/>
       <use xlink:href="#DejaVuSans-6e" transform="translate(131.005859 0)"/>
       <use xlink:href="#DejaVuSans-74" transform="translate(194.384766 0)"/>
       <use xlink:href="#DejaVuSans-72" transform="translate(233.59375 0)"/>
       <use xlink:href="#DejaVuSans-6f" transform="translate(272.457031 0)"/>
       <use xlink:href="#DejaVuSans-6c" transform="translate(333.638672 0)"/>
       <use xlink:href="#DejaVuSans-73" transform="translate(361.421875 0)"/>
      </g>
     </g>
    </g>
    <g id="xtick_2">
     <g id="line2d_2">
      <g>
       <use xlink:href="#m94031a7353" x="509.909091" y="384.48" style="stroke: #000000; stroke-width: 0.8"/>
      </g>
     </g>
     <g id="text_2">
      <!-- PE_1-3 -->
      <g transform="translate(493.068466 398.901875) scale(0.1 -0.1)">
       <defs>
        <path id="DejaVuSans-50" d="M 1259 4147 
L 1259 2394 
L 2053 2394 
Q 2494 2394 2734 2622 
Q 2975 2850 2975 3272 
Q 2975 3691 2734 3919 
Q 2494 4147 2053 4147 
L 1259 4147 
z
M 628 4666 
L 2053 4666 
Q 2838 4666 3239 4311 
Q 3641 3956 3641 3272 
Q 3641 2581 3239 2228 
Q 2838 1875 2053 1875 
L 1259 1875 
L 1259 0 
L 628 0 
L 628 4666 
z
" transform="scale(0.015625)"/>
        <path id="DejaVuSans-45" d="M 628 4666 
L 3578 4666 
L 3578 4134 
L 1259 4134 
L 1259 2753 
L 3481 2753 
L 3481 2222 
L 1259 2222 
L 1259 531 
L 3634 531 
L 3634 0 
L 628 0 
L 628 4666 
z
" transform="scale(0.015625)"/>
        <path id="DejaVuSans-5f" d="M 3263 -1063 
L 3263 -1509 
L -63 -1509 
L -63 -1063 
L 3263 -1063 
z
" transform="scale(0.015625)"/>
        <path id="DejaVuSans-31" d="M 794 531 
L 1825 531 
L 1825 4091 
L 703 3866 
L 703 4441 
L 1819 4666 
L 2450 4666 
L 2450 531 
L 3481 531 
L 3481 0 
L 794 0 
L 794 531 
z
" transform="scale(0.015625)"/>
        <path id="DejaVuSans-2d" d="M 313 2009 
L 1997 2009 
L 1997 1497 
L 313 1497 
L 313 2009 
z
" transform="scale(0.015625)"/>
        <path id="DejaVuSans-33" d="M 2597 2516 
Q 3050 2419 3304 2112 
Q 3559 1806 3559 1356 
Q 3559 666 3084 287 
Q 2609 -91 1734 -91 
Q 1441 -91 1130 -33 
Q 819 25 488 141 
L 488 750 
Q 750 597 1062 519 
Q 1375 441 1716 441 
Q 2309 441 2620 675 
Q 2931 909 2931 1356 
Q 2931 1769 2642 2001 
Q 2353 2234 1838 2234 
L 1294 2234 
L 1294 2753 
L 1863 2753 
Q 2328 2753 2575 2939 
Q 2822 3125 2822 3475 
Q 2822 3834 2567 4026 
Q 2313 4219 1838 4219 
Q 1578 4219 1281 4162 
Q 984 4106 628 3988 
L 628 4550 
Q 988 4650 1302 4700 
Q 1616 4750 1894 4750 
Q 2613 4750 3031 4423 
Q 3450 4097 3450 3541 
Q 3450 3153 3228 2886 
Q 3006 2619 2597 2516 
z
" transform="scale(0.015625)"/>
       </defs>
       <use xlink:href="#DejaVuSans-50"/>
       <use xlink:href="#DejaVuSans-45" transform="translate(60.302734 0)"/>
       <use xlink:href="#DejaVuSans-5f" transform="translate(123.486328 0)"/>
       <use xlink:href="#DejaVuSans-31" transform="translate(173.486328 0)"/>
       <use xlink:href="#DejaVuSans-2d" transform="translate(237.109375 0)"/>
       <use xlink:href="#DejaVuSans-33" transform="translate(273.193359 0)"/>
      </g>
     </g>
    </g>
    <g id="text_3">
     <!-- Group -->
     <g transform="translate(351.857031 412.858125) scale(0.1 -0.1)">
      <defs>
       <path id="DejaVuSans-Bold-47" d="M 4781 347 
Q 4331 128 3847 18 
Q 3363 -91 2847 -91 
Q 1681 -91 1000 561 
Q 319 1213 319 2328 
Q 319 3456 1012 4103 
Q 1706 4750 2913 4750 
Q 3378 4750 3804 4662 
Q 4231 4575 4609 4403 
L 4609 3438 
Q 4219 3659 3833 3768 
Q 3447 3878 3059 3878 
Q 2341 3878 1952 3476 
Q 1563 3075 1563 2328 
Q 1563 1588 1938 1184 
Q 2313 781 3003 781 
Q 3191 781 3352 804 
Q 3513 828 3641 878 
L 3641 1784 
L 2906 1784 
L 2906 2591 
L 4781 2591 
L 4781 347 
z
" transform="scale(0.015625)"/>
       <path id="DejaVuSans-Bold-72" d="M 3138 2547 
Q 2991 2616 2845 2648 
Q 2700 2681 2553 2681 
Q 2122 2681 1889 2404 
Q 1656 2128 1656 1613 
L 1656 0 
L 538 0 
L 538 3500 
L 1656 3500 
L 1656 2925 
Q 1872 3269 2151 3426 
Q 2431 3584 2822 3584 
Q 2878 3584 2943 3579 
Q 3009 3575 3134 3559 
L 3138 2547 
z
" transform="scale(0.015625)"/>
       <path id="DejaVuSans-Bold-6f" d="M 2203 2784 
Q 1831 2784 1636 2517 
Q 1441 2250 1441 1747 
Q 1441 1244 1636 976 
Q 1831 709 2203 709 
Q 2569 709 2762 976 
Q 2956 1244 2956 1747 
Q 2956 2250 2762 2517 
Q 2569 2784 2203 2784 
z
M 2203 3584 
Q 3106 3584 3614 3096 
Q 4122 2609 4122 1747 
Q 4122 884 3614 396 
Q 3106 -91 2203 -91 
Q 1297 -91 786 396 
Q 275 884 275 1747 
Q 275 2609 786 3096 
Q 1297 3584 2203 3584 
z
" transform="scale(0.015625)"/>
       <path id="DejaVuSans-Bold-75" d="M 500 1363 
L 500 3500 
L 1625 3500 
L 1625 3150 
Q 1625 2866 1622 2436 
Q 1619 2006 1619 1863 
Q 1619 1441 1641 1255 
Q 1663 1069 1716 984 
Q 1784 875 1895 815 
Q 2006 756 2150 756 
Q 2500 756 2700 1025 
Q 2900 1294 2900 1772 
L 2900 3500 
L 4019 3500 
L 4019 0 
L 2900 0 
L 2900 506 
Q 2647 200 2364 54 
Q 2081 -91 1741 -91 
Q 1134 -91 817 281 
Q 500 653 500 1363 
z
" transform="scale(0.015625)"/>
       <path id="DejaVuSans-Bold-70" d="M 1656 506 
L 1656 -1331 
L 538 -1331 
L 538 3500 
L 1656 3500 
L 1656 2988 
Q 1888 3294 2169 3439 
Q 2450 3584 2816 3584 
Q 3463 3584 3878 3070 
Q 4294 2556 4294 1747 
Q 4294 938 3878 423 
Q 3463 -91 2816 -91 
Q 2450 -91 2169 54 
Q 1888 200 1656 506 
z
M 2400 2772 
Q 2041 2772 1848 2508 
Q 1656 2244 1656 1747 
Q 1656 1250 1848 986 
Q 2041 722 2400 722 
Q 2759 722 2948 984 
Q 3138 1247 3138 1747 
Q 3138 2247 2948 2509 
Q 2759 2772 2400 2772 
z
" transform="scale(0.015625)"/>
      </defs>
      <use xlink:href="#DejaVuSans-Bold-47"/>
      <use xlink:href="#DejaVuSans-Bold-72" transform="translate(82.080078 0)"/>
      <use xlink:href="#DejaVuSans-Bold-6f" transform="translate(131.396484 0)"/>
      <use xlink:href="#DejaVuSans-Bold-75" transform="translate(200.097656 0)"/>
      <use xlink:href="#DejaVuSans-Bold-70" transform="translate(271.289062 0)"/>
     </g>
    </g>
   </g>
   <g id="matplotlib.axis_2">
    <g id="ytick_1">
     <g id="line2d_3">
      <defs>
       <path id="m8b348d5bcc" d="M 0 0 
L -3.5 0 
" style="stroke: #000000; stroke-width: 0.8"/>
      </defs>
      <g>
       <use xlink:href="#m8b348d5bcc" x="90" y="381.273547" style="stroke: #000000; stroke-width: 0.8"/>
      </g>
     </g>
     <g id="text_4">
      <!-- −4 -->
      <g transform="translate(68.257812 385.072766) scale(0.1 -0.1)">
       <defs>
        <path id="DejaVuSans-2212" d="M 678 2272 
L 4684 2272 
L 4684 1741 
L 678 1741 
L 678 2272 
z
" transform="scale(0.015625)"/>
        <path id="DejaVuSans-34" d="M 2419 4116 
L 825 1625 
L 2419 1625 
L 2419 4116 
z
M 2253 4666 
L 3047 4666 
L 3047 1625 
L 3713 1625 
L 3713 1100 
L 3047 1100 
L 3047 0 
L 2419 0 
L 2419 1100 
L 313 1100 
L 313 1709 
L 2253 4666 
z
" transform="scale(0.015625)"/>
       </defs>
       <use xlink:href="#DejaVuSans-2212"/>
       <use xlink:href="#DejaVuSans-34" transform="translate(83.789062 0)"/>
      </g>
     </g>
    </g>
    <g id="ytick_2">
     <g id="line2d_4">
      <g>
       <use xlink:href="#m8b348d5bcc" x="90" y="329.027556" style="stroke: #000000; stroke-width: 0.8"/>
      </g>
     </g>
     <g id="text_5">
      <!-- −2 -->
      <g transform="translate(68.257812 332.826775) scale(0.1 -0.1)">
       <defs>
        <path id="DejaVuSans-32" d="M 1228 531 
L 3431 531 
L 3431 0 
L 469 0 
L 469 531 
Q 828 903 1448 1529 
Q 2069 2156 2228 2338 
Q 2531 2678 2651 2914 
Q 2772 3150 2772 3378 
Q 2772 3750 2511 3984 
Q 2250 4219 1831 4219 
Q 1534 4219 1204 4116 
Q 875 4013 500 3803 
L 500 4441 
Q 881 4594 1212 4672 
Q 1544 4750 1819 4750 
Q 2544 4750 2975 4387 
Q 3406 4025 3406 3419 
Q 3406 3131 3298 2873 
Q 3191 2616 2906 2266 
Q 2828 2175 2409 1742 
Q 1991 1309 1228 531 
z
" transform="scale(0.015625)"/>
       </defs>
       <use xlink:href="#DejaVuSans-2212"/>
       <use xlink:href="#DejaVuSans-32" transform="translate(83.789062 0)"/>
      </g>
     </g>
    </g>
    <g id="ytick_3">
     <g id="line2d_5">
      <g>
       <use xlink:href="#m8b348d5bcc" x="90" y="276.781566" style="stroke: #000000; stroke-width: 0.8"/>
      </g>
     </g>
     <g id="text_6">
      <!-- 0 -->
      <g transform="translate(76.6375 280.580785) scale(0.1 -0.1)">
       <defs>
        <path id="DejaVuSans-30" d="M 2034 4250 
Q 1547 4250 1301 3770 
Q 1056 3291 1056 2328 
Q 1056 1369 1301 889 
Q 1547 409 2034 409 
Q 2525 409 2770 889 
Q 3016 1369 3016 2328 
Q 3016 3291 2770 3770 
Q 2525 4250 2034 4250 
z
M 2034 4750 
Q 2819 4750 3233 4129 
Q 3647 3509 3647 2328 
Q 3647 1150 3233 529 
Q 2819 -91 2034 -91 
Q 1250 -91 836 529 
Q 422 1150 422 2328 
Q 422 3509 836 4129 
Q 1250 4750 2034 4750 
z
" transform="scale(0.015625)"/>
       </defs>
       <use xlink:href="#DejaVuSans-30"/>
      </g>
     </g>
    </g>
    <g id="ytick_4">
     <g id="line2d_6">
      <g>
       <use xlink:href="#m8b348d5bcc" x="90" y="224.535576" style="stroke: #000000; stroke-width: 0.8"/>
      </g>
     </g>
     <g id="text_7">
      <!-- 2 -->
      <g transform="translate(76.6375 228.334794) scale(0.1 -0.1)">
       <use xlink:href="#DejaVuSans-32"/>
      </g>
     </g>
    </g>
    <g id="ytick_5">
     <g id="line2d_7">
      <g>
       <use xlink:href="#m8b348d5bcc" x="90" y="172.289585" style="stroke: #000000; stroke-width: 0.8"/>
      </g>
     </g>
     <g id="text_8">
      <!-- 4 -->
      <g transform="translate(76.6375 176.088804) scale(0.1 -0.1)">
       <use xlink:href="#DejaVuSans-34"/>
      </g>
     </g>
    </g>
    <g id="ytick_6">
     <g id="line2d_8">
      <g>
       <use xlink:href="#m8b348d5bcc" x="90" y="120.043595" style="stroke: #000000; stroke-width: 0.8"/>
      </g>
     </g>
     <g id="text_9">
      <!-- 6 -->
      <g transform="translate(76.6375 123.842813) scale(0.1 -0.1)">
       <defs>
        <path id="DejaVuSans-36" d="M 2113 2584 
Q 1688 2584 1439 2293 
Q 1191 2003 1191 1497 
Q 1191 994 1439 701 
Q 1688 409 2113 409 
Q 2538 409 2786 701 
Q 3034 994 3034 1497 
Q 3034 2003 2786 2293 
Q 2538 2584 2113 2584 
z
M 3366 4563 
L 3366 3988 
Q 3128 4100 2886 4159 
Q 2644 4219 2406 4219 
Q 1781 4219 1451 3797 
Q 1122 3375 1075 2522 
Q 1259 2794 1537 2939 
Q 1816 3084 2150 3084 
Q 2853 3084 3261 2657 
Q 3669 2231 3669 1497 
Q 3669 778 3244 343 
Q 2819 -91 2113 -91 
Q 1303 -91 875 529 
Q 447 1150 447 2328 
Q 447 3434 972 4092 
Q 1497 4750 2381 4750 
Q 2619 4750 2861 4703 
Q 3103 4656 3366 4563 
z
" transform="scale(0.015625)"/>
       </defs>
       <use xlink:href="#DejaVuSans-36"/>
      </g>
     </g>
    </g>
    <g id="ytick_7">
     <g id="line2d_9">
      <g>
       <use xlink:href="#m8b348d5bcc" x="90" y="67.797604" style="stroke: #000000; stroke-width: 0.8"/>
      </g>
     </g>
     <g id="text_10">
      <!-- 8 -->
      <g transform="translate(76.6375 71.596823) scale(0.1 -0.1)">
       <defs>
        <path id="DejaVuSans-38" d="M 2034 2216 
Q 1584 2216 1326 1975 
Q 1069 1734 1069 1313 
Q 1069 891 1326 650 
Q 1584 409 2034 409 
Q 2484 409 2743 651 
Q 3003 894 3003 1313 
Q 3003 1734 2745 1975 
Q 2488 2216 2034 2216 
z
M 1403 2484 
Q 997 2584 770 2862 
Q 544 3141 544 3541 
Q 544 4100 942 4425 
Q 1341 4750 2034 4750 
Q 2731 4750 3128 4425 
Q 3525 4100 3525 3541 
Q 3525 3141 3298 2862 
Q 3072 2584 2669 2484 
Q 3125 2378 3379 2068 
Q 3634 1759 3634 1313 
Q 3634 634 3220 271 
Q 2806 -91 2034 -91 
Q 1263 -91 848 271 
Q 434 634 434 1313 
Q 434 1759 690 2068 
Q 947 2378 1403 2484 
z
M 1172 3481 
Q 1172 3119 1398 2916 
Q 1625 2713 2034 2713 
Q 2441 2713 2670 2916 
Q 2900 3119 2900 3481 
Q 2900 3844 2670 4047 
Q 2441 4250 2034 4250 
Q 1625 4250 1398 4047 
Q 1172 3844 1172 3481 
z
" transform="scale(0.015625)"/>
       </defs>
       <use xlink:href="#DejaVuSans-38"/>
      </g>
     </g>
    </g>
    <g id="text_11">
     <!-- brainPAD_standardized -->
     <g transform="translate(61.9 283.4725) rotate(-90) scale(0.1 -0.1)">
      <defs>
       <path id="DejaVuSans-Bold-62" d="M 2400 722 
Q 2759 722 2948 984 
Q 3138 1247 3138 1747 
Q 3138 2247 2948 2509 
Q 2759 2772 2400 2772 
Q 2041 2772 1848 2508 
Q 1656 2244 1656 1747 
Q 1656 1250 1848 986 
Q 2041 722 2400 722 
z
M 1656 2988 
Q 1888 3294 2169 3439 
Q 2450 3584 2816 3584 
Q 3463 3584 3878 3070 
Q 4294 2556 4294 1747 
Q 4294 938 3878 423 
Q 3463 -91 2816 -91 
Q 2450 -91 2169 54 
Q 1888 200 1656 506 
L 1656 0 
L 538 0 
L 538 4863 
L 1656 4863 
L 1656 2988 
z
" transform="scale(0.015625)"/>
       <path id="DejaVuSans-Bold-61" d="M 2106 1575 
Q 1756 1575 1579 1456 
Q 1403 1338 1403 1106 
Q 1403 894 1545 773 
Q 1688 653 1941 653 
Q 2256 653 2472 879 
Q 2688 1106 2688 1447 
L 2688 1575 
L 2106 1575 
z
M 3816 1997 
L 3816 0 
L 2688 0 
L 2688 519 
Q 2463 200 2181 54 
Q 1900 -91 1497 -91 
Q 953 -91 614 226 
Q 275 544 275 1050 
Q 275 1666 698 1953 
Q 1122 2241 2028 2241 
L 2688 2241 
L 2688 2328 
Q 2688 2594 2478 2717 
Q 2269 2841 1825 2841 
Q 1466 2841 1156 2769 
Q 847 2697 581 2553 
L 581 3406 
Q 941 3494 1303 3539 
Q 1666 3584 2028 3584 
Q 2975 3584 3395 3211 
Q 3816 2838 3816 1997 
z
" transform="scale(0.015625)"/>
       <path id="DejaVuSans-Bold-69" d="M 538 3500 
L 1656 3500 
L 1656 0 
L 538 0 
L 538 3500 
z
M 538 4863 
L 1656 4863 
L 1656 3950 
L 538 3950 
L 538 4863 
z
" transform="scale(0.015625)"/>
       <path id="DejaVuSans-Bold-6e" d="M 4056 2131 
L 4056 0 
L 2931 0 
L 2931 347 
L 2931 1631 
Q 2931 2084 2911 2256 
Q 2891 2428 2841 2509 
Q 2775 2619 2662 2680 
Q 2550 2741 2406 2741 
Q 2056 2741 1856 2470 
Q 1656 2200 1656 1722 
L 1656 0 
L 538 0 
L 538 3500 
L 1656 3500 
L 1656 2988 
Q 1909 3294 2193 3439 
Q 2478 3584 2822 3584 
Q 3428 3584 3742 3212 
Q 4056 2841 4056 2131 
z
" transform="scale(0.015625)"/>
       <path id="DejaVuSans-Bold-50" d="M 588 4666 
L 2584 4666 
Q 3475 4666 3951 4270 
Q 4428 3875 4428 3144 
Q 4428 2409 3951 2014 
Q 3475 1619 2584 1619 
L 1791 1619 
L 1791 0 
L 588 0 
L 588 4666 
z
M 1791 3794 
L 1791 2491 
L 2456 2491 
Q 2806 2491 2997 2661 
Q 3188 2831 3188 3144 
Q 3188 3456 2997 3625 
Q 2806 3794 2456 3794 
L 1791 3794 
z
" transform="scale(0.015625)"/>
       <path id="DejaVuSans-Bold-41" d="M 3419 850 
L 1538 850 
L 1241 0 
L 31 0 
L 1759 4666 
L 3194 4666 
L 4922 0 
L 3713 0 
L 3419 850 
z
M 1838 1716 
L 3116 1716 
L 2478 3572 
L 1838 1716 
z
" transform="scale(0.015625)"/>
       <path id="DejaVuSans-Bold-44" d="M 1791 3756 
L 1791 909 
L 2222 909 
Q 2959 909 3348 1275 
Q 3738 1641 3738 2338 
Q 3738 3031 3350 3393 
Q 2963 3756 2222 3756 
L 1791 3756 
z
M 588 4666 
L 1856 4666 
Q 2919 4666 3439 4514 
Q 3959 4363 4331 4000 
Q 4659 3684 4818 3271 
Q 4978 2859 4978 2338 
Q 4978 1809 4818 1395 
Q 4659 981 4331 666 
Q 3956 303 3431 151 
Q 2906 0 1856 0 
L 588 0 
L 588 4666 
z
" transform="scale(0.015625)"/>
       <path id="DejaVuSans-Bold-5f" d="M 3200 -916 
L 3200 -1509 
L 0 -1509 
L 0 -916 
L 3200 -916 
z
" transform="scale(0.015625)"/>
       <path id="DejaVuSans-Bold-73" d="M 3272 3391 
L 3272 2541 
Q 2913 2691 2578 2766 
Q 2244 2841 1947 2841 
Q 1628 2841 1473 2761 
Q 1319 2681 1319 2516 
Q 1319 2381 1436 2309 
Q 1553 2238 1856 2203 
L 2053 2175 
Q 2913 2066 3209 1816 
Q 3506 1566 3506 1031 
Q 3506 472 3093 190 
Q 2681 -91 1863 -91 
Q 1516 -91 1145 -36 
Q 775 19 384 128 
L 384 978 
Q 719 816 1070 734 
Q 1422 653 1784 653 
Q 2113 653 2278 743 
Q 2444 834 2444 1013 
Q 2444 1163 2330 1236 
Q 2216 1309 1875 1350 
L 1678 1375 
Q 931 1469 631 1722 
Q 331 1975 331 2491 
Q 331 3047 712 3315 
Q 1094 3584 1881 3584 
Q 2191 3584 2531 3537 
Q 2872 3491 3272 3391 
z
" transform="scale(0.015625)"/>
       <path id="DejaVuSans-Bold-74" d="M 1759 4494 
L 1759 3500 
L 2913 3500 
L 2913 2700 
L 1759 2700 
L 1759 1216 
Q 1759 972 1856 886 
Q 1953 800 2241 800 
L 2816 800 
L 2816 0 
L 1856 0 
Q 1194 0 917 276 
Q 641 553 641 1216 
L 641 2700 
L 84 2700 
L 84 3500 
L 641 3500 
L 641 4494 
L 1759 4494 
z
" transform="scale(0.015625)"/>
       <path id="DejaVuSans-Bold-64" d="M 2919 2988 
L 2919 4863 
L 4044 4863 
L 4044 0 
L 2919 0 
L 2919 506 
Q 2688 197 2409 53 
Q 2131 -91 1766 -91 
Q 1119 -91 703 423 
Q 288 938 288 1747 
Q 288 2556 703 3070 
Q 1119 3584 1766 3584 
Q 2128 3584 2408 3439 
Q 2688 3294 2919 2988 
z
M 2181 722 
Q 2541 722 2730 984 
Q 2919 1247 2919 1747 
Q 2919 2247 2730 2509 
Q 2541 2772 2181 2772 
Q 1825 2772 1636 2509 
Q 1447 2247 1447 1747 
Q 1447 1247 1636 984 
Q 1825 722 2181 722 
z
" transform="scale(0.015625)"/>
       <path id="DejaVuSans-Bold-7a" d="M 366 3500 
L 3419 3500 
L 3419 2719 
L 1575 800 
L 3419 800 
L 3419 0 
L 288 0 
L 288 781 
L 2131 2700 
L 366 2700 
L 366 3500 
z
" transform="scale(0.015625)"/>
       <path id="DejaVuSans-Bold-65" d="M 4031 1759 
L 4031 1441 
L 1416 1441 
Q 1456 1047 1700 850 
Q 1944 653 2381 653 
Q 2734 653 3104 758 
Q 3475 863 3866 1075 
L 3866 213 
Q 3469 63 3072 -14 
Q 2675 -91 2278 -91 
Q 1328 -91 801 392 
Q 275 875 275 1747 
Q 275 2603 792 3093 
Q 1309 3584 2216 3584 
Q 3041 3584 3536 3087 
Q 4031 2591 4031 1759 
z
M 2881 2131 
Q 2881 2450 2695 2645 
Q 2509 2841 2209 2841 
Q 1884 2841 1681 2658 
Q 1478 2475 1428 2131 
L 2881 2131 
z
" transform="scale(0.015625)"/>
      </defs>
      <use xlink:href="#DejaVuSans-Bold-62"/>
      <use xlink:href="#DejaVuSans-Bold-72" transform="translate(71.582031 0)"/>
      <use xlink:href="#DejaVuSans-Bold-61" transform="translate(120.898438 0)"/>
      <use xlink:href="#DejaVuSans-Bold-69" transform="translate(188.378906 0)"/>
      <use xlink:href="#DejaVuSans-Bold-6e" transform="translate(222.65625 0)"/>
      <use xlink:href="#DejaVuSans-Bold-50" transform="translate(293.847656 0)"/>
      <use xlink:href="#DejaVuSans-Bold-41" transform="translate(358.013672 0)"/>
      <use xlink:href="#DejaVuSans-Bold-44" transform="translate(435.40625 0)"/>
      <use xlink:href="#DejaVuSans-Bold-5f" transform="translate(518.414062 0)"/>
      <use xlink:href="#DejaVuSans-Bold-73" transform="translate(568.414062 0)"/>
      <use xlink:href="#DejaVuSans-Bold-74" transform="translate(627.935547 0)"/>
      <use xlink:href="#DejaVuSans-Bold-61" transform="translate(675.738281 0)"/>
      <use xlink:href="#DejaVuSans-Bold-6e" transform="translate(743.21875 0)"/>
      <use xlink:href="#DejaVuSans-Bold-64" transform="translate(814.410156 0)"/>
      <use xlink:href="#DejaVuSans-Bold-61" transform="translate(885.992188 0)"/>
      <use xlink:href="#DejaVuSans-Bold-72" transform="translate(953.472656 0)"/>
      <use xlink:href="#DejaVuSans-Bold-64" transform="translate(1002.789062 0)"/>
      <use xlink:href="#DejaVuSans-Bold-69" transform="translate(1074.371094 0)"/>
      <use xlink:href="#DejaVuSans-Bold-7a" transform="translate(1108.648438 0)"/>
      <use xlink:href="#DejaVuSans-Bold-65" transform="translate(1166.851562 0)"/>
      <use xlink:href="#DejaVuSans-Bold-64" transform="translate(1234.673828 0)"/>
     </g>
    </g>
   </g>
   <g id="patch_3">
    <path d="M 157.636364 294.476346 
L 298.545455 294.476346 
L 298.545455 263.528364 
L 157.636364 263.528364 
L 157.636364 294.476346 
L 157.636364 294.476346 
z
" clip-path="url(#pfb684f2359)" style="fill: none; stroke: #b4bbbb; stroke-width: 2; stroke-linejoin: miter"/>
   </g>
   <g id="line2d_10">
    <path d="M 228.090909 294.476346 
L 228.090909 331.105647 
" clip-path="url(#pfb684f2359)" style="fill: none; stroke: #b4bbbb; stroke-width: 2"/>
   </g>
   <g id="line2d_11">
    <path d="M 228.090909 263.528364 
L 228.090909 220.132696 
" clip-path="url(#pfb684f2359)" style="fill: none; stroke: #b4bbbb; stroke-width: 2"/>
   </g>
   <g id="line2d_12">
    <path d="M 192.863636 331.105647 
L 263.318182 331.105647 
" clip-path="url(#pfb684f2359)" style="fill: none; stroke: #b4bbbb; stroke-width: 2; stroke-linecap: square"/>
   </g>
   <g id="line2d_13">
    <path d="M 192.863636 220.132696 
L 263.318182 220.132696 
" clip-path="url(#pfb684f2359)" style="fill: none; stroke: #b4bbbb; stroke-width: 2; stroke-linecap: square"/>
   </g>
   <g id="patch_4">
    <path d="M 439.454545 292.254619 
L 580.363636 292.254619 
L 580.363636 244.402804 
L 439.454545 244.402804 
L 439.454545 292.254619 
L 439.454545 292.254619 
z
" clip-path="url(#pfb684f2359)" style="fill: none; stroke: #bf6673; stroke-width: 2; stroke-linejoin: miter"/>
   </g>
   <g id="line2d_14">
    <path d="M 509.909091 292.254619 
L 509.909091 338.422464 
" clip-path="url(#pfb684f2359)" style="fill: none; stroke: #bf6673; stroke-width: 2"/>
   </g>
   <g id="line2d_15">
    <path d="M 509.909091 244.402804 
L 509.909091 174.151114 
" clip-path="url(#pfb684f2359)" style="fill: none; stroke: #bf6673; stroke-width: 2"/>
   </g>
   <g id="line2d_16">
    <path d="M 474.681818 338.422464 
L 545.136364 338.422464 
" clip-path="url(#pfb684f2359)" style="fill: none; stroke: #bf6673; stroke-width: 2; stroke-linecap: square"/>
   </g>
   <g id="line2d_17">
    <path d="M 474.681818 174.151114 
L 545.136364 174.151114 
" clip-path="url(#pfb684f2359)" style="fill: none; stroke: #bf6673; stroke-width: 2; stroke-linecap: square"/>
   </g>
   <g id="line2d_18">
    <path d="M 157.636364 279.800153 
L 298.545455 279.800153 
" clip-path="url(#pfb684f2359)" style="fill: none; stroke: #b4bbbb; stroke-width: 2"/>
   </g>
   <g id="line2d_19">
    <path d="M 439.454545 272.569826 
L 580.363636 272.569826 
" clip-path="url(#pfb684f2359)" style="fill: none; stroke: #bf6673; stroke-width: 2"/>
   </g>
   <g id="patch_5">
    <path d="M 90 384.48 
L 90 51.84 
" style="fill: none; stroke: #000000; stroke-width: 0.8; stroke-linejoin: miter; stroke-linecap: square"/>
   </g>
   <g id="patch_6">
    <path d="M 648 384.48 
L 648 51.84 
" style="fill: none; stroke: #000000; stroke-width: 0.8; stroke-linejoin: miter; stroke-linecap: square"/>
   </g>
   <g id="patch_7">
    <path d="M 90 384.48 
L 648 384.48 
" style="fill: none; stroke: #000000; stroke-width: 0.8; stroke-linejoin: miter; stroke-linecap: square"/>
   </g>
   <g id="patch_8">
    <path d="M 90 51.84 
L 648 51.84 
" style="fill: none; stroke: #000000; stroke-width: 0.8; stroke-linejoin: miter; stroke-linecap: square"/>
   </g>
   <g id="PathCollection_1">
    <defs>
     <path id="C0_0_c710a4fb5b" d="M 0 3.5 
C 0.928211 3.5 1.81853 3.131218 2.474874 2.474874 
C 3.131218 1.81853 3.5 0.928211 3.5 -0 
C 3.5 -0.928211 3.131218 -1.81853 2.474874 -2.474874 
C 1.81853 -3.131218 0.928211 -3.5 0 -3.5 
C -0.928211 -3.5 -1.81853 -3.131218 -2.474874 -2.474874 
C -3.131218 -1.81853 -3.5 -0.928211 -3.5 0 
C -3.5 0.928211 -3.131218 1.81853 -2.474874 2.474874 
C -1.81853 3.131218 -0.928211 3.5 0 3.5 
z
"/>
    </defs>
    <g clip-path="url(#pfb684f2359)">
     <use xlink:href="#C0_0_c710a4fb5b" x="243.637126" y="275.800897" style="fill: #b4bbbb; fill-opacity: 0.4"/>
    </g>
    <g clip-path="url(#pfb684f2359)">
     <use xlink:href="#C0_0_c710a4fb5b" x="227.458507" y="260.13814" style="fill: #b4bbbb; fill-opacity: 0.4"/>
    </g>
    <g clip-path="url(#pfb684f2359)">
     <use xlink:href="#C0_0_c710a4fb5b" x="249.541299" y="236.751782" style="fill: #b4bbbb; fill-opacity: 0.4"/>
    </g>
    <g clip-path="url(#pfb684f2359)">
     <use xlink:href="#C0_0_c710a4fb5b" x="215.820276" y="276.393706" style="fill: #b4bbbb; fill-opacity: 0.4"/>
    </g>
    <g clip-path="url(#pfb684f2359)">
     <use xlink:href="#C0_0_c710a4fb5b" x="227.816819" y="304.497151" style="fill: #b4bbbb; fill-opacity: 0.4"/>
    </g>
    <g clip-path="url(#pfb684f2359)">
     <use xlink:href="#C0_0_c710a4fb5b" x="223.550493" y="311.325103" style="fill: #b4bbbb; fill-opacity: 0.4"/>
    </g>
    <g clip-path="url(#pfb684f2359)">
     <use xlink:href="#C0_0_c710a4fb5b" x="250.375614" y="272.648868" style="fill: #b4bbbb; fill-opacity: 0.4"/>
    </g>
    <g clip-path="url(#pfb684f2359)">
     <use xlink:href="#C0_0_c710a4fb5b" x="250.281941" y="286.367696" style="fill: #b4bbbb; fill-opacity: 0.4"/>
    </g>
    <g clip-path="url(#pfb684f2359)">
     <use xlink:href="#C0_0_c710a4fb5b" x="233.363943" y="260.535967" style="fill: #b4bbbb; fill-opacity: 0.4"/>
    </g>
    <g clip-path="url(#pfb684f2359)">
     <use xlink:href="#C0_0_c710a4fb5b" x="215.969877" y="172.799115" style="fill: #b4bbbb; fill-opacity: 0.4"/>
    </g>
    <g clip-path="url(#pfb684f2359)">
     <use xlink:href="#C0_0_c710a4fb5b" x="255.771769" y="284.882068" style="fill: #b4bbbb; fill-opacity: 0.4"/>
    </g>
    <g clip-path="url(#pfb684f2359)">
     <use xlink:href="#C0_0_c710a4fb5b" x="213.151162" y="308.46056" style="fill: #b4bbbb; fill-opacity: 0.4"/>
    </g>
    <g clip-path="url(#pfb684f2359)">
     <use xlink:href="#C0_0_c710a4fb5b" x="253.798079" y="287.985634" style="fill: #b4bbbb; fill-opacity: 0.4"/>
    </g>
    <g clip-path="url(#pfb684f2359)">
     <use xlink:href="#C0_0_c710a4fb5b" x="251.445123" y="296.192959" style="fill: #b4bbbb; fill-opacity: 0.4"/>
    </g>
    <g clip-path="url(#pfb684f2359)">
     <use xlink:href="#C0_0_c710a4fb5b" x="227.591592" y="294.711852" style="fill: #b4bbbb; fill-opacity: 0.4"/>
    </g>
    <g clip-path="url(#pfb684f2359)">
     <use xlink:href="#C0_0_c710a4fb5b" x="209.517916" y="275.638224" style="fill: #b4bbbb; fill-opacity: 0.4"/>
    </g>
    <g clip-path="url(#pfb684f2359)">
     <use xlink:href="#C0_0_c710a4fb5b" x="255.169568" y="302.636474" style="fill: #b4bbbb; fill-opacity: 0.4"/>
    </g>
    <g clip-path="url(#pfb684f2359)">
     <use xlink:href="#C0_0_c710a4fb5b" x="237.680994" y="301.344508" style="fill: #b4bbbb; fill-opacity: 0.4"/>
    </g>
    <g clip-path="url(#pfb684f2359)">
     <use xlink:href="#C0_0_c710a4fb5b" x="201.399076" y="278.927085" style="fill: #b4bbbb; fill-opacity: 0.4"/>
    </g>
    <g clip-path="url(#pfb684f2359)">
     <use xlink:href="#C0_0_c710a4fb5b" x="235.29087" y="309.16986" style="fill: #b4bbbb; fill-opacity: 0.4"/>
    </g>
    <g clip-path="url(#pfb684f2359)">
     <use xlink:href="#C0_0_c710a4fb5b" x="224.595017" y="298.323433" style="fill: #b4bbbb; fill-opacity: 0.4"/>
    </g>
    <g clip-path="url(#pfb684f2359)">
     <use xlink:href="#C0_0_c710a4fb5b" x="228.624437" y="240.217955" style="fill: #b4bbbb; fill-opacity: 0.4"/>
    </g>
    <g clip-path="url(#pfb684f2359)">
     <use xlink:href="#C0_0_c710a4fb5b" x="230.57974" y="297.108307" style="fill: #b4bbbb; fill-opacity: 0.4"/>
    </g>
    <g clip-path="url(#pfb684f2359)">
     <use xlink:href="#C0_0_c710a4fb5b" x="214.666279" y="278.458994" style="fill: #b4bbbb; fill-opacity: 0.4"/>
    </g>
    <g clip-path="url(#pfb684f2359)">
     <use xlink:href="#C0_0_c710a4fb5b" x="219.121415" y="283.448902" style="fill: #b4bbbb; fill-opacity: 0.4"/>
    </g>
    <g clip-path="url(#pfb684f2359)">
     <use xlink:href="#C0_0_c710a4fb5b" x="205.494737" y="281.008491" style="fill: #b4bbbb; fill-opacity: 0.4"/>
    </g>
    <g clip-path="url(#pfb684f2359)">
     <use xlink:href="#C0_0_c710a4fb5b" x="234.894232" y="220.132696" style="fill: #b4bbbb; fill-opacity: 0.4"/>
    </g>
    <g clip-path="url(#pfb684f2359)">
     <use xlink:href="#C0_0_c710a4fb5b" x="219.946239" y="296.258431" style="fill: #b4bbbb; fill-opacity: 0.4"/>
    </g>
    <g clip-path="url(#pfb684f2359)">
     <use xlink:href="#C0_0_c710a4fb5b" x="251.14473" y="305.362547" style="fill: #b4bbbb; fill-opacity: 0.4"/>
    </g>
    <g clip-path="url(#pfb684f2359)">
     <use xlink:href="#C0_0_c710a4fb5b" x="254.166335" y="277.162859" style="fill: #b4bbbb; fill-opacity: 0.4"/>
    </g>
    <g clip-path="url(#pfb684f2359)">
     <use xlink:href="#C0_0_c710a4fb5b" x="256.199304" y="268.068326" style="fill: #b4bbbb; fill-opacity: 0.4"/>
    </g>
    <g clip-path="url(#pfb684f2359)">
     <use xlink:href="#C0_0_c710a4fb5b" x="226.634197" y="299.497641" style="fill: #b4bbbb; fill-opacity: 0.4"/>
    </g>
    <g clip-path="url(#pfb684f2359)">
     <use xlink:href="#C0_0_c710a4fb5b" x="209.405762" y="285.505322" style="fill: #b4bbbb; fill-opacity: 0.4"/>
    </g>
    <g clip-path="url(#pfb684f2359)">
     <use xlink:href="#C0_0_c710a4fb5b" x="251.506906" y="274.297802" style="fill: #b4bbbb; fill-opacity: 0.4"/>
    </g>
    <g clip-path="url(#pfb684f2359)">
     <use xlink:href="#C0_0_c710a4fb5b" x="239.707575" y="261.03923" style="fill: #b4bbbb; fill-opacity: 0.4"/>
    </g>
    <g clip-path="url(#pfb684f2359)">
     <use xlink:href="#C0_0_c710a4fb5b" x="214.727786" y="237.857401" style="fill: #b4bbbb; fill-opacity: 0.4"/>
    </g>
    <g clip-path="url(#pfb684f2359)">
     <use xlink:href="#C0_0_c710a4fb5b" x="204.220591" y="288.404622" style="fill: #b4bbbb; fill-opacity: 0.4"/>
    </g>
    <g clip-path="url(#pfb684f2359)">
     <use xlink:href="#C0_0_c710a4fb5b" x="254.841381" y="293.252196" style="fill: #b4bbbb; fill-opacity: 0.4"/>
    </g>
    <g clip-path="url(#pfb684f2359)">
     <use xlink:href="#C0_0_c710a4fb5b" x="246.304444" y="268.20382" style="fill: #b4bbbb; fill-opacity: 0.4"/>
    </g>
    <g clip-path="url(#pfb684f2359)">
     <use xlink:href="#C0_0_c710a4fb5b" x="252.420979" y="275.289015" style="fill: #b4bbbb; fill-opacity: 0.4"/>
    </g>
    <g clip-path="url(#pfb684f2359)">
     <use xlink:href="#C0_0_c710a4fb5b" x="228.581513" y="264.15591" style="fill: #b4bbbb; fill-opacity: 0.4"/>
    </g>
    <g clip-path="url(#pfb684f2359)">
     <use xlink:href="#C0_0_c710a4fb5b" x="210.843432" y="291.983194" style="fill: #b4bbbb; fill-opacity: 0.4"/>
    </g>
    <g clip-path="url(#pfb684f2359)">
     <use xlink:href="#C0_0_c710a4fb5b" x="204.05866" y="250.826628" style="fill: #b4bbbb; fill-opacity: 0.4"/>
    </g>
    <g clip-path="url(#pfb684f2359)">
     <use xlink:href="#C0_0_c710a4fb5b" x="224.650408" y="303.580155" style="fill: #b4bbbb; fill-opacity: 0.4"/>
    </g>
    <g clip-path="url(#pfb684f2359)">
     <use xlink:href="#C0_0_c710a4fb5b" x="202.158656" y="300.847503" style="fill: #b4bbbb; fill-opacity: 0.4"/>
    </g>
    <g clip-path="url(#pfb684f2359)">
     <use xlink:href="#C0_0_c710a4fb5b" x="211.034991" y="269.199749" style="fill: #b4bbbb; fill-opacity: 0.4"/>
    </g>
    <g clip-path="url(#pfb684f2359)">
     <use xlink:href="#C0_0_c710a4fb5b" x="205.012096" y="266.091074" style="fill: #b4bbbb; fill-opacity: 0.4"/>
    </g>
    <g clip-path="url(#pfb684f2359)">
     <use xlink:href="#C0_0_c710a4fb5b" x="238.426952" y="243.66725" style="fill: #b4bbbb; fill-opacity: 0.4"/>
    </g>
    <g clip-path="url(#pfb684f2359)">
     <use xlink:href="#C0_0_c710a4fb5b" x="240.484743" y="245.839632" style="fill: #b4bbbb; fill-opacity: 0.4"/>
    </g>
    <g clip-path="url(#pfb684f2359)">
     <use xlink:href="#C0_0_c710a4fb5b" x="221.423188" y="295.279599" style="fill: #b4bbbb; fill-opacity: 0.4"/>
    </g>
    <g clip-path="url(#pfb684f2359)">
     <use xlink:href="#C0_0_c710a4fb5b" x="254.734134" y="286.251144" style="fill: #b4bbbb; fill-opacity: 0.4"/>
    </g>
    <g clip-path="url(#pfb684f2359)">
     <use xlink:href="#C0_0_c710a4fb5b" x="246.697" y="245.963896" style="fill: #b4bbbb; fill-opacity: 0.4"/>
    </g>
    <g clip-path="url(#pfb684f2359)">
     <use xlink:href="#C0_0_c710a4fb5b" x="255.355864" y="311.251027" style="fill: #b4bbbb; fill-opacity: 0.4"/>
    </g>
    <g clip-path="url(#pfb684f2359)">
     <use xlink:href="#C0_0_c710a4fb5b" x="252.96098" y="287.46026" style="fill: #b4bbbb; fill-opacity: 0.4"/>
    </g>
    <g clip-path="url(#pfb684f2359)">
     <use xlink:href="#C0_0_c710a4fb5b" x="232.291164" y="250.635856" style="fill: #b4bbbb; fill-opacity: 0.4"/>
    </g>
    <g clip-path="url(#pfb684f2359)">
     <use xlink:href="#C0_0_c710a4fb5b" x="220.199778" y="264.334739" style="fill: #b4bbbb; fill-opacity: 0.4"/>
    </g>
    <g clip-path="url(#pfb684f2359)">
     <use xlink:href="#C0_0_c710a4fb5b" x="217.903994" y="270.996673" style="fill: #b4bbbb; fill-opacity: 0.4"/>
    </g>
    <g clip-path="url(#pfb684f2359)">
     <use xlink:href="#C0_0_c710a4fb5b" x="200.728835" y="279.123801" style="fill: #b4bbbb; fill-opacity: 0.4"/>
    </g>
    <g clip-path="url(#pfb684f2359)">
     <use xlink:href="#C0_0_c710a4fb5b" x="226.565502" y="286.397152" style="fill: #b4bbbb; fill-opacity: 0.4"/>
    </g>
    <g clip-path="url(#pfb684f2359)">
     <use xlink:href="#C0_0_c710a4fb5b" x="237.905311" y="279.146015" style="fill: #b4bbbb; fill-opacity: 0.4"/>
    </g>
    <g clip-path="url(#pfb684f2359)">
     <use xlink:href="#C0_0_c710a4fb5b" x="201.413347" y="265.336858" style="fill: #b4bbbb; fill-opacity: 0.4"/>
    </g>
    <g clip-path="url(#pfb684f2359)">
     <use xlink:href="#C0_0_c710a4fb5b" x="222.12412" y="280.786353" style="fill: #b4bbbb; fill-opacity: 0.4"/>
    </g>
    <g clip-path="url(#pfb684f2359)">
     <use xlink:href="#C0_0_c710a4fb5b" x="204.797557" y="289.591213" style="fill: #b4bbbb; fill-opacity: 0.4"/>
    </g>
    <g clip-path="url(#pfb684f2359)">
     <use xlink:href="#C0_0_c710a4fb5b" x="215.429066" y="261.554891" style="fill: #b4bbbb; fill-opacity: 0.4"/>
    </g>
    <g clip-path="url(#pfb684f2359)">
     <use xlink:href="#C0_0_c710a4fb5b" x="219.343451" y="285.527172" style="fill: #b4bbbb; fill-opacity: 0.4"/>
    </g>
    <g clip-path="url(#pfb684f2359)">
     <use xlink:href="#C0_0_c710a4fb5b" x="207.249929" y="292.694973" style="fill: #b4bbbb; fill-opacity: 0.4"/>
    </g>
    <g clip-path="url(#pfb684f2359)">
     <use xlink:href="#C0_0_c710a4fb5b" x="245.059873" y="279.775697" style="fill: #b4bbbb; fill-opacity: 0.4"/>
    </g>
    <g clip-path="url(#pfb684f2359)">
     <use xlink:href="#C0_0_c710a4fb5b" x="227.008489" y="239.718398" style="fill: #b4bbbb; fill-opacity: 0.4"/>
    </g>
    <g clip-path="url(#pfb684f2359)">
     <use xlink:href="#C0_0_c710a4fb5b" x="233.805263" y="241.507528" style="fill: #b4bbbb; fill-opacity: 0.4"/>
    </g>
    <g clip-path="url(#pfb684f2359)">
     <use xlink:href="#C0_0_c710a4fb5b" x="244.77604" y="282.275405" style="fill: #b4bbbb; fill-opacity: 0.4"/>
    </g>
    <g clip-path="url(#pfb684f2359)">
     <use xlink:href="#C0_0_c710a4fb5b" x="254.57792" y="303.166042" style="fill: #b4bbbb; fill-opacity: 0.4"/>
    </g>
    <g clip-path="url(#pfb684f2359)">
     <use xlink:href="#C0_0_c710a4fb5b" x="228.117159" y="216.045386" style="fill: #b4bbbb; fill-opacity: 0.4"/>
    </g>
    <g clip-path="url(#pfb684f2359)">
     <use xlink:href="#C0_0_c710a4fb5b" x="249.814654" y="288.081564" style="fill: #b4bbbb; fill-opacity: 0.4"/>
    </g>
    <g clip-path="url(#pfb684f2359)">
     <use xlink:href="#C0_0_c710a4fb5b" x="238.449988" y="286.807218" style="fill: #b4bbbb; fill-opacity: 0.4"/>
    </g>
    <g clip-path="url(#pfb684f2359)">
     <use xlink:href="#C0_0_c710a4fb5b" x="243.755327" y="312.656671" style="fill: #b4bbbb; fill-opacity: 0.4"/>
    </g>
    <g clip-path="url(#pfb684f2359)">
     <use xlink:href="#C0_0_c710a4fb5b" x="232.980112" y="314.842209" style="fill: #b4bbbb; fill-opacity: 0.4"/>
    </g>
    <g clip-path="url(#pfb684f2359)">
     <use xlink:href="#C0_0_c710a4fb5b" x="254.878311" y="238.195085" style="fill: #b4bbbb; fill-opacity: 0.4"/>
    </g>
    <g clip-path="url(#pfb684f2359)">
     <use xlink:href="#C0_0_c710a4fb5b" x="235.009829" y="281.257873" style="fill: #b4bbbb; fill-opacity: 0.4"/>
    </g>
    <g clip-path="url(#pfb684f2359)">
     <use xlink:href="#C0_0_c710a4fb5b" x="239.878533" y="277.920203" style="fill: #b4bbbb; fill-opacity: 0.4"/>
    </g>
    <g clip-path="url(#pfb684f2359)">
     <use xlink:href="#C0_0_c710a4fb5b" x="204.494868" y="272.833384" style="fill: #b4bbbb; fill-opacity: 0.4"/>
    </g>
    <g clip-path="url(#pfb684f2359)">
     <use xlink:href="#C0_0_c710a4fb5b" x="212.889319" y="318.352454" style="fill: #b4bbbb; fill-opacity: 0.4"/>
    </g>
    <g clip-path="url(#pfb684f2359)">
     <use xlink:href="#C0_0_c710a4fb5b" x="203.573396" y="220.313314" style="fill: #b4bbbb; fill-opacity: 0.4"/>
    </g>
    <g clip-path="url(#pfb684f2359)">
     <use xlink:href="#C0_0_c710a4fb5b" x="229.523751" y="201.313276" style="fill: #b4bbbb; fill-opacity: 0.4"/>
    </g>
    <g clip-path="url(#pfb684f2359)">
     <use xlink:href="#C0_0_c710a4fb5b" x="219.330707" y="246.809354" style="fill: #b4bbbb; fill-opacity: 0.4"/>
    </g>
    <g clip-path="url(#pfb684f2359)">
     <use xlink:href="#C0_0_c710a4fb5b" x="236.591039" y="258.908325" style="fill: #b4bbbb; fill-opacity: 0.4"/>
    </g>
    <g clip-path="url(#pfb684f2359)">
     <use xlink:href="#C0_0_c710a4fb5b" x="254.11661" y="244.533094" style="fill: #b4bbbb; fill-opacity: 0.4"/>
    </g>
    <g clip-path="url(#pfb684f2359)">
     <use xlink:href="#C0_0_c710a4fb5b" x="201.862819" y="331.105647" style="fill: #b4bbbb; fill-opacity: 0.4"/>
    </g>
    <g clip-path="url(#pfb684f2359)">
     <use xlink:href="#C0_0_c710a4fb5b" x="204.192811" y="261.645727" style="fill: #b4bbbb; fill-opacity: 0.4"/>
    </g>
    <g clip-path="url(#pfb684f2359)">
     <use xlink:href="#C0_0_c710a4fb5b" x="206.714846" y="320.777397" style="fill: #b4bbbb; fill-opacity: 0.4"/>
    </g>
    <g clip-path="url(#pfb684f2359)">
     <use xlink:href="#C0_0_c710a4fb5b" x="246.96203" y="258.464633" style="fill: #b4bbbb; fill-opacity: 0.4"/>
    </g>
    <g clip-path="url(#pfb684f2359)">
     <use xlink:href="#C0_0_c710a4fb5b" x="217.4946" y="223.627117" style="fill: #b4bbbb; fill-opacity: 0.4"/>
    </g>
    <g clip-path="url(#pfb684f2359)">
     <use xlink:href="#C0_0_c710a4fb5b" x="231.576884" y="276.570305" style="fill: #b4bbbb; fill-opacity: 0.4"/>
    </g>
    <g clip-path="url(#pfb684f2359)">
     <use xlink:href="#C0_0_c710a4fb5b" x="244.552307" y="296.371693" style="fill: #b4bbbb; fill-opacity: 0.4"/>
    </g>
    <g clip-path="url(#pfb684f2359)">
     <use xlink:href="#C0_0_c710a4fb5b" x="234.916445" y="245.15562" style="fill: #b4bbbb; fill-opacity: 0.4"/>
    </g>
    <g clip-path="url(#pfb684f2359)">
     <use xlink:href="#C0_0_c710a4fb5b" x="211.856419" y="314.846647" style="fill: #b4bbbb; fill-opacity: 0.4"/>
    </g>
    <g clip-path="url(#pfb684f2359)">
     <use xlink:href="#C0_0_c710a4fb5b" x="246.157436" y="294.353877" style="fill: #b4bbbb; fill-opacity: 0.4"/>
    </g>
    <g clip-path="url(#pfb684f2359)">
     <use xlink:href="#C0_0_c710a4fb5b" x="247.819333" y="260.514951" style="fill: #b4bbbb; fill-opacity: 0.4"/>
    </g>
    <g clip-path="url(#pfb684f2359)">
     <use xlink:href="#C0_0_c710a4fb5b" x="246.341703" y="275.425775" style="fill: #b4bbbb; fill-opacity: 0.4"/>
    </g>
    <g clip-path="url(#pfb684f2359)">
     <use xlink:href="#C0_0_c710a4fb5b" x="202.241146" y="287.138256" style="fill: #b4bbbb; fill-opacity: 0.4"/>
    </g>
    <g clip-path="url(#pfb684f2359)">
     <use xlink:href="#C0_0_c710a4fb5b" x="201.668226" y="294.397844" style="fill: #b4bbbb; fill-opacity: 0.4"/>
    </g>
    <g clip-path="url(#pfb684f2359)">
     <use xlink:href="#C0_0_c710a4fb5b" x="223.422069" y="279.824609" style="fill: #b4bbbb; fill-opacity: 0.4"/>
    </g>
    <g clip-path="url(#pfb684f2359)">
     <use xlink:href="#C0_0_c710a4fb5b" x="206.683141" y="270.711663" style="fill: #b4bbbb; fill-opacity: 0.4"/>
    </g>
    <g clip-path="url(#pfb684f2359)">
     <use xlink:href="#C0_0_c710a4fb5b" x="244.615042" y="287.136615" style="fill: #b4bbbb; fill-opacity: 0.4"/>
    </g>
    <g clip-path="url(#pfb684f2359)">
     <use xlink:href="#C0_0_c710a4fb5b" x="241.736879" y="275.059158" style="fill: #b4bbbb; fill-opacity: 0.4"/>
    </g>
    <g clip-path="url(#pfb684f2359)">
     <use xlink:href="#C0_0_c710a4fb5b" x="240.085413" y="288.216237" style="fill: #b4bbbb; fill-opacity: 0.4"/>
    </g>
    <g clip-path="url(#pfb684f2359)">
     <use xlink:href="#C0_0_c710a4fb5b" x="216.648781" y="296.776046" style="fill: #b4bbbb; fill-opacity: 0.4"/>
    </g>
    <g clip-path="url(#pfb684f2359)">
     <use xlink:href="#C0_0_c710a4fb5b" x="247.563378" y="243.457032" style="fill: #b4bbbb; fill-opacity: 0.4"/>
    </g>
    <g clip-path="url(#pfb684f2359)">
     <use xlink:href="#C0_0_c710a4fb5b" x="250.342991" y="286.264639" style="fill: #b4bbbb; fill-opacity: 0.4"/>
    </g>
    <g clip-path="url(#pfb684f2359)">
     <use xlink:href="#C0_0_c710a4fb5b" x="207.786735" y="274.991161" style="fill: #b4bbbb; fill-opacity: 0.4"/>
    </g>
    <g clip-path="url(#pfb684f2359)">
     <use xlink:href="#C0_0_c710a4fb5b" x="224.160513" y="297.849053" style="fill: #b4bbbb; fill-opacity: 0.4"/>
    </g>
    <g clip-path="url(#pfb684f2359)">
     <use xlink:href="#C0_0_c710a4fb5b" x="228.970645" y="277.150623" style="fill: #b4bbbb; fill-opacity: 0.4"/>
    </g>
    <g clip-path="url(#pfb684f2359)">
     <use xlink:href="#C0_0_c710a4fb5b" x="220.718337" y="294.17677" style="fill: #b4bbbb; fill-opacity: 0.4"/>
    </g>
    <g clip-path="url(#pfb684f2359)">
     <use xlink:href="#C0_0_c710a4fb5b" x="235.183983" y="297.603291" style="fill: #b4bbbb; fill-opacity: 0.4"/>
    </g>
    <g clip-path="url(#pfb684f2359)">
     <use xlink:href="#C0_0_c710a4fb5b" x="228.506712" y="282.061154" style="fill: #b4bbbb; fill-opacity: 0.4"/>
    </g>
    <g clip-path="url(#pfb684f2359)">
     <use xlink:href="#C0_0_c710a4fb5b" x="250.456386" y="254.930663" style="fill: #b4bbbb; fill-opacity: 0.4"/>
    </g>
    <g clip-path="url(#pfb684f2359)">
     <use xlink:href="#C0_0_c710a4fb5b" x="246.476346" y="271.017884" style="fill: #b4bbbb; fill-opacity: 0.4"/>
    </g>
    <g clip-path="url(#pfb684f2359)">
     <use xlink:href="#C0_0_c710a4fb5b" x="219.448152" y="311.762292" style="fill: #b4bbbb; fill-opacity: 0.4"/>
    </g>
    <g clip-path="url(#pfb684f2359)">
     <use xlink:href="#C0_0_c710a4fb5b" x="249.419819" y="301.855145" style="fill: #b4bbbb; fill-opacity: 0.4"/>
    </g>
    <g clip-path="url(#pfb684f2359)">
     <use xlink:href="#C0_0_c710a4fb5b" x="245.405749" y="292.032702" style="fill: #b4bbbb; fill-opacity: 0.4"/>
    </g>
    <g clip-path="url(#pfb684f2359)">
     <use xlink:href="#C0_0_c710a4fb5b" x="239.82531" y="322.208534" style="fill: #b4bbbb; fill-opacity: 0.4"/>
    </g>
    <g clip-path="url(#pfb684f2359)">
     <use xlink:href="#C0_0_c710a4fb5b" x="205.918559" y="278.607236" style="fill: #b4bbbb; fill-opacity: 0.4"/>
    </g>
    <g clip-path="url(#pfb684f2359)">
     <use xlink:href="#C0_0_c710a4fb5b" x="203.522743" y="282.324186" style="fill: #b4bbbb; fill-opacity: 0.4"/>
    </g>
    <g clip-path="url(#pfb684f2359)">
     <use xlink:href="#C0_0_c710a4fb5b" x="221.718702" y="264.77572" style="fill: #b4bbbb; fill-opacity: 0.4"/>
    </g>
    <g clip-path="url(#pfb684f2359)">
     <use xlink:href="#C0_0_c710a4fb5b" x="250.289196" y="229.78545" style="fill: #b4bbbb; fill-opacity: 0.4"/>
    </g>
   </g>
   <g id="PathCollection_2">
    <defs>
     <path id="C1_0_dd35c6e52e" d="M 0 3.5 
C 0.928211 3.5 1.81853 3.131218 2.474874 2.474874 
C 3.131218 1.81853 3.5 0.928211 3.5 -0 
C 3.5 -0.928211 3.131218 -1.81853 2.474874 -2.474874 
C 1.81853 -3.131218 0.928211 -3.5 0 -3.5 
C -0.928211 -3.5 -1.81853 -3.131218 -2.474874 -2.474874 
C -3.131218 -1.81853 -3.5 -0.928211 -3.5 0 
C -3.5 0.928211 -3.131218 1.81853 -2.474874 2.474874 
C -1.81853 3.131218 -0.928211 3.5 0 3.5 
z
"/>
    </defs>
    <g clip-path="url(#pfb684f2359)">
     <use xlink:href="#C1_0_dd35c6e52e" x="486.929365" y="308.298983" style="fill: #bf6673; fill-opacity: 0.4"/>
    </g>
    <g clip-path="url(#pfb684f2359)">
     <use xlink:href="#C1_0_dd35c6e52e" x="533.932138" y="271.011499" style="fill: #bf6673; fill-opacity: 0.4"/>
    </g>
    <g clip-path="url(#pfb684f2359)">
     <use xlink:href="#C1_0_dd35c6e52e" x="535.950877" y="262.477598" style="fill: #bf6673; fill-opacity: 0.4"/>
    </g>
    <g clip-path="url(#pfb684f2359)">
     <use xlink:href="#C1_0_dd35c6e52e" x="533.644728" y="201.945223" style="fill: #bf6673; fill-opacity: 0.4"/>
    </g>
    <g clip-path="url(#pfb684f2359)">
     <use xlink:href="#C1_0_dd35c6e52e" x="498.479792" y="302.972393" style="fill: #bf6673; fill-opacity: 0.4"/>
    </g>
    <g clip-path="url(#pfb684f2359)">
     <use xlink:href="#C1_0_dd35c6e52e" x="519.742399" y="265.18533" style="fill: #bf6673; fill-opacity: 0.4"/>
    </g>
    <g clip-path="url(#pfb684f2359)">
     <use xlink:href="#C1_0_dd35c6e52e" x="533.311364" y="282.216312" style="fill: #bf6673; fill-opacity: 0.4"/>
    </g>
    <g clip-path="url(#pfb684f2359)">
     <use xlink:href="#C1_0_dd35c6e52e" x="516.441927" y="291.006879" style="fill: #bf6673; fill-opacity: 0.4"/>
    </g>
    <g clip-path="url(#pfb684f2359)">
     <use xlink:href="#C1_0_dd35c6e52e" x="530.927464" y="224.817168" style="fill: #bf6673; fill-opacity: 0.4"/>
    </g>
    <g clip-path="url(#pfb684f2359)">
     <use xlink:href="#C1_0_dd35c6e52e" x="520.293922" y="279.917043" style="fill: #bf6673; fill-opacity: 0.4"/>
    </g>
    <g clip-path="url(#pfb684f2359)">
     <use xlink:href="#C1_0_dd35c6e52e" x="496.791561" y="264.52503" style="fill: #bf6673; fill-opacity: 0.4"/>
    </g>
    <g clip-path="url(#pfb684f2359)">
     <use xlink:href="#C1_0_dd35c6e52e" x="506.866835" y="249.523158" style="fill: #bf6673; fill-opacity: 0.4"/>
    </g>
    <g clip-path="url(#pfb684f2359)">
     <use xlink:href="#C1_0_dd35c6e52e" x="516.96934" y="267.90646" style="fill: #bf6673; fill-opacity: 0.4"/>
    </g>
    <g clip-path="url(#pfb684f2359)">
     <use xlink:href="#C1_0_dd35c6e52e" x="509.776648" y="286.41398" style="fill: #bf6673; fill-opacity: 0.4"/>
    </g>
    <g clip-path="url(#pfb684f2359)">
     <use xlink:href="#C1_0_dd35c6e52e" x="523.795917" y="332.624687" style="fill: #bf6673; fill-opacity: 0.4"/>
    </g>
    <g clip-path="url(#pfb684f2359)">
     <use xlink:href="#C1_0_dd35c6e52e" x="504.259488" y="293.076874" style="fill: #bf6673; fill-opacity: 0.4"/>
    </g>
    <g clip-path="url(#pfb684f2359)">
     <use xlink:href="#C1_0_dd35c6e52e" x="536.820268" y="286.333981" style="fill: #bf6673; fill-opacity: 0.4"/>
    </g>
    <g clip-path="url(#pfb684f2359)">
     <use xlink:href="#C1_0_dd35c6e52e" x="501.202665" y="207.346541" style="fill: #bf6673; fill-opacity: 0.4"/>
    </g>
    <g clip-path="url(#pfb684f2359)">
     <use xlink:href="#C1_0_dd35c6e52e" x="536.574519" y="274.549102" style="fill: #bf6673; fill-opacity: 0.4"/>
    </g>
    <g clip-path="url(#pfb684f2359)">
     <use xlink:href="#C1_0_dd35c6e52e" x="514.977201" y="176.566135" style="fill: #bf6673; fill-opacity: 0.4"/>
    </g>
    <g clip-path="url(#pfb684f2359)">
     <use xlink:href="#C1_0_dd35c6e52e" x="525.975598" y="194.47878" style="fill: #bf6673; fill-opacity: 0.4"/>
    </g>
    <g clip-path="url(#pfb684f2359)">
     <use xlink:href="#C1_0_dd35c6e52e" x="506.159713" y="276.139223" style="fill: #bf6673; fill-opacity: 0.4"/>
    </g>
    <g clip-path="url(#pfb684f2359)">
     <use xlink:href="#C1_0_dd35c6e52e" x="483.574909" y="314.312066" style="fill: #bf6673; fill-opacity: 0.4"/>
    </g>
    <g clip-path="url(#pfb684f2359)">
     <use xlink:href="#C1_0_dd35c6e52e" x="488.143215" y="275.128371" style="fill: #bf6673; fill-opacity: 0.4"/>
    </g>
    <g clip-path="url(#pfb684f2359)">
     <use xlink:href="#C1_0_dd35c6e52e" x="496.516827" y="214.701177" style="fill: #bf6673; fill-opacity: 0.4"/>
    </g>
    <g clip-path="url(#pfb684f2359)">
     <use xlink:href="#C1_0_dd35c6e52e" x="502.760704" y="224.120278" style="fill: #bf6673; fill-opacity: 0.4"/>
    </g>
    <g clip-path="url(#pfb684f2359)">
     <use xlink:href="#C1_0_dd35c6e52e" x="502.257799" y="278.028753" style="fill: #bf6673; fill-opacity: 0.4"/>
    </g>
    <g clip-path="url(#pfb684f2359)">
     <use xlink:href="#C1_0_dd35c6e52e" x="494.917748" y="223.883532" style="fill: #bf6673; fill-opacity: 0.4"/>
    </g>
    <g clip-path="url(#pfb684f2359)">
     <use xlink:href="#C1_0_dd35c6e52e" x="508.259563" y="276.617454" style="fill: #bf6673; fill-opacity: 0.4"/>
    </g>
    <g clip-path="url(#pfb684f2359)">
     <use xlink:href="#C1_0_dd35c6e52e" x="517.950678" y="237.954828" style="fill: #bf6673; fill-opacity: 0.4"/>
    </g>
    <g clip-path="url(#pfb684f2359)">
     <use xlink:href="#C1_0_dd35c6e52e" x="537.16902" y="267.527816" style="fill: #bf6673; fill-opacity: 0.4"/>
    </g>
    <g clip-path="url(#pfb684f2359)">
     <use xlink:href="#C1_0_dd35c6e52e" x="519.287901" y="272.131551" style="fill: #bf6673; fill-opacity: 0.4"/>
    </g>
    <g clip-path="url(#pfb684f2359)">
     <use xlink:href="#C1_0_dd35c6e52e" x="512.718909" y="276.489292" style="fill: #bf6673; fill-opacity: 0.4"/>
    </g>
    <g clip-path="url(#pfb684f2359)">
     <use xlink:href="#C1_0_dd35c6e52e" x="507.687318" y="322.700122" style="fill: #bf6673; fill-opacity: 0.4"/>
    </g>
    <g clip-path="url(#pfb684f2359)">
     <use xlink:href="#C1_0_dd35c6e52e" x="514.900077" y="256.7354" style="fill: #bf6673; fill-opacity: 0.4"/>
    </g>
    <g clip-path="url(#pfb684f2359)">
     <use xlink:href="#C1_0_dd35c6e52e" x="487.535943" y="278.146931" style="fill: #bf6673; fill-opacity: 0.4"/>
    </g>
    <g clip-path="url(#pfb684f2359)">
     <use xlink:href="#C1_0_dd35c6e52e" x="495.210936" y="262.027975" style="fill: #bf6673; fill-opacity: 0.4"/>
    </g>
    <g clip-path="url(#pfb684f2359)">
     <use xlink:href="#C1_0_dd35c6e52e" x="509.202919" y="292.534229" style="fill: #bf6673; fill-opacity: 0.4"/>
    </g>
    <g clip-path="url(#pfb684f2359)">
     <use xlink:href="#C1_0_dd35c6e52e" x="499.001263" y="239.542142" style="fill: #bf6673; fill-opacity: 0.4"/>
    </g>
    <g clip-path="url(#pfb684f2359)">
     <use xlink:href="#C1_0_dd35c6e52e" x="485.992885" y="302.585917" style="fill: #bf6673; fill-opacity: 0.4"/>
    </g>
    <g clip-path="url(#pfb684f2359)">
     <use xlink:href="#C1_0_dd35c6e52e" x="500.832405" y="281.355099" style="fill: #bf6673; fill-opacity: 0.4"/>
    </g>
    <g clip-path="url(#pfb684f2359)">
     <use xlink:href="#C1_0_dd35c6e52e" x="516.410453" y="282.306935" style="fill: #bf6673; fill-opacity: 0.4"/>
    </g>
    <g clip-path="url(#pfb684f2359)">
     <use xlink:href="#C1_0_dd35c6e52e" x="514.687306" y="262.749127" style="fill: #bf6673; fill-opacity: 0.4"/>
    </g>
    <g clip-path="url(#pfb684f2359)">
     <use xlink:href="#C1_0_dd35c6e52e" x="505.800946" y="224.802747" style="fill: #bf6673; fill-opacity: 0.4"/>
    </g>
    <g clip-path="url(#pfb684f2359)">
     <use xlink:href="#C1_0_dd35c6e52e" x="483.684976" y="281.560339" style="fill: #bf6673; fill-opacity: 0.4"/>
    </g>
    <g clip-path="url(#pfb684f2359)">
     <use xlink:href="#C1_0_dd35c6e52e" x="516.008926" y="229.361068" style="fill: #bf6673; fill-opacity: 0.4"/>
    </g>
    <g clip-path="url(#pfb684f2359)">
     <use xlink:href="#C1_0_dd35c6e52e" x="491.724894" y="289.157853" style="fill: #bf6673; fill-opacity: 0.4"/>
    </g>
    <g clip-path="url(#pfb684f2359)">
     <use xlink:href="#C1_0_dd35c6e52e" x="493.243345" y="285.92672" style="fill: #bf6673; fill-opacity: 0.4"/>
    </g>
    <g clip-path="url(#pfb684f2359)">
     <use xlink:href="#C1_0_dd35c6e52e" x="523.821144" y="277.4062" style="fill: #bf6673; fill-opacity: 0.4"/>
    </g>
    <g clip-path="url(#pfb684f2359)">
     <use xlink:href="#C1_0_dd35c6e52e" x="519.599698" y="292.254619" style="fill: #bf6673; fill-opacity: 0.4"/>
    </g>
    <g clip-path="url(#pfb684f2359)">
     <use xlink:href="#C1_0_dd35c6e52e" x="533.623642" y="270.358765" style="fill: #bf6673; fill-opacity: 0.4"/>
    </g>
    <g clip-path="url(#pfb684f2359)">
     <use xlink:href="#C1_0_dd35c6e52e" x="483.895577" y="222.84014" style="fill: #bf6673; fill-opacity: 0.4"/>
    </g>
    <g clip-path="url(#pfb684f2359)">
     <use xlink:href="#C1_0_dd35c6e52e" x="519.229724" y="293.907695" style="fill: #bf6673; fill-opacity: 0.4"/>
    </g>
    <g clip-path="url(#pfb684f2359)">
     <use xlink:href="#C1_0_dd35c6e52e" x="535.007843" y="254.917176" style="fill: #bf6673; fill-opacity: 0.4"/>
    </g>
    <g clip-path="url(#pfb684f2359)">
     <use xlink:href="#C1_0_dd35c6e52e" x="485.992761" y="278.815496" style="fill: #bf6673; fill-opacity: 0.4"/>
    </g>
    <g clip-path="url(#pfb684f2359)">
     <use xlink:href="#C1_0_dd35c6e52e" x="518.694217" y="257.961132" style="fill: #bf6673; fill-opacity: 0.4"/>
    </g>
    <g clip-path="url(#pfb684f2359)">
     <use xlink:href="#C1_0_dd35c6e52e" x="495.317823" y="284.765296" style="fill: #bf6673; fill-opacity: 0.4"/>
    </g>
    <g clip-path="url(#pfb684f2359)">
     <use xlink:href="#C1_0_dd35c6e52e" x="520.575193" y="279.449215" style="fill: #bf6673; fill-opacity: 0.4"/>
    </g>
    <g clip-path="url(#pfb684f2359)">
     <use xlink:href="#C1_0_dd35c6e52e" x="499.91485" y="277.168965" style="fill: #bf6673; fill-opacity: 0.4"/>
    </g>
    <g clip-path="url(#pfb684f2359)">
     <use xlink:href="#C1_0_dd35c6e52e" x="519.7773" y="140.508722" style="fill: #bf6673; fill-opacity: 0.4"/>
    </g>
    <g clip-path="url(#pfb684f2359)">
     <use xlink:href="#C1_0_dd35c6e52e" x="537.869603" y="298.915614" style="fill: #bf6673; fill-opacity: 0.4"/>
    </g>
    <g clip-path="url(#pfb684f2359)">
     <use xlink:href="#C1_0_dd35c6e52e" x="536.970002" y="338.422464" style="fill: #bf6673; fill-opacity: 0.4"/>
    </g>
    <g clip-path="url(#pfb684f2359)">
     <use xlink:href="#C1_0_dd35c6e52e" x="517.469379" y="300.462168" style="fill: #bf6673; fill-opacity: 0.4"/>
    </g>
    <g clip-path="url(#pfb684f2359)">
     <use xlink:href="#C1_0_dd35c6e52e" x="510.195046" y="265.209653" style="fill: #bf6673; fill-opacity: 0.4"/>
    </g>
    <g clip-path="url(#pfb684f2359)">
     <use xlink:href="#C1_0_dd35c6e52e" x="488.620615" y="302.528394" style="fill: #bf6673; fill-opacity: 0.4"/>
    </g>
    <g clip-path="url(#pfb684f2359)">
     <use xlink:href="#C1_0_dd35c6e52e" x="533.137889" y="256.821079" style="fill: #bf6673; fill-opacity: 0.4"/>
    </g>
    <g clip-path="url(#pfb684f2359)">
     <use xlink:href="#C1_0_dd35c6e52e" x="502.422566" y="229.177272" style="fill: #bf6673; fill-opacity: 0.4"/>
    </g>
    <g clip-path="url(#pfb684f2359)">
     <use xlink:href="#C1_0_dd35c6e52e" x="511.32383" y="270.267918" style="fill: #bf6673; fill-opacity: 0.4"/>
    </g>
    <g clip-path="url(#pfb684f2359)">
     <use xlink:href="#C1_0_dd35c6e52e" x="504.499706" y="251.101125" style="fill: #bf6673; fill-opacity: 0.4"/>
    </g>
    <g clip-path="url(#pfb684f2359)">
     <use xlink:href="#C1_0_dd35c6e52e" x="515.120809" y="297.167135" style="fill: #bf6673; fill-opacity: 0.4"/>
    </g>
    <g clip-path="url(#pfb684f2359)">
     <use xlink:href="#C1_0_dd35c6e52e" x="517.767571" y="243.008323" style="fill: #bf6673; fill-opacity: 0.4"/>
    </g>
    <g clip-path="url(#pfb684f2359)">
     <use xlink:href="#C1_0_dd35c6e52e" x="536.642019" y="273.629229" style="fill: #bf6673; fill-opacity: 0.4"/>
    </g>
    <g clip-path="url(#pfb684f2359)">
     <use xlink:href="#C1_0_dd35c6e52e" x="485.649301" y="231.630777" style="fill: #bf6673; fill-opacity: 0.4"/>
    </g>
    <g clip-path="url(#pfb684f2359)">
     <use xlink:href="#C1_0_dd35c6e52e" x="499.340022" y="258.269186" style="fill: #bf6673; fill-opacity: 0.4"/>
    </g>
    <g clip-path="url(#pfb684f2359)">
     <use xlink:href="#C1_0_dd35c6e52e" x="506.768272" y="310.530489" style="fill: #bf6673; fill-opacity: 0.4"/>
    </g>
    <g clip-path="url(#pfb684f2359)">
     <use xlink:href="#C1_0_dd35c6e52e" x="492.819104" y="273.999732" style="fill: #bf6673; fill-opacity: 0.4"/>
    </g>
    <g clip-path="url(#pfb684f2359)">
     <use xlink:href="#C1_0_dd35c6e52e" x="489.315656" y="148.997287" style="fill: #bf6673; fill-opacity: 0.4"/>
    </g>
    <g clip-path="url(#pfb684f2359)">
     <use xlink:href="#C1_0_dd35c6e52e" x="512.899655" y="266.10989" style="fill: #bf6673; fill-opacity: 0.4"/>
    </g>
    <g clip-path="url(#pfb684f2359)">
     <use xlink:href="#C1_0_dd35c6e52e" x="530.96612" y="256.177321" style="fill: #bf6673; fill-opacity: 0.4"/>
    </g>
    <g clip-path="url(#pfb684f2359)">
     <use xlink:href="#C1_0_dd35c6e52e" x="530.494597" y="314.792544" style="fill: #bf6673; fill-opacity: 0.4"/>
    </g>
    <g clip-path="url(#pfb684f2359)">
     <use xlink:href="#C1_0_dd35c6e52e" x="494.650836" y="304.963333" style="fill: #bf6673; fill-opacity: 0.4"/>
    </g>
    <g clip-path="url(#pfb684f2359)">
     <use xlink:href="#C1_0_dd35c6e52e" x="521.364104" y="244.402804" style="fill: #bf6673; fill-opacity: 0.4"/>
    </g>
    <g clip-path="url(#pfb684f2359)">
     <use xlink:href="#C1_0_dd35c6e52e" x="481.885427" y="295.363379" style="fill: #bf6673; fill-opacity: 0.4"/>
    </g>
    <g clip-path="url(#pfb684f2359)">
     <use xlink:href="#C1_0_dd35c6e52e" x="518.627442" y="317.3914" style="fill: #bf6673; fill-opacity: 0.4"/>
    </g>
    <g clip-path="url(#pfb684f2359)">
     <use xlink:href="#C1_0_dd35c6e52e" x="501.553777" y="279.765314" style="fill: #bf6673; fill-opacity: 0.4"/>
    </g>
    <g clip-path="url(#pfb684f2359)">
     <use xlink:href="#C1_0_dd35c6e52e" x="534.212319" y="189.967391" style="fill: #bf6673; fill-opacity: 0.4"/>
    </g>
    <g clip-path="url(#pfb684f2359)">
     <use xlink:href="#C1_0_dd35c6e52e" x="515.297308" y="301.827906" style="fill: #bf6673; fill-opacity: 0.4"/>
    </g>
    <g clip-path="url(#pfb684f2359)">
     <use xlink:href="#C1_0_dd35c6e52e" x="492.266763" y="292.72269" style="fill: #bf6673; fill-opacity: 0.4"/>
    </g>
    <g clip-path="url(#pfb684f2359)">
     <use xlink:href="#C1_0_dd35c6e52e" x="492.96057" y="293.852002" style="fill: #bf6673; fill-opacity: 0.4"/>
    </g>
    <g clip-path="url(#pfb684f2359)">
     <use xlink:href="#C1_0_dd35c6e52e" x="501.185303" y="235.535309" style="fill: #bf6673; fill-opacity: 0.4"/>
    </g>
    <g clip-path="url(#pfb684f2359)">
     <use xlink:href="#C1_0_dd35c6e52e" x="515.183342" y="298.873557" style="fill: #bf6673; fill-opacity: 0.4"/>
    </g>
    <g clip-path="url(#pfb684f2359)">
     <use xlink:href="#C1_0_dd35c6e52e" x="527.425948" y="229.949297" style="fill: #bf6673; fill-opacity: 0.4"/>
    </g>
    <g clip-path="url(#pfb684f2359)">
     <use xlink:href="#C1_0_dd35c6e52e" x="529.864434" y="290.997267" style="fill: #bf6673; fill-opacity: 0.4"/>
    </g>
    <g clip-path="url(#pfb684f2359)">
     <use xlink:href="#C1_0_dd35c6e52e" x="516.370759" y="265.047147" style="fill: #bf6673; fill-opacity: 0.4"/>
    </g>
    <g clip-path="url(#pfb684f2359)">
     <use xlink:href="#C1_0_dd35c6e52e" x="530.530788" y="291.403843" style="fill: #bf6673; fill-opacity: 0.4"/>
    </g>
    <g clip-path="url(#pfb684f2359)">
     <use xlink:href="#C1_0_dd35c6e52e" x="532.446946" y="272.569826" style="fill: #bf6673; fill-opacity: 0.4"/>
    </g>
    <g clip-path="url(#pfb684f2359)">
     <use xlink:href="#C1_0_dd35c6e52e" x="535.623715" y="247.681081" style="fill: #bf6673; fill-opacity: 0.4"/>
    </g>
    <g clip-path="url(#pfb684f2359)">
     <use xlink:href="#C1_0_dd35c6e52e" x="502.751079" y="296.538048" style="fill: #bf6673; fill-opacity: 0.4"/>
    </g>
    <g clip-path="url(#pfb684f2359)">
     <use xlink:href="#C1_0_dd35c6e52e" x="506.315862" y="229.73136" style="fill: #bf6673; fill-opacity: 0.4"/>
    </g>
    <g clip-path="url(#pfb684f2359)">
     <use xlink:href="#C1_0_dd35c6e52e" x="529.513553" y="213.933918" style="fill: #bf6673; fill-opacity: 0.4"/>
    </g>
    <g clip-path="url(#pfb684f2359)">
     <use xlink:href="#C1_0_dd35c6e52e" x="513.476767" y="268.232347" style="fill: #bf6673; fill-opacity: 0.4"/>
    </g>
    <g clip-path="url(#pfb684f2359)">
     <use xlink:href="#C1_0_dd35c6e52e" x="507.861609" y="302.644404" style="fill: #bf6673; fill-opacity: 0.4"/>
    </g>
    <g clip-path="url(#pfb684f2359)">
     <use xlink:href="#C1_0_dd35c6e52e" x="493.508423" y="174.151114" style="fill: #bf6673; fill-opacity: 0.4"/>
    </g>
    <g clip-path="url(#pfb684f2359)">
     <use xlink:href="#C1_0_dd35c6e52e" x="503.21001" y="278.450099" style="fill: #bf6673; fill-opacity: 0.4"/>
    </g>
    <g clip-path="url(#pfb684f2359)">
     <use xlink:href="#C1_0_dd35c6e52e" x="519.389224" y="218.696661" style="fill: #bf6673; fill-opacity: 0.4"/>
    </g>
    <g clip-path="url(#pfb684f2359)">
     <use xlink:href="#C1_0_dd35c6e52e" x="523.156299" y="307.925103" style="fill: #bf6673; fill-opacity: 0.4"/>
    </g>
    <g clip-path="url(#pfb684f2359)">
     <use xlink:href="#C1_0_dd35c6e52e" x="516.259487" y="97.897536" style="fill: #bf6673; fill-opacity: 0.4"/>
    </g>
    <g clip-path="url(#pfb684f2359)">
     <use xlink:href="#C1_0_dd35c6e52e" x="487.000902" y="160.164997" style="fill: #bf6673; fill-opacity: 0.4"/>
    </g>
    <g clip-path="url(#pfb684f2359)">
     <use xlink:href="#C1_0_dd35c6e52e" x="521.264203" y="258.350091" style="fill: #bf6673; fill-opacity: 0.4"/>
    </g>
    <g clip-path="url(#pfb684f2359)">
     <use xlink:href="#C1_0_dd35c6e52e" x="506.177232" y="295.056248" style="fill: #bf6673; fill-opacity: 0.4"/>
    </g>
    <g clip-path="url(#pfb684f2359)">
     <use xlink:href="#C1_0_dd35c6e52e" x="500.410586" y="271.452129" style="fill: #bf6673; fill-opacity: 0.4"/>
    </g>
    <g clip-path="url(#pfb684f2359)">
     <use xlink:href="#C1_0_dd35c6e52e" x="506.002047" y="301.461068" style="fill: #bf6673; fill-opacity: 0.4"/>
    </g>
    <g clip-path="url(#pfb684f2359)">
     <use xlink:href="#C1_0_dd35c6e52e" x="527.837188" y="296.719168" style="fill: #bf6673; fill-opacity: 0.4"/>
    </g>
    <g clip-path="url(#pfb684f2359)">
     <use xlink:href="#C1_0_dd35c6e52e" x="483.462718" y="288.604185" style="fill: #bf6673; fill-opacity: 0.4"/>
    </g>
    <g clip-path="url(#pfb684f2359)">
     <use xlink:href="#C1_0_dd35c6e52e" x="535.330459" y="228.443001" style="fill: #bf6673; fill-opacity: 0.4"/>
    </g>
    <g clip-path="url(#pfb684f2359)">
     <use xlink:href="#C1_0_dd35c6e52e" x="508.38542" y="267.124011" style="fill: #bf6673; fill-opacity: 0.4"/>
    </g>
    <g clip-path="url(#pfb684f2359)">
     <use xlink:href="#C1_0_dd35c6e52e" x="498.620651" y="264.858094" style="fill: #bf6673; fill-opacity: 0.4"/>
    </g>
    <g clip-path="url(#pfb684f2359)">
     <use xlink:href="#C1_0_dd35c6e52e" x="502.999732" y="208.684782" style="fill: #bf6673; fill-opacity: 0.4"/>
    </g>
    <g clip-path="url(#pfb684f2359)">
     <use xlink:href="#C1_0_dd35c6e52e" x="502.519722" y="249.852805" style="fill: #bf6673; fill-opacity: 0.4"/>
    </g>
    <g clip-path="url(#pfb684f2359)">
     <use xlink:href="#C1_0_dd35c6e52e" x="481.757725" y="221.218366" style="fill: #bf6673; fill-opacity: 0.4"/>
    </g>
    <g clip-path="url(#pfb684f2359)">
     <use xlink:href="#C1_0_dd35c6e52e" x="528.231218" y="314.174617" style="fill: #bf6673; fill-opacity: 0.4"/>
    </g>
   </g>
   <g id="PathCollection_3">
    <defs>
     <path id="mbb4128d1d6" d="M 0 4.1833 
C 1.109424 4.1833 2.173559 3.742521 2.95804 2.95804 
C 3.742521 2.173559 4.1833 1.109424 4.1833 0 
C 4.1833 -1.109424 3.742521 -2.173559 2.95804 -2.95804 
C 2.173559 -3.742521 1.109424 -4.1833 0 -4.1833 
C -1.109424 -4.1833 -2.173559 -3.742521 -2.95804 -2.95804 
C -3.742521 -2.173559 -4.1833 -1.109424 -4.1833 0 
C -4.1833 1.109424 -3.742521 2.173559 -2.95804 2.95804 
C -2.173559 3.742521 -1.109424 4.1833 0 4.1833 
z
" style="stroke: #000000"/>
    </defs>
    <g clip-path="url(#pfb684f2359)">
     <use xlink:href="#mbb4128d1d6" x="228.090909" y="276.781566" style="stroke: #000000"/>
    </g>
   </g>
   <g id="text_12">
    <g id="patch_9">
     <path d="M 204.742179 278.400646 
L 251.439639 278.400646 
Q 253.938639 278.400646 253.938639 275.901646 
L 253.938639 267.839768 
Q 253.938639 265.340768 251.439639 265.340768 
L 204.742179 265.340768 
Q 202.243179 265.340768 202.243179 267.839768 
L 202.243179 275.901646 
Q 202.243179 278.400646 204.742179 278.400646 
z
" style="fill: #ffffff; stroke: #000000; stroke-linejoin: miter"/>
    </g>
    <!-- Mean: 0.00 -->
    <g transform="translate(204.742179 274.169267) scale(0.0833 -0.0833)">
     <defs>
      <path id="DejaVuSans-4d" d="M 628 4666 
L 1569 4666 
L 2759 1491 
L 3956 4666 
L 4897 4666 
L 4897 0 
L 4281 0 
L 4281 4097 
L 3078 897 
L 2444 897 
L 1241 4097 
L 1241 0 
L 628 0 
L 628 4666 
z
" transform="scale(0.015625)"/>
      <path id="DejaVuSans-65" d="M 3597 1894 
L 3597 1613 
L 953 1613 
Q 991 1019 1311 708 
Q 1631 397 2203 397 
Q 2534 397 2845 478 
Q 3156 559 3463 722 
L 3463 178 
Q 3153 47 2828 -22 
Q 2503 -91 2169 -91 
Q 1331 -91 842 396 
Q 353 884 353 1716 
Q 353 2575 817 3079 
Q 1281 3584 2069 3584 
Q 2775 3584 3186 3129 
Q 3597 2675 3597 1894 
z
M 3022 2063 
Q 3016 2534 2758 2815 
Q 2500 3097 2075 3097 
Q 1594 3097 1305 2825 
Q 1016 2553 972 2059 
L 3022 2063 
z
" transform="scale(0.015625)"/>
      <path id="DejaVuSans-61" d="M 2194 1759 
Q 1497 1759 1228 1600 
Q 959 1441 959 1056 
Q 959 750 1161 570 
Q 1363 391 1709 391 
Q 2188 391 2477 730 
Q 2766 1069 2766 1631 
L 2766 1759 
L 2194 1759 
z
M 3341 1997 
L 3341 0 
L 2766 0 
L 2766 531 
Q 2569 213 2275 61 
Q 1981 -91 1556 -91 
Q 1019 -91 701 211 
Q 384 513 384 1019 
Q 384 1609 779 1909 
Q 1175 2209 1959 2209 
L 2766 2209 
L 2766 2266 
Q 2766 2663 2505 2880 
Q 2244 3097 1772 3097 
Q 1472 3097 1187 3025 
Q 903 2953 641 2809 
L 641 3341 
Q 956 3463 1253 3523 
Q 1550 3584 1831 3584 
Q 2591 3584 2966 3190 
Q 3341 2797 3341 1997 
z
" transform="scale(0.015625)"/>
      <path id="DejaVuSans-3a" d="M 750 794 
L 1409 794 
L 1409 0 
L 750 0 
L 750 794 
z
M 750 3309 
L 1409 3309 
L 1409 2516 
L 750 2516 
L 750 3309 
z
" transform="scale(0.015625)"/>
      <path id="DejaVuSans-20" transform="scale(0.015625)"/>
      <path id="DejaVuSans-2e" d="M 684 794 
L 1344 794 
L 1344 0 
L 684 0 
L 684 794 
z
" transform="scale(0.015625)"/>
     </defs>
     <use xlink:href="#DejaVuSans-4d"/>
     <use xlink:href="#DejaVuSans-65" transform="translate(86.279297 0)"/>
     <use xlink:href="#DejaVuSans-61" transform="translate(147.802734 0)"/>
     <use xlink:href="#DejaVuSans-6e" transform="translate(209.082031 0)"/>
     <use xlink:href="#DejaVuSans-3a" transform="translate(272.460938 0)"/>
     <use xlink:href="#DejaVuSans-20" transform="translate(306.152344 0)"/>
     <use xlink:href="#DejaVuSans-30" transform="translate(337.939453 0)"/>
     <use xlink:href="#DejaVuSans-2e" transform="translate(401.5625 0)"/>
     <use xlink:href="#DejaVuSans-30" transform="translate(433.349609 0)"/>
     <use xlink:href="#DejaVuSans-30" transform="translate(496.972656 0)"/>
    </g>
   </g>
   <g id="PathCollection_4">
    <g clip-path="url(#pfb684f2359)">
     <use xlink:href="#mbb4128d1d6" x="509.909091" y="263.933627" style="stroke: #000000"/>
    </g>
   </g>
   <g id="text_13">
    <g id="patch_10">
     <path d="M 486.560361 265.552707 
L 533.257821 265.552707 
Q 535.756821 265.552707 535.756821 263.053707 
L 535.756821 254.991829 
Q 535.756821 252.492829 533.257821 252.492829 
L 486.560361 252.492829 
Q 484.061361 252.492829 484.061361 254.991829 
L 484.061361 263.053707 
Q 484.061361 265.552707 486.560361 265.552707 
z
" style="fill: #ffffff; stroke: #000000; stroke-linejoin: miter"/>
    </g>
    <!-- Mean: 0.49 -->
    <g transform="translate(486.560361 261.321327) scale(0.0833 -0.0833)">
     <defs>
      <path id="DejaVuSans-39" d="M 703 97 
L 703 672 
Q 941 559 1184 500 
Q 1428 441 1663 441 
Q 2288 441 2617 861 
Q 2947 1281 2994 2138 
Q 2813 1869 2534 1725 
Q 2256 1581 1919 1581 
Q 1219 1581 811 2004 
Q 403 2428 403 3163 
Q 403 3881 828 4315 
Q 1253 4750 1959 4750 
Q 2769 4750 3195 4129 
Q 3622 3509 3622 2328 
Q 3622 1225 3098 567 
Q 2575 -91 1691 -91 
Q 1453 -91 1209 -44 
Q 966 3 703 97 
z
M 1959 2075 
Q 2384 2075 2632 2365 
Q 2881 2656 2881 3163 
Q 2881 3666 2632 3958 
Q 2384 4250 1959 4250 
Q 1534 4250 1286 3958 
Q 1038 3666 1038 3163 
Q 1038 2656 1286 2365 
Q 1534 2075 1959 2075 
z
" transform="scale(0.015625)"/>
     </defs>
     <use xlink:href="#DejaVuSans-4d"/>
     <use xlink:href="#DejaVuSans-65" transform="translate(86.279297 0)"/>
     <use xlink:href="#DejaVuSans-61" transform="translate(147.802734 0)"/>
     <use xlink:href="#DejaVuSans-6e" transform="translate(209.082031 0)"/>
     <use xlink:href="#DejaVuSans-3a" transform="translate(272.460938 0)"/>
     <use xlink:href="#DejaVuSans-20" transform="translate(306.152344 0)"/>
     <use xlink:href="#DejaVuSans-30" transform="translate(337.939453 0)"/>
     <use xlink:href="#DejaVuSans-2e" transform="translate(401.5625 0)"/>
     <use xlink:href="#DejaVuSans-34" transform="translate(433.349609 0)"/>
     <use xlink:href="#DejaVuSans-39" transform="translate(496.972656 0)"/>
    </g>
   </g>
   <g id="text_14">
    <!-- Violin Plot -->
    <g transform="translate(334.364062 45.84) scale(0.12 -0.12)">
     <defs>
      <path id="DejaVuSans-Bold-56" d="M 31 4666 
L 1241 4666 
L 2478 1222 
L 3713 4666 
L 4922 4666 
L 3194 0 
L 1759 0 
L 31 4666 
z
" transform="scale(0.015625)"/>
      <path id="DejaVuSans-Bold-6c" d="M 538 4863 
L 1656 4863 
L 1656 0 
L 538 0 
L 538 4863 
z
" transform="scale(0.015625)"/>
      <path id="DejaVuSans-Bold-20" transform="scale(0.015625)"/>
     </defs>
     <use xlink:href="#DejaVuSans-Bold-56"/>
     <use xlink:href="#DejaVuSans-Bold-69" transform="translate(75.642578 0)"/>
     <use xlink:href="#DejaVuSans-Bold-6f" transform="translate(109.919922 0)"/>
     <use xlink:href="#DejaVuSans-Bold-6c" transform="translate(178.621094 0)"/>
     <use xlink:href="#DejaVuSans-Bold-69" transform="translate(212.898438 0)"/>
     <use xlink:href="#DejaVuSans-Bold-6e" transform="translate(247.175781 0)"/>
     <use xlink:href="#DejaVuSans-Bold-20" transform="translate(318.367188 0)"/>
     <use xlink:href="#DejaVuSans-Bold-50" transform="translate(353.181641 0)"/>
     <use xlink:href="#DejaVuSans-Bold-6c" transform="translate(426.472656 0)"/>
     <use xlink:href="#DejaVuSans-Bold-6f" transform="translate(460.75 0)"/>
     <use xlink:href="#DejaVuSans-Bold-74" transform="translate(529.451172 0)"/>
    </g>
   </g>
  </g>
 </g>
 <defs>
  <clipPath id="pfb684f2359">
   <rect x="90" y="51.84" width="558" height="332.64"/>
  </clipPath>
 </defs>
</svg>
