<?xml version="1.0" encoding="utf-8" standalone="no"?>
<!DOCTYPE svg PUBLIC "-//W3C//DTD SVG 1.1//EN"
  "http://www.w3.org/Graphics/SVG/1.1/DTD/svg11.dtd">
<svg xmlns:xlink="http://www.w3.org/1999/xlink" width="576pt" height="612pt" viewBox="0 0 576 612" xmlns="http://www.w3.org/2000/svg" version="1.1">
 <metadata>
  <rdf:RDF xmlns:dc="http://purl.org/dc/elements/1.1/" xmlns:cc="http://creativecommons.org/ns#" xmlns:rdf="http://www.w3.org/1999/02/22-rdf-syntax-ns#">
   <cc:Work>
    <dc:type rdf:resource="http://purl.org/dc/dcmitype/StillImage"/>
    <dc:date>2026-05-05T13:02:33.740574</dc:date>
    <dc:format>image/svg+xml</dc:format>
    <dc:creator>
     <cc:Agent>
      <dc:title>Matplotlib v3.10.0, https://matplotlib.org/</dc:title>
     </cc:Agent>
    </dc:creator>
   </cc:Work>
  </rdf:RDF>
 </metadata>
 <defs>
  <style type="text/css">*{stroke-linejoin: round; stroke-linecap: butt}</style>
 </defs>
 <g id="figure_1">
  <g id="patch_1">
   <path d="M 0 612 
L 576 612 
L 576 0 
L 0 0 
z
" style="fill: #ffffff"/>
  </g>
  <g id="axes_1">
   <g id="patch_2">
    <path d="M 246.67 570.04 
L 565.2 570.04 
L 565.2 26.88 
L 246.67 26.88 
z
" style="fill: #ffffff"/>
   </g>
   <g id="patch_3">
    <path d="M 413.120878 51.569091 
L 261.148636 51.569091 
L 261.148636 71.519871 
L 413.120878 71.519871 
z
" clip-path="url(#pe0de7f008a)" style="fill: #1f77b4"/>
   </g>
   <g id="patch_4">
    <path d="M 413.120878 76.507567 
L 264.573162 76.507567 
L 264.573162 96.458347 
L 413.120878 96.458347 
z
" clip-path="url(#pe0de7f008a)" style="fill: #1f77b4"/>
   </g>
   <g id="patch_5">
    <path d="M 413.120878 101.446042 
L 266.931392 101.446042 
L 266.931392 121.396823 
L 413.120878 121.396823 
z
" clip-path="url(#pe0de7f008a)" style="fill: #1f77b4"/>
   </g>
   <g id="patch_6">
    <path d="M 413.120878 126.384518 
L 271.78614 126.384518 
L 271.78614 146.335298 
L 413.120878 146.335298 
z
" clip-path="url(#pe0de7f008a)" style="fill: #1f77b4"/>
   </g>
   <g id="patch_7">
    <path d="M 413.120878 151.322994 
L 272.600226 151.322994 
L 272.600226 171.273774 
L 413.120878 171.273774 
z
" clip-path="url(#pe0de7f008a)" style="fill: #1f77b4"/>
   </g>
   <g id="patch_8">
    <path d="M 413.120878 176.261469 
L 273.423714 176.261469 
L 273.423714 196.21225 
L 413.120878 196.21225 
z
" clip-path="url(#pe0de7f008a)" style="fill: #1f77b4"/>
   </g>
   <g id="patch_9">
    <path d="M 413.120878 201.199945 
L 275.068684 201.199945 
L 275.068684 221.150725 
L 413.120878 221.150725 
z
" clip-path="url(#pe0de7f008a)" style="fill: #1f77b4"/>
   </g>
   <g id="patch_10">
    <path d="M 413.120878 226.138421 
L 550.721364 226.138421 
L 550.721364 246.089201 
L 413.120878 246.089201 
z
" clip-path="url(#pe0de7f008a)" style="fill: #1f77b4"/>
   </g>
   <g id="patch_11">
    <path d="M 413.120878 251.076896 
L 277.146486 251.076896 
L 277.146486 271.027677 
L 413.120878 271.027677 
z
" clip-path="url(#pe0de7f008a)" style="fill: #1f77b4"/>
   </g>
   <g id="patch_12">
    <path d="M 413.120878 276.015372 
L 278.522819 276.015372 
L 278.522819 295.966152 
L 413.120878 295.966152 
z
" clip-path="url(#pe0de7f008a)" style="fill: #1f77b4"/>
   </g>
   <g id="patch_13">
    <path d="M 413.120878 300.953848 
L 279.424165 300.953848 
L 279.424165 320.904628 
L 413.120878 320.904628 
z
" clip-path="url(#pe0de7f008a)" style="fill: #1f77b4"/>
   </g>
   <g id="patch_14">
    <path d="M 413.120878 325.892323 
L 280.229227 325.892323 
L 280.229227 345.843104 
L 413.120878 345.843104 
z
" clip-path="url(#pe0de7f008a)" style="fill: #1f77b4"/>
   </g>
   <g id="patch_15">
    <path d="M 413.120878 350.830799 
L 280.978958 350.830799 
L 280.978958 370.781579 
L 413.120878 370.781579 
z
" clip-path="url(#pe0de7f008a)" style="fill: #1f77b4"/>
   </g>
   <g id="patch_16">
    <path d="M 413.120878 375.769275 
L 544.574211 375.769275 
L 544.574211 395.720055 
L 413.120878 395.720055 
z
" clip-path="url(#pe0de7f008a)" style="fill: #1f77b4"/>
   </g>
   <g id="patch_17">
    <path d="M 413.120878 400.70775 
L 281.763172 400.70775 
L 281.763172 420.658531 
L 413.120878 420.658531 
z
" clip-path="url(#pe0de7f008a)" style="fill: #1f77b4"/>
   </g>
   <g id="patch_18">
    <path d="M 413.120878 425.646226 
L 284.64933 425.646226 
L 284.64933 445.597006 
L 413.120878 445.597006 
z
" clip-path="url(#pe0de7f008a)" style="fill: #1f77b4"/>
   </g>
   <g id="patch_19">
    <path d="M 413.120878 450.584702 
L 285.349813 450.584702 
L 285.349813 470.535482 
L 413.120878 470.535482 
z
" clip-path="url(#pe0de7f008a)" style="fill: #1f77b4"/>
   </g>
   <g id="patch_20">
    <path d="M 413.120878 475.523177 
L 286.816788 475.523177 
L 286.816788 495.473958 
L 413.120878 495.473958 
z
" clip-path="url(#pe0de7f008a)" style="fill: #1f77b4"/>
   </g>
   <g id="patch_21">
    <path d="M 413.120878 500.461653 
L 288.037468 500.461653 
L 288.037468 520.412433 
L 413.120878 520.412433 
z
" clip-path="url(#pe0de7f008a)" style="fill: #1f77b4"/>
   </g>
   <g id="patch_22">
    <path d="M 413.120878 525.400129 
L 288.706981 525.400129 
L 288.706981 545.350909 
L 413.120878 545.350909 
z
" clip-path="url(#pe0de7f008a)" style="fill: #1f77b4"/>
   </g>
   <g id="matplotlib.axis_1">
    <g id="xtick_1">
     <g id="line2d_1">
      <defs>
       <path id="md883061b81" d="M 0 0 
L 0 3.5 
" style="stroke: #000000; stroke-width: 0.8"/>
      </defs>
      <g>
       <use xlink:href="#md883061b81" x="257.409502" y="570.04" style="stroke: #000000; stroke-width: 0.8"/>
      </g>
     </g>
     <g id="text_1">
      <!-- −0.06 -->
      <g transform="translate(242.086846 584.638438) scale(0.1 -0.1)">
       <defs>
        <path id="DejaVuSans-2212" d="M 678 2272 
L 4684 2272 
L 4684 1741 
L 678 1741 
L 678 2272 
z
" transform="scale(0.015625)"/>
        <path id="DejaVuSans-30" d="M 2034 4250 
Q 1547 4250 1301 3770 
Q 1056 3291 1056 2328 
Q 1056 1369 1301 889 
Q 1547 409 2034 409 
Q 2525 409 2770 889 
Q 3016 1369 3016 2328 
Q 3016 3291 2770 3770 
Q 2525 4250 2034 4250 
z
M 2034 4750 
Q 2819 4750 3233 4129 
Q 3647 3509 3647 2328 
Q 3647 1150 3233 529 
Q 2819 -91 2034 -91 
Q 1250 -91 836 529 
Q 422 1150 422 2328 
Q 422 3509 836 4129 
Q 1250 4750 2034 4750 
z
" transform="scale(0.015625)"/>
        <path id="DejaVuSans-2e" d="M 684 794 
L 1344 794 
L 1344 0 
L 684 0 
L 684 794 
z
" transform="scale(0.015625)"/>
        <path id="DejaVuSans-36" d="M 2113 2584 
Q 1688 2584 1439 2293 
Q 1191 2003 1191 1497 
Q 1191 994 1439 701 
Q 1688 409 2113 409 
Q 2538 409 2786 701 
Q 3034 994 3034 1497 
Q 3034 2003 2786 2293 
Q 2538 2584 2113 2584 
z
M 3366 4563 
L 3366 3988 
Q 3128 4100 2886 4159 
Q 2644 4219 2406 4219 
Q 1781 4219 1451 3797 
Q 1122 3375 1075 2522 
Q 1259 2794 1537 2939 
Q 1816 3084 2150 3084 
Q 2853 3084 3261 2657 
Q 3669 2231 3669 1497 
Q 3669 778 3244 343 
Q 2819 -91 2113 -91 
Q 1303 -91 875 529 
Q 447 1150 447 2328 
Q 447 3434 972 4092 
Q 1497 4750 2381 4750 
Q 2619 4750 2861 4703 
Q 3103 4656 3366 4563 
z
" transform="scale(0.015625)"/>
       </defs>
       <use xlink:href="#DejaVuSans-2212"/>
       <use xlink:href="#DejaVuSans-30" transform="translate(83.789062 0)"/>
       <use xlink:href="#DejaVuSans-2e" transform="translate(147.412109 0)"/>
       <use xlink:href="#DejaVuSans-30" transform="translate(179.199219 0)"/>
       <use xlink:href="#DejaVuSans-36" transform="translate(242.822266 0)"/>
      </g>
     </g>
    </g>
    <g id="xtick_2">
     <g id="line2d_2">
      <g>
       <use xlink:href="#md883061b81" x="309.313294" y="570.04" style="stroke: #000000; stroke-width: 0.8"/>
      </g>
     </g>
     <g id="text_2">
      <!-- −0.04 -->
      <g transform="translate(293.990638 584.638438) scale(0.1 -0.1)">
       <defs>
        <path id="DejaVuSans-34" d="M 2419 4116 
L 825 1625 
L 2419 1625 
L 2419 4116 
z
M 2253 4666 
L 3047 4666 
L 3047 1625 
L 3713 1625 
L 3713 1100 
L 3047 1100 
L 3047 0 
L 2419 0 
L 2419 1100 
L 313 1100 
L 313 1709 
L 2253 4666 
z
" transform="scale(0.015625)"/>
       </defs>
       <use xlink:href="#DejaVuSans-2212"/>
       <use xlink:href="#DejaVuSans-30" transform="translate(83.789062 0)"/>
       <use xlink:href="#DejaVuSans-2e" transform="translate(147.412109 0)"/>
       <use xlink:href="#DejaVuSans-30" transform="translate(179.199219 0)"/>
       <use xlink:href="#DejaVuSans-34" transform="translate(242.822266 0)"/>
      </g>
     </g>
    </g>
    <g id="xtick_3">
     <g id="line2d_3">
      <g>
       <use xlink:href="#md883061b81" x="361.217086" y="570.04" style="stroke: #000000; stroke-width: 0.8"/>
      </g>
     </g>
     <g id="text_3">
      <!-- −0.02 -->
      <g transform="translate(345.89443 584.638438) scale(0.1 -0.1)">
       <defs>
        <path id="DejaVuSans-32" d="M 1228 531 
L 3431 531 
L 3431 0 
L 469 0 
L 469 531 
Q 828 903 1448 1529 
Q 2069 2156 2228 2338 
Q 2531 2678 2651 2914 
Q 2772 3150 2772 3378 
Q 2772 3750 2511 3984 
Q 2250 4219 1831 4219 
Q 1534 4219 1204 4116 
Q 875 4013 500 3803 
L 500 4441 
Q 881 4594 1212 4672 
Q 1544 4750 1819 4750 
Q 2544 4750 2975 4387 
Q 3406 4025 3406 3419 
Q 3406 3131 3298 2873 
Q 3191 2616 2906 2266 
Q 2828 2175 2409 1742 
Q 1991 1309 1228 531 
z
" transform="scale(0.015625)"/>
       </defs>
       <use xlink:href="#DejaVuSans-2212"/>
       <use xlink:href="#DejaVuSans-30" transform="translate(83.789062 0)"/>
       <use xlink:href="#DejaVuSans-2e" transform="translate(147.412109 0)"/>
       <use xlink:href="#DejaVuSans-30" transform="translate(179.199219 0)"/>
       <use xlink:href="#DejaVuSans-32" transform="translate(242.822266 0)"/>
      </g>
     </g>
    </g>
    <g id="xtick_4">
     <g id="line2d_4">
      <g>
       <use xlink:href="#md883061b81" x="413.120878" y="570.04" style="stroke: #000000; stroke-width: 0.8"/>
      </g>
     </g>
     <g id="text_4">
      <!-- 0.00 -->
      <g transform="translate(401.988065 584.638438) scale(0.1 -0.1)">
       <use xlink:href="#DejaVuSans-30"/>
       <use xlink:href="#DejaVuSans-2e" transform="translate(63.623047 0)"/>
       <use xlink:href="#DejaVuSans-30" transform="translate(95.410156 0)"/>
       <use xlink:href="#DejaVuSans-30" transform="translate(159.033203 0)"/>
      </g>
     </g>
    </g>
    <g id="xtick_5">
     <g id="line2d_5">
      <g>
       <use xlink:href="#md883061b81" x="465.02467" y="570.04" style="stroke: #000000; stroke-width: 0.8"/>
      </g>
     </g>
     <g id="text_5">
      <!-- 0.02 -->
      <g transform="translate(453.891857 584.638438) scale(0.1 -0.1)">
       <use xlink:href="#DejaVuSans-30"/>
       <use xlink:href="#DejaVuSans-2e" transform="translate(63.623047 0)"/>
       <use xlink:href="#DejaVuSans-30" transform="translate(95.410156 0)"/>
       <use xlink:href="#DejaVuSans-32" transform="translate(159.033203 0)"/>
      </g>
     </g>
    </g>
    <g id="xtick_6">
     <g id="line2d_6">
      <g>
       <use xlink:href="#md883061b81" x="516.928462" y="570.04" style="stroke: #000000; stroke-width: 0.8"/>
      </g>
     </g>
     <g id="text_6">
      <!-- 0.04 -->
      <g transform="translate(505.795649 584.638438) scale(0.1 -0.1)">
       <use xlink:href="#DejaVuSans-30"/>
       <use xlink:href="#DejaVuSans-2e" transform="translate(63.623047 0)"/>
       <use xlink:href="#DejaVuSans-30" transform="translate(95.410156 0)"/>
       <use xlink:href="#DejaVuSans-34" transform="translate(159.033203 0)"/>
      </g>
     </g>
    </g>
    <g id="text_7">
     <!-- Weight (+older-like) -->
     <g transform="translate(356.027187 598.316563) scale(0.1 -0.1)">
      <defs>
       <path id="DejaVuSans-57" d="M 213 4666 
L 850 4666 
L 1831 722 
L 2809 4666 
L 3519 4666 
L 4500 722 
L 5478 4666 
L 6119 4666 
L 4947 0 
L 4153 0 
L 3169 4050 
L 2175 0 
L 1381 0 
L 213 4666 
z
" transform="scale(0.015625)"/>
       <path id="DejaVuSans-65" d="M 3597 1894 
L 3597 1613 
L 953 1613 
Q 991 1019 1311 708 
Q 1631 397 2203 397 
Q 2534 397 2845 478 
Q 3156 559 3463 722 
L 3463 178 
Q 3153 47 2828 -22 
Q 2503 -91 2169 -91 
Q 1331 -91 842 396 
Q 353 884 353 1716 
Q 353 2575 817 3079 
Q 1281 3584 2069 3584 
Q 2775 3584 3186 3129 
Q 3597 2675 3597 1894 
z
M 3022 2063 
Q 3016 2534 2758 2815 
Q 2500 3097 2075 3097 
Q 1594 3097 1305 2825 
Q 1016 2553 972 2059 
L 3022 2063 
z
" transform="scale(0.015625)"/>
       <path id="DejaVuSans-69" d="M 603 3500 
L 1178 3500 
L 1178 0 
L 603 0 
L 603 3500 
z
M 603 4863 
L 1178 4863 
L 1178 4134 
L 603 4134 
L 603 4863 
z
" transform="scale(0.015625)"/>
       <path id="DejaVuSans-67" d="M 2906 1791 
Q 2906 2416 2648 2759 
Q 2391 3103 1925 3103 
Q 1463 3103 1205 2759 
Q 947 2416 947 1791 
Q 947 1169 1205 825 
Q 1463 481 1925 481 
Q 2391 481 2648 825 
Q 2906 1169 2906 1791 
z
M 3481 434 
Q 3481 -459 3084 -895 
Q 2688 -1331 1869 -1331 
Q 1566 -1331 1297 -1286 
Q 1028 -1241 775 -1147 
L 775 -588 
Q 1028 -725 1275 -790 
Q 1522 -856 1778 -856 
Q 2344 -856 2625 -561 
Q 2906 -266 2906 331 
L 2906 616 
Q 2728 306 2450 153 
Q 2172 0 1784 0 
Q 1141 0 747 490 
Q 353 981 353 1791 
Q 353 2603 747 3093 
Q 1141 3584 1784 3584 
Q 2172 3584 2450 3431 
Q 2728 3278 2906 2969 
L 2906 3500 
L 3481 3500 
L 3481 434 
z
" transform="scale(0.015625)"/>
       <path id="DejaVuSans-68" d="M 3513 2113 
L 3513 0 
L 2938 0 
L 2938 2094 
Q 2938 2591 2744 2837 
Q 2550 3084 2163 3084 
Q 1697 3084 1428 2787 
Q 1159 2491 1159 1978 
L 1159 0 
L 581 0 
L 581 4863 
L 1159 4863 
L 1159 2956 
Q 1366 3272 1645 3428 
Q 1925 3584 2291 3584 
Q 2894 3584 3203 3211 
Q 3513 2838 3513 2113 
z
" transform="scale(0.015625)"/>
       <path id="DejaVuSans-74" d="M 1172 4494 
L 1172 3500 
L 2356 3500 
L 2356 3053 
L 1172 3053 
L 1172 1153 
Q 1172 725 1289 603 
Q 1406 481 1766 481 
L 2356 481 
L 2356 0 
L 1766 0 
Q 1100 0 847 248 
Q 594 497 594 1153 
L 594 3053 
L 172 3053 
L 172 3500 
L 594 3500 
L 594 4494 
L 1172 4494 
z
" transform="scale(0.015625)"/>
       <path id="DejaVuSans-20" transform="scale(0.015625)"/>
       <path id="DejaVuSans-28" d="M 1984 4856 
Q 1566 4138 1362 3434 
Q 1159 2731 1159 2009 
Q 1159 1288 1364 580 
Q 1569 -128 1984 -844 
L 1484 -844 
Q 1016 -109 783 600 
Q 550 1309 550 2009 
Q 550 2706 781 3412 
Q 1013 4119 1484 4856 
L 1984 4856 
z
" transform="scale(0.015625)"/>
       <path id="DejaVuSans-2b" d="M 2944 4013 
L 2944 2272 
L 4684 2272 
L 4684 1741 
L 2944 1741 
L 2944 0 
L 2419 0 
L 2419 1741 
L 678 1741 
L 678 2272 
L 2419 2272 
L 2419 4013 
L 2944 4013 
z
" transform="scale(0.015625)"/>
       <path id="DejaVuSans-6f" d="M 1959 3097 
Q 1497 3097 1228 2736 
Q 959 2375 959 1747 
Q 959 1119 1226 758 
Q 1494 397 1959 397 
Q 2419 397 2687 759 
Q 2956 1122 2956 1747 
Q 2956 2369 2687 2733 
Q 2419 3097 1959 3097 
z
M 1959 3584 
Q 2709 3584 3137 3096 
Q 3566 2609 3566 1747 
Q 3566 888 3137 398 
Q 2709 -91 1959 -91 
Q 1206 -91 779 398 
Q 353 888 353 1747 
Q 353 2609 779 3096 
Q 1206 3584 1959 3584 
z
" transform="scale(0.015625)"/>
       <path id="DejaVuSans-6c" d="M 603 4863 
L 1178 4863 
L 1178 0 
L 603 0 
L 603 4863 
z
" transform="scale(0.015625)"/>
       <path id="DejaVuSans-64" d="M 2906 2969 
L 2906 4863 
L 3481 4863 
L 3481 0 
L 2906 0 
L 2906 525 
Q 2725 213 2448 61 
Q 2172 -91 1784 -91 
Q 1150 -91 751 415 
Q 353 922 353 1747 
Q 353 2572 751 3078 
Q 1150 3584 1784 3584 
Q 2172 3584 2448 3432 
Q 2725 3281 2906 2969 
z
M 947 1747 
Q 947 1113 1208 752 
Q 1469 391 1925 391 
Q 2381 391 2643 752 
Q 2906 1113 2906 1747 
Q 2906 2381 2643 2742 
Q 2381 3103 1925 3103 
Q 1469 3103 1208 2742 
Q 947 2381 947 1747 
z
" transform="scale(0.015625)"/>
       <path id="DejaVuSans-72" d="M 2631 2963 
Q 2534 3019 2420 3045 
Q 2306 3072 2169 3072 
Q 1681 3072 1420 2755 
Q 1159 2438 1159 1844 
L 1159 0 
L 581 0 
L 581 3500 
L 1159 3500 
L 1159 2956 
Q 1341 3275 1631 3429 
Q 1922 3584 2338 3584 
Q 2397 3584 2469 3576 
Q 2541 3569 2628 3553 
L 2631 2963 
z
" transform="scale(0.015625)"/>
       <path id="DejaVuSans-2d" d="M 313 2009 
L 1997 2009 
L 1997 1497 
L 313 1497 
L 313 2009 
z
" transform="scale(0.015625)"/>
       <path id="DejaVuSans-6b" d="M 581 4863 
L 1159 4863 
L 1159 1991 
L 2875 3500 
L 3609 3500 
L 1753 1863 
L 3688 0 
L 2938 0 
L 1159 1709 
L 1159 0 
L 581 0 
L 581 4863 
z
" transform="scale(0.015625)"/>
       <path id="DejaVuSans-29" d="M 513 4856 
L 1013 4856 
Q 1481 4119 1714 3412 
Q 1947 2706 1947 2009 
Q 1947 1309 1714 600 
Q 1481 -109 1013 -844 
L 513 -844 
Q 928 -128 1133 580 
Q 1338 1288 1338 2009 
Q 1338 2731 1133 3434 
Q 928 4138 513 4856 
z
" transform="scale(0.015625)"/>
      </defs>
      <use xlink:href="#DejaVuSans-57"/>
      <use xlink:href="#DejaVuSans-65" transform="translate(93.001953 0)"/>
      <use xlink:href="#DejaVuSans-69" transform="translate(154.525391 0)"/>
      <use xlink:href="#DejaVuSans-67" transform="translate(182.308594 0)"/>
      <use xlink:href="#DejaVuSans-68" transform="translate(245.785156 0)"/>
      <use xlink:href="#DejaVuSans-74" transform="translate(309.164062 0)"/>
      <use xlink:href="#DejaVuSans-20" transform="translate(348.373047 0)"/>
      <use xlink:href="#DejaVuSans-28" transform="translate(380.160156 0)"/>
      <use xlink:href="#DejaVuSans-2b" transform="translate(419.173828 0)"/>
      <use xlink:href="#DejaVuSans-6f" transform="translate(502.962891 0)"/>
      <use xlink:href="#DejaVuSans-6c" transform="translate(564.144531 0)"/>
      <use xlink:href="#DejaVuSans-64" transform="translate(591.927734 0)"/>
      <use xlink:href="#DejaVuSans-65" transform="translate(655.404297 0)"/>
      <use xlink:href="#DejaVuSans-72" transform="translate(716.927734 0)"/>
      <use xlink:href="#DejaVuSans-2d" transform="translate(751.666016 0)"/>
      <use xlink:href="#DejaVuSans-6c" transform="translate(787.75 0)"/>
      <use xlink:href="#DejaVuSans-69" transform="translate(815.533203 0)"/>
      <use xlink:href="#DejaVuSans-6b" transform="translate(843.316406 0)"/>
      <use xlink:href="#DejaVuSans-65" transform="translate(897.601562 0)"/>
      <use xlink:href="#DejaVuSans-29" transform="translate(959.125 0)"/>
     </g>
    </g>
   </g>
   <g id="matplotlib.axis_2">
    <g id="ytick_1">
     <g id="line2d_7">
      <defs>
       <path id="m26593d360e" d="M 0 0 
L -3.5 0 
" style="stroke: #000000; stroke-width: 0.8"/>
      </defs>
      <g>
       <use xlink:href="#m26593d360e" x="246.67" y="61.544481" style="stroke: #000000; stroke-width: 0.8"/>
      </g>
     </g>
     <g id="text_8">
      <!-- ThickAvg_rh_posteriorcingulate -->
      <g transform="translate(83.440312 65.3437) scale(0.1 -0.1)">
       <defs>
        <path id="DejaVuSans-54" d="M -19 4666 
L 3928 4666 
L 3928 4134 
L 2272 4134 
L 2272 0 
L 1638 0 
L 1638 4134 
L -19 4134 
L -19 4666 
z
" transform="scale(0.015625)"/>
        <path id="DejaVuSans-63" d="M 3122 3366 
L 3122 2828 
Q 2878 2963 2633 3030 
Q 2388 3097 2138 3097 
Q 1578 3097 1268 2742 
Q 959 2388 959 1747 
Q 959 1106 1268 751 
Q 1578 397 2138 397 
Q 2388 397 2633 464 
Q 2878 531 3122 666 
L 3122 134 
Q 2881 22 2623 -34 
Q 2366 -91 2075 -91 
Q 1284 -91 818 406 
Q 353 903 353 1747 
Q 353 2603 823 3093 
Q 1294 3584 2113 3584 
Q 2378 3584 2631 3529 
Q 2884 3475 3122 3366 
z
" transform="scale(0.015625)"/>
        <path id="DejaVuSans-41" d="M 2188 4044 
L 1331 1722 
L 3047 1722 
L 2188 4044 
z
M 1831 4666 
L 2547 4666 
L 4325 0 
L 3669 0 
L 3244 1197 
L 1141 1197 
L 716 0 
L 50 0 
L 1831 4666 
z
" transform="scale(0.015625)"/>
        <path id="DejaVuSans-76" d="M 191 3500 
L 800 3500 
L 1894 563 
L 2988 3500 
L 3597 3500 
L 2284 0 
L 1503 0 
L 191 3500 
z
" transform="scale(0.015625)"/>
        <path id="DejaVuSans-5f" d="M 3263 -1063 
L 3263 -1509 
L -63 -1509 
L -63 -1063 
L 3263 -1063 
z
" transform="scale(0.015625)"/>
        <path id="DejaVuSans-70" d="M 1159 525 
L 1159 -1331 
L 581 -1331 
L 581 3500 
L 1159 3500 
L 1159 2969 
Q 1341 3281 1617 3432 
Q 1894 3584 2278 3584 
Q 2916 3584 3314 3078 
Q 3713 2572 3713 1747 
Q 3713 922 3314 415 
Q 2916 -91 2278 -91 
Q 1894 -91 1617 61 
Q 1341 213 1159 525 
z
M 3116 1747 
Q 3116 2381 2855 2742 
Q 2594 3103 2138 3103 
Q 1681 3103 1420 2742 
Q 1159 2381 1159 1747 
Q 1159 1113 1420 752 
Q 1681 391 2138 391 
Q 2594 391 2855 752 
Q 3116 1113 3116 1747 
z
" transform="scale(0.015625)"/>
        <path id="DejaVuSans-73" d="M 2834 3397 
L 2834 2853 
Q 2591 2978 2328 3040 
Q 2066 3103 1784 3103 
Q 1356 3103 1142 2972 
Q 928 2841 928 2578 
Q 928 2378 1081 2264 
Q 1234 2150 1697 2047 
L 1894 2003 
Q 2506 1872 2764 1633 
Q 3022 1394 3022 966 
Q 3022 478 2636 193 
Q 2250 -91 1575 -91 
Q 1294 -91 989 -36 
Q 684 19 347 128 
L 347 722 
Q 666 556 975 473 
Q 1284 391 1588 391 
Q 1994 391 2212 530 
Q 2431 669 2431 922 
Q 2431 1156 2273 1281 
Q 2116 1406 1581 1522 
L 1381 1569 
Q 847 1681 609 1914 
Q 372 2147 372 2553 
Q 372 3047 722 3315 
Q 1072 3584 1716 3584 
Q 2034 3584 2315 3537 
Q 2597 3491 2834 3397 
z
" transform="scale(0.015625)"/>
        <path id="DejaVuSans-6e" d="M 3513 2113 
L 3513 0 
L 2938 0 
L 2938 2094 
Q 2938 2591 2744 2837 
Q 2550 3084 2163 3084 
Q 1697 3084 1428 2787 
Q 1159 2491 1159 1978 
L 1159 0 
L 581 0 
L 581 3500 
L 1159 3500 
L 1159 2956 
Q 1366 3272 1645 3428 
Q 1925 3584 2291 3584 
Q 2894 3584 3203 3211 
Q 3513 2838 3513 2113 
z
" transform="scale(0.015625)"/>
        <path id="DejaVuSans-75" d="M 544 1381 
L 544 3500 
L 1119 3500 
L 1119 1403 
Q 1119 906 1312 657 
Q 1506 409 1894 409 
Q 2359 409 2629 706 
Q 2900 1003 2900 1516 
L 2900 3500 
L 3475 3500 
L 3475 0 
L 2900 0 
L 2900 538 
Q 2691 219 2414 64 
Q 2138 -91 1772 -91 
Q 1169 -91 856 284 
Q 544 659 544 1381 
z
M 1991 3584 
L 1991 3584 
z
" transform="scale(0.015625)"/>
        <path id="DejaVuSans-61" d="M 2194 1759 
Q 1497 1759 1228 1600 
Q 959 1441 959 1056 
Q 959 750 1161 570 
Q 1363 391 1709 391 
Q 2188 391 2477 730 
Q 2766 1069 2766 1631 
L 2766 1759 
L 2194 1759 
z
M 3341 1997 
L 3341 0 
L 2766 0 
L 2766 531 
Q 2569 213 2275 61 
Q 1981 -91 1556 -91 
Q 1019 -91 701 211 
Q 384 513 384 1019 
Q 384 1609 779 1909 
Q 1175 2209 1959 2209 
L 2766 2209 
L 2766 2266 
Q 2766 2663 2505 2880 
Q 2244 3097 1772 3097 
Q 1472 3097 1187 3025 
Q 903 2953 641 2809 
L 641 3341 
Q 956 3463 1253 3523 
Q 1550 3584 1831 3584 
Q 2591 3584 2966 3190 
Q 3341 2797 3341 1997 
z
" transform="scale(0.015625)"/>
       </defs>
       <use xlink:href="#DejaVuSans-54"/>
       <use xlink:href="#DejaVuSans-68" transform="translate(61.083984 0)"/>
       <use xlink:href="#DejaVuSans-69" transform="translate(124.462891 0)"/>
       <use xlink:href="#DejaVuSans-63" transform="translate(152.246094 0)"/>
       <use xlink:href="#DejaVuSans-6b" transform="translate(207.226562 0)"/>
       <use xlink:href="#DejaVuSans-41" transform="translate(265.136719 0)"/>
       <use xlink:href="#DejaVuSans-76" transform="translate(327.669922 0)"/>
       <use xlink:href="#DejaVuSans-67" transform="translate(386.849609 0)"/>
       <use xlink:href="#DejaVuSans-5f" transform="translate(450.326172 0)"/>
       <use xlink:href="#DejaVuSans-72" transform="translate(500.326172 0)"/>
       <use xlink:href="#DejaVuSans-68" transform="translate(539.689453 0)"/>
       <use xlink:href="#DejaVuSans-5f" transform="translate(603.068359 0)"/>
       <use xlink:href="#DejaVuSans-70" transform="translate(653.068359 0)"/>
       <use xlink:href="#DejaVuSans-6f" transform="translate(716.544922 0)"/>
       <use xlink:href="#DejaVuSans-73" transform="translate(777.726562 0)"/>
       <use xlink:href="#DejaVuSans-74" transform="translate(829.826172 0)"/>
       <use xlink:href="#DejaVuSans-65" transform="translate(869.035156 0)"/>
       <use xlink:href="#DejaVuSans-72" transform="translate(930.558594 0)"/>
       <use xlink:href="#DejaVuSans-69" transform="translate(971.671875 0)"/>
       <use xlink:href="#DejaVuSans-6f" transform="translate(999.455078 0)"/>
       <use xlink:href="#DejaVuSans-72" transform="translate(1060.636719 0)"/>
       <use xlink:href="#DejaVuSans-63" transform="translate(1099.5 0)"/>
       <use xlink:href="#DejaVuSans-69" transform="translate(1154.480469 0)"/>
       <use xlink:href="#DejaVuSans-6e" transform="translate(1182.263672 0)"/>
       <use xlink:href="#DejaVuSans-67" transform="translate(1245.642578 0)"/>
       <use xlink:href="#DejaVuSans-75" transform="translate(1309.119141 0)"/>
       <use xlink:href="#DejaVuSans-6c" transform="translate(1372.498047 0)"/>
       <use xlink:href="#DejaVuSans-61" transform="translate(1400.28125 0)"/>
       <use xlink:href="#DejaVuSans-74" transform="translate(1461.560547 0)"/>
       <use xlink:href="#DejaVuSans-65" transform="translate(1500.769531 0)"/>
      </g>
     </g>
    </g>
    <g id="ytick_2">
     <g id="line2d_8">
      <g>
       <use xlink:href="#m26593d360e" x="246.67" y="86.482957" style="stroke: #000000; stroke-width: 0.8"/>
      </g>
     </g>
     <g id="text_9">
      <!-- ThickAvg_lh_isthmuscingulate -->
      <g transform="translate(89.709062 90.282176) scale(0.1 -0.1)">
       <defs>
        <path id="DejaVuSans-6d" d="M 3328 2828 
Q 3544 3216 3844 3400 
Q 4144 3584 4550 3584 
Q 5097 3584 5394 3201 
Q 5691 2819 5691 2113 
L 5691 0 
L 5113 0 
L 5113 2094 
Q 5113 2597 4934 2840 
Q 4756 3084 4391 3084 
Q 3944 3084 3684 2787 
Q 3425 2491 3425 1978 
L 3425 0 
L 2847 0 
L 2847 2094 
Q 2847 2600 2669 2842 
Q 2491 3084 2119 3084 
Q 1678 3084 1418 2786 
Q 1159 2488 1159 1978 
L 1159 0 
L 581 0 
L 581 3500 
L 1159 3500 
L 1159 2956 
Q 1356 3278 1631 3431 
Q 1906 3584 2284 3584 
Q 2666 3584 2933 3390 
Q 3200 3197 3328 2828 
z
" transform="scale(0.015625)"/>
       </defs>
       <use xlink:href="#DejaVuSans-54"/>
       <use xlink:href="#DejaVuSans-68" transform="translate(61.083984 0)"/>
       <use xlink:href="#DejaVuSans-69" transform="translate(124.462891 0)"/>
       <use xlink:href="#DejaVuSans-63" transform="translate(152.246094 0)"/>
       <use xlink:href="#DejaVuSans-6b" transform="translate(207.226562 0)"/>
       <use xlink:href="#DejaVuSans-41" transform="translate(265.136719 0)"/>
       <use xlink:href="#DejaVuSans-76" transform="translate(327.669922 0)"/>
       <use xlink:href="#DejaVuSans-67" transform="translate(386.849609 0)"/>
       <use xlink:href="#DejaVuSans-5f" transform="translate(450.326172 0)"/>
       <use xlink:href="#DejaVuSans-6c" transform="translate(500.326172 0)"/>
       <use xlink:href="#DejaVuSans-68" transform="translate(528.109375 0)"/>
       <use xlink:href="#DejaVuSans-5f" transform="translate(591.488281 0)"/>
       <use xlink:href="#DejaVuSans-69" transform="translate(641.488281 0)"/>
       <use xlink:href="#DejaVuSans-73" transform="translate(669.271484 0)"/>
       <use xlink:href="#DejaVuSans-74" transform="translate(721.371094 0)"/>
       <use xlink:href="#DejaVuSans-68" transform="translate(760.580078 0)"/>
       <use xlink:href="#DejaVuSans-6d" transform="translate(823.958984 0)"/>
       <use xlink:href="#DejaVuSans-75" transform="translate(921.371094 0)"/>
       <use xlink:href="#DejaVuSans-73" transform="translate(984.75 0)"/>
       <use xlink:href="#DejaVuSans-63" transform="translate(1036.849609 0)"/>
       <use xlink:href="#DejaVuSans-69" transform="translate(1091.830078 0)"/>
       <use xlink:href="#DejaVuSans-6e" transform="translate(1119.613281 0)"/>
       <use xlink:href="#DejaVuSans-67" transform="translate(1182.992188 0)"/>
       <use xlink:href="#DejaVuSans-75" transform="translate(1246.46875 0)"/>
       <use xlink:href="#DejaVuSans-6c" transform="translate(1309.847656 0)"/>
       <use xlink:href="#DejaVuSans-61" transform="translate(1337.630859 0)"/>
       <use xlink:href="#DejaVuSans-74" transform="translate(1398.910156 0)"/>
       <use xlink:href="#DejaVuSans-65" transform="translate(1438.119141 0)"/>
      </g>
     </g>
    </g>
    <g id="ytick_3">
     <g id="line2d_9">
      <g>
       <use xlink:href="#m26593d360e" x="246.67" y="111.421433" style="stroke: #000000; stroke-width: 0.8"/>
      </g>
     </g>
     <g id="text_10">
      <!-- ThickAvg_lh_posteriorcingulate -->
      <g transform="translate(84.598125 115.220651) scale(0.1 -0.1)">
       <use xlink:href="#DejaVuSans-54"/>
       <use xlink:href="#DejaVuSans-68" transform="translate(61.083984 0)"/>
       <use xlink:href="#DejaVuSans-69" transform="translate(124.462891 0)"/>
       <use xlink:href="#DejaVuSans-63" transform="translate(152.246094 0)"/>
       <use xlink:href="#DejaVuSans-6b" transform="translate(207.226562 0)"/>
       <use xlink:href="#DejaVuSans-41" transform="translate(265.136719 0)"/>
       <use xlink:href="#DejaVuSans-76" transform="translate(327.669922 0)"/>
       <use xlink:href="#DejaVuSans-67" transform="translate(386.849609 0)"/>
       <use xlink:href="#DejaVuSans-5f" transform="translate(450.326172 0)"/>
       <use xlink:href="#DejaVuSans-6c" transform="translate(500.326172 0)"/>
       <use xlink:href="#DejaVuSans-68" transform="translate(528.109375 0)"/>
       <use xlink:href="#DejaVuSans-5f" transform="translate(591.488281 0)"/>
       <use xlink:href="#DejaVuSans-70" transform="translate(641.488281 0)"/>
       <use xlink:href="#DejaVuSans-6f" transform="translate(704.964844 0)"/>
       <use xlink:href="#DejaVuSans-73" transform="translate(766.146484 0)"/>
       <use xlink:href="#DejaVuSans-74" transform="translate(818.246094 0)"/>
       <use xlink:href="#DejaVuSans-65" transform="translate(857.455078 0)"/>
       <use xlink:href="#DejaVuSans-72" transform="translate(918.978516 0)"/>
       <use xlink:href="#DejaVuSans-69" transform="translate(960.091797 0)"/>
       <use xlink:href="#DejaVuSans-6f" transform="translate(987.875 0)"/>
       <use xlink:href="#DejaVuSans-72" transform="translate(1049.056641 0)"/>
       <use xlink:href="#DejaVuSans-63" transform="translate(1087.919922 0)"/>
       <use xlink:href="#DejaVuSans-69" transform="translate(1142.900391 0)"/>
       <use xlink:href="#DejaVuSans-6e" transform="translate(1170.683594 0)"/>
       <use xlink:href="#DejaVuSans-67" transform="translate(1234.0625 0)"/>
       <use xlink:href="#DejaVuSans-75" transform="translate(1297.539062 0)"/>
       <use xlink:href="#DejaVuSans-6c" transform="translate(1360.917969 0)"/>
       <use xlink:href="#DejaVuSans-61" transform="translate(1388.701172 0)"/>
       <use xlink:href="#DejaVuSans-74" transform="translate(1449.980469 0)"/>
       <use xlink:href="#DejaVuSans-65" transform="translate(1489.189453 0)"/>
      </g>
     </g>
    </g>
    <g id="ytick_4">
     <g id="line2d_10">
      <g>
       <use xlink:href="#m26593d360e" x="246.67" y="136.359908" style="stroke: #000000; stroke-width: 0.8"/>
      </g>
     </g>
     <g id="text_11">
      <!-- ThickAvg_rh_lateralorbitofrontal -->
      <g transform="translate(80.2825 140.159127) scale(0.1 -0.1)">
       <defs>
        <path id="DejaVuSans-62" d="M 3116 1747 
Q 3116 2381 2855 2742 
Q 2594 3103 2138 3103 
Q 1681 3103 1420 2742 
Q 1159 2381 1159 1747 
Q 1159 1113 1420 752 
Q 1681 391 2138 391 
Q 2594 391 2855 752 
Q 3116 1113 3116 1747 
z
M 1159 2969 
Q 1341 3281 1617 3432 
Q 1894 3584 2278 3584 
Q 2916 3584 3314 3078 
Q 3713 2572 3713 1747 
Q 3713 922 3314 415 
Q 2916 -91 2278 -91 
Q 1894 -91 1617 61 
Q 1341 213 1159 525 
L 1159 0 
L 581 0 
L 581 4863 
L 1159 4863 
L 1159 2969 
z
" transform="scale(0.015625)"/>
        <path id="DejaVuSans-66" d="M 2375 4863 
L 2375 4384 
L 1825 4384 
Q 1516 4384 1395 4259 
Q 1275 4134 1275 3809 
L 1275 3500 
L 2222 3500 
L 2222 3053 
L 1275 3053 
L 1275 0 
L 697 0 
L 697 3053 
L 147 3053 
L 147 3500 
L 697 3500 
L 697 3744 
Q 697 4328 969 4595 
Q 1241 4863 1831 4863 
L 2375 4863 
z
" transform="scale(0.015625)"/>
       </defs>
       <use xlink:href="#DejaVuSans-54"/>
       <use xlink:href="#DejaVuSans-68" transform="translate(61.083984 0)"/>
       <use xlink:href="#DejaVuSans-69" transform="translate(124.462891 0)"/>
       <use xlink:href="#DejaVuSans-63" transform="translate(152.246094 0)"/>
       <use xlink:href="#DejaVuSans-6b" transform="translate(207.226562 0)"/>
       <use xlink:href="#DejaVuSans-41" transform="translate(265.136719 0)"/>
       <use xlink:href="#DejaVuSans-76" transform="translate(327.669922 0)"/>
       <use xlink:href="#DejaVuSans-67" transform="translate(386.849609 0)"/>
       <use xlink:href="#DejaVuSans-5f" transform="translate(450.326172 0)"/>
       <use xlink:href="#DejaVuSans-72" transform="translate(500.326172 0)"/>
       <use xlink:href="#DejaVuSans-68" transform="translate(539.689453 0)"/>
       <use xlink:href="#DejaVuSans-5f" transform="translate(603.068359 0)"/>
       <use xlink:href="#DejaVuSans-6c" transform="translate(653.068359 0)"/>
       <use xlink:href="#DejaVuSans-61" transform="translate(680.851562 0)"/>
       <use xlink:href="#DejaVuSans-74" transform="translate(742.130859 0)"/>
       <use xlink:href="#DejaVuSans-65" transform="translate(781.339844 0)"/>
       <use xlink:href="#DejaVuSans-72" transform="translate(842.863281 0)"/>
       <use xlink:href="#DejaVuSans-61" transform="translate(883.976562 0)"/>
       <use xlink:href="#DejaVuSans-6c" transform="translate(945.255859 0)"/>
       <use xlink:href="#DejaVuSans-6f" transform="translate(973.039062 0)"/>
       <use xlink:href="#DejaVuSans-72" transform="translate(1034.220703 0)"/>
       <use xlink:href="#DejaVuSans-62" transform="translate(1075.333984 0)"/>
       <use xlink:href="#DejaVuSans-69" transform="translate(1138.810547 0)"/>
       <use xlink:href="#DejaVuSans-74" transform="translate(1166.59375 0)"/>
       <use xlink:href="#DejaVuSans-6f" transform="translate(1205.802734 0)"/>
       <use xlink:href="#DejaVuSans-66" transform="translate(1266.984375 0)"/>
       <use xlink:href="#DejaVuSans-72" transform="translate(1302.189453 0)"/>
       <use xlink:href="#DejaVuSans-6f" transform="translate(1341.052734 0)"/>
       <use xlink:href="#DejaVuSans-6e" transform="translate(1402.234375 0)"/>
       <use xlink:href="#DejaVuSans-74" transform="translate(1465.613281 0)"/>
       <use xlink:href="#DejaVuSans-61" transform="translate(1504.822266 0)"/>
       <use xlink:href="#DejaVuSans-6c" transform="translate(1566.101562 0)"/>
      </g>
     </g>
    </g>
    <g id="ytick_5">
     <g id="line2d_11">
      <g>
       <use xlink:href="#m26593d360e" x="246.67" y="161.298384" style="stroke: #000000; stroke-width: 0.8"/>
      </g>
     </g>
     <g id="text_12">
      <!-- ThickStd_lh_medialorbitofrontal -->
      <g transform="translate(81.41375 165.097603) scale(0.1 -0.1)">
       <defs>
        <path id="DejaVuSans-53" d="M 3425 4513 
L 3425 3897 
Q 3066 4069 2747 4153 
Q 2428 4238 2131 4238 
Q 1616 4238 1336 4038 
Q 1056 3838 1056 3469 
Q 1056 3159 1242 3001 
Q 1428 2844 1947 2747 
L 2328 2669 
Q 3034 2534 3370 2195 
Q 3706 1856 3706 1288 
Q 3706 609 3251 259 
Q 2797 -91 1919 -91 
Q 1588 -91 1214 -16 
Q 841 59 441 206 
L 441 856 
Q 825 641 1194 531 
Q 1563 422 1919 422 
Q 2459 422 2753 634 
Q 3047 847 3047 1241 
Q 3047 1584 2836 1778 
Q 2625 1972 2144 2069 
L 1759 2144 
Q 1053 2284 737 2584 
Q 422 2884 422 3419 
Q 422 4038 858 4394 
Q 1294 4750 2059 4750 
Q 2388 4750 2728 4690 
Q 3069 4631 3425 4513 
z
" transform="scale(0.015625)"/>
       </defs>
       <use xlink:href="#DejaVuSans-54"/>
       <use xlink:href="#DejaVuSans-68" transform="translate(61.083984 0)"/>
       <use xlink:href="#DejaVuSans-69" transform="translate(124.462891 0)"/>
       <use xlink:href="#DejaVuSans-63" transform="translate(152.246094 0)"/>
       <use xlink:href="#DejaVuSans-6b" transform="translate(207.226562 0)"/>
       <use xlink:href="#DejaVuSans-53" transform="translate(265.136719 0)"/>
       <use xlink:href="#DejaVuSans-74" transform="translate(328.613281 0)"/>
       <use xlink:href="#DejaVuSans-64" transform="translate(367.822266 0)"/>
       <use xlink:href="#DejaVuSans-5f" transform="translate(431.298828 0)"/>
       <use xlink:href="#DejaVuSans-6c" transform="translate(481.298828 0)"/>
       <use xlink:href="#DejaVuSans-68" transform="translate(509.082031 0)"/>
       <use xlink:href="#DejaVuSans-5f" transform="translate(572.460938 0)"/>
       <use xlink:href="#DejaVuSans-6d" transform="translate(622.460938 0)"/>
       <use xlink:href="#DejaVuSans-65" transform="translate(719.873047 0)"/>
       <use xlink:href="#DejaVuSans-64" transform="translate(781.396484 0)"/>
       <use xlink:href="#DejaVuSans-69" transform="translate(844.873047 0)"/>
       <use xlink:href="#DejaVuSans-61" transform="translate(872.65625 0)"/>
       <use xlink:href="#DejaVuSans-6c" transform="translate(933.935547 0)"/>
       <use xlink:href="#DejaVuSans-6f" transform="translate(961.71875 0)"/>
       <use xlink:href="#DejaVuSans-72" transform="translate(1022.900391 0)"/>
       <use xlink:href="#DejaVuSans-62" transform="translate(1064.013672 0)"/>
       <use xlink:href="#DejaVuSans-69" transform="translate(1127.490234 0)"/>
       <use xlink:href="#DejaVuSans-74" transform="translate(1155.273438 0)"/>
       <use xlink:href="#DejaVuSans-6f" transform="translate(1194.482422 0)"/>
       <use xlink:href="#DejaVuSans-66" transform="translate(1255.664062 0)"/>
       <use xlink:href="#DejaVuSans-72" transform="translate(1290.869141 0)"/>
       <use xlink:href="#DejaVuSans-6f" transform="translate(1329.732422 0)"/>
       <use xlink:href="#DejaVuSans-6e" transform="translate(1390.914062 0)"/>
       <use xlink:href="#DejaVuSans-74" transform="translate(1454.292969 0)"/>
       <use xlink:href="#DejaVuSans-61" transform="translate(1493.501953 0)"/>
       <use xlink:href="#DejaVuSans-6c" transform="translate(1554.78125 0)"/>
      </g>
     </g>
    </g>
    <g id="ytick_6">
     <g id="line2d_12">
      <g>
       <use xlink:href="#m26593d360e" x="246.67" y="186.23686" style="stroke: #000000; stroke-width: 0.8"/>
      </g>
     </g>
     <g id="text_13">
      <!-- ThickStd_rh_medialorbitofrontal -->
      <g transform="translate(80.255937 190.036078) scale(0.1 -0.1)">
       <use xlink:href="#DejaVuSans-54"/>
       <use xlink:href="#DejaVuSans-68" transform="translate(61.083984 0)"/>
       <use xlink:href="#DejaVuSans-69" transform="translate(124.462891 0)"/>
       <use xlink:href="#DejaVuSans-63" transform="translate(152.246094 0)"/>
       <use xlink:href="#DejaVuSans-6b" transform="translate(207.226562 0)"/>
       <use xlink:href="#DejaVuSans-53" transform="translate(265.136719 0)"/>
       <use xlink:href="#DejaVuSans-74" transform="translate(328.613281 0)"/>
       <use xlink:href="#DejaVuSans-64" transform="translate(367.822266 0)"/>
       <use xlink:href="#DejaVuSans-5f" transform="translate(431.298828 0)"/>
       <use xlink:href="#DejaVuSans-72" transform="translate(481.298828 0)"/>
       <use xlink:href="#DejaVuSans-68" transform="translate(520.662109 0)"/>
       <use xlink:href="#DejaVuSans-5f" transform="translate(584.041016 0)"/>
       <use xlink:href="#DejaVuSans-6d" transform="translate(634.041016 0)"/>
       <use xlink:href="#DejaVuSans-65" transform="translate(731.453125 0)"/>
       <use xlink:href="#DejaVuSans-64" transform="translate(792.976562 0)"/>
       <use xlink:href="#DejaVuSans-69" transform="translate(856.453125 0)"/>
       <use xlink:href="#DejaVuSans-61" transform="translate(884.236328 0)"/>
       <use xlink:href="#DejaVuSans-6c" transform="translate(945.515625 0)"/>
       <use xlink:href="#DejaVuSans-6f" transform="translate(973.298828 0)"/>
       <use xlink:href="#DejaVuSans-72" transform="translate(1034.480469 0)"/>
       <use xlink:href="#DejaVuSans-62" transform="translate(1075.59375 0)"/>
       <use xlink:href="#DejaVuSans-69" transform="translate(1139.070312 0)"/>
       <use xlink:href="#DejaVuSans-74" transform="translate(1166.853516 0)"/>
       <use xlink:href="#DejaVuSans-6f" transform="translate(1206.0625 0)"/>
       <use xlink:href="#DejaVuSans-66" transform="translate(1267.244141 0)"/>
       <use xlink:href="#DejaVuSans-72" transform="translate(1302.449219 0)"/>
       <use xlink:href="#DejaVuSans-6f" transform="translate(1341.3125 0)"/>
       <use xlink:href="#DejaVuSans-6e" transform="translate(1402.494141 0)"/>
       <use xlink:href="#DejaVuSans-74" transform="translate(1465.873047 0)"/>
       <use xlink:href="#DejaVuSans-61" transform="translate(1505.082031 0)"/>
       <use xlink:href="#DejaVuSans-6c" transform="translate(1566.361328 0)"/>
      </g>
     </g>
    </g>
    <g id="ytick_7">
     <g id="line2d_13">
      <g>
       <use xlink:href="#m26593d360e" x="246.67" y="211.175335" style="stroke: #000000; stroke-width: 0.8"/>
      </g>
     </g>
     <g id="text_14">
      <!-- Volume_mm3_Left-Cerebellum-White-Matter -->
      <g transform="translate(18.145 214.974554) scale(0.1 -0.1)">
       <defs>
        <path id="DejaVuSans-56" d="M 1831 0 
L 50 4666 
L 709 4666 
L 2188 738 
L 3669 4666 
L 4325 4666 
L 2547 0 
L 1831 0 
z
" transform="scale(0.015625)"/>
        <path id="DejaVuSans-33" d="M 2597 2516 
Q 3050 2419 3304 2112 
Q 3559 1806 3559 1356 
Q 3559 666 3084 287 
Q 2609 -91 1734 -91 
Q 1441 -91 1130 -33 
Q 819 25 488 141 
L 488 750 
Q 750 597 1062 519 
Q 1375 441 1716 441 
Q 2309 441 2620 675 
Q 2931 909 2931 1356 
Q 2931 1769 2642 2001 
Q 2353 2234 1838 2234 
L 1294 2234 
L 1294 2753 
L 1863 2753 
Q 2328 2753 2575 2939 
Q 2822 3125 2822 3475 
Q 2822 3834 2567 4026 
Q 2313 4219 1838 4219 
Q 1578 4219 1281 4162 
Q 984 4106 628 3988 
L 628 4550 
Q 988 4650 1302 4700 
Q 1616 4750 1894 4750 
Q 2613 4750 3031 4423 
Q 3450 4097 3450 3541 
Q 3450 3153 3228 2886 
Q 3006 2619 2597 2516 
z
" transform="scale(0.015625)"/>
        <path id="DejaVuSans-4c" d="M 628 4666 
L 1259 4666 
L 1259 531 
L 3531 531 
L 3531 0 
L 628 0 
L 628 4666 
z
" transform="scale(0.015625)"/>
        <path id="DejaVuSans-43" d="M 4122 4306 
L 4122 3641 
Q 3803 3938 3442 4084 
Q 3081 4231 2675 4231 
Q 1875 4231 1450 3742 
Q 1025 3253 1025 2328 
Q 1025 1406 1450 917 
Q 1875 428 2675 428 
Q 3081 428 3442 575 
Q 3803 722 4122 1019 
L 4122 359 
Q 3791 134 3420 21 
Q 3050 -91 2638 -91 
Q 1578 -91 968 557 
Q 359 1206 359 2328 
Q 359 3453 968 4101 
Q 1578 4750 2638 4750 
Q 3056 4750 3426 4639 
Q 3797 4528 4122 4306 
z
" transform="scale(0.015625)"/>
        <path id="DejaVuSans-4d" d="M 628 4666 
L 1569 4666 
L 2759 1491 
L 3956 4666 
L 4897 4666 
L 4897 0 
L 4281 0 
L 4281 4097 
L 3078 897 
L 2444 897 
L 1241 4097 
L 1241 0 
L 628 0 
L 628 4666 
z
" transform="scale(0.015625)"/>
       </defs>
       <use xlink:href="#DejaVuSans-56"/>
       <use xlink:href="#DejaVuSans-6f" transform="translate(60.658203 0)"/>
       <use xlink:href="#DejaVuSans-6c" transform="translate(121.839844 0)"/>
       <use xlink:href="#DejaVuSans-75" transform="translate(149.623047 0)"/>
       <use xlink:href="#DejaVuSans-6d" transform="translate(213.001953 0)"/>
       <use xlink:href="#DejaVuSans-65" transform="translate(310.414062 0)"/>
       <use xlink:href="#DejaVuSans-5f" transform="translate(371.9375 0)"/>
       <use xlink:href="#DejaVuSans-6d" transform="translate(421.9375 0)"/>
       <use xlink:href="#DejaVuSans-6d" transform="translate(519.349609 0)"/>
       <use xlink:href="#DejaVuSans-33" transform="translate(616.761719 0)"/>
       <use xlink:href="#DejaVuSans-5f" transform="translate(680.384766 0)"/>
       <use xlink:href="#DejaVuSans-4c" transform="translate(730.384766 0)"/>
       <use xlink:href="#DejaVuSans-65" transform="translate(784.347656 0)"/>
       <use xlink:href="#DejaVuSans-66" transform="translate(845.871094 0)"/>
       <use xlink:href="#DejaVuSans-74" transform="translate(879.326172 0)"/>
       <use xlink:href="#DejaVuSans-2d" transform="translate(918.535156 0)"/>
       <use xlink:href="#DejaVuSans-43" transform="translate(954.619141 0)"/>
       <use xlink:href="#DejaVuSans-65" transform="translate(1024.443359 0)"/>
       <use xlink:href="#DejaVuSans-72" transform="translate(1085.966797 0)"/>
       <use xlink:href="#DejaVuSans-65" transform="translate(1124.830078 0)"/>
       <use xlink:href="#DejaVuSans-62" transform="translate(1186.353516 0)"/>
       <use xlink:href="#DejaVuSans-65" transform="translate(1249.830078 0)"/>
       <use xlink:href="#DejaVuSans-6c" transform="translate(1311.353516 0)"/>
       <use xlink:href="#DejaVuSans-6c" transform="translate(1339.136719 0)"/>
       <use xlink:href="#DejaVuSans-75" transform="translate(1366.919922 0)"/>
       <use xlink:href="#DejaVuSans-6d" transform="translate(1430.298828 0)"/>
       <use xlink:href="#DejaVuSans-2d" transform="translate(1527.710938 0)"/>
       <use xlink:href="#DejaVuSans-57" transform="translate(1559.794922 0)"/>
       <use xlink:href="#DejaVuSans-68" transform="translate(1658.671875 0)"/>
       <use xlink:href="#DejaVuSans-69" transform="translate(1722.050781 0)"/>
       <use xlink:href="#DejaVuSans-74" transform="translate(1749.833984 0)"/>
       <use xlink:href="#DejaVuSans-65" transform="translate(1789.042969 0)"/>
       <use xlink:href="#DejaVuSans-2d" transform="translate(1850.566406 0)"/>
       <use xlink:href="#DejaVuSans-4d" transform="translate(1886.650391 0)"/>
       <use xlink:href="#DejaVuSans-61" transform="translate(1972.929688 0)"/>
       <use xlink:href="#DejaVuSans-74" transform="translate(2034.208984 0)"/>
       <use xlink:href="#DejaVuSans-74" transform="translate(2073.417969 0)"/>
       <use xlink:href="#DejaVuSans-65" transform="translate(2112.626953 0)"/>
       <use xlink:href="#DejaVuSans-72" transform="translate(2174.150391 0)"/>
      </g>
     </g>
    </g>
    <g id="ytick_8">
     <g id="line2d_14">
      <g>
       <use xlink:href="#m26593d360e" x="246.67" y="236.113811" style="stroke: #000000; stroke-width: 0.8"/>
      </g>
     </g>
     <g id="text_15">
      <!-- FoldInd_lh_insula -->
      <g transform="translate(154.715312 239.91303) scale(0.1 -0.1)">
       <defs>
        <path id="DejaVuSans-46" d="M 628 4666 
L 3309 4666 
L 3309 4134 
L 1259 4134 
L 1259 2759 
L 3109 2759 
L 3109 2228 
L 1259 2228 
L 1259 0 
L 628 0 
L 628 4666 
z
" transform="scale(0.015625)"/>
        <path id="DejaVuSans-49" d="M 628 4666 
L 1259 4666 
L 1259 0 
L 628 0 
L 628 4666 
z
" transform="scale(0.015625)"/>
       </defs>
       <use xlink:href="#DejaVuSans-46"/>
       <use xlink:href="#DejaVuSans-6f" transform="translate(53.894531 0)"/>
       <use xlink:href="#DejaVuSans-6c" transform="translate(115.076172 0)"/>
       <use xlink:href="#DejaVuSans-64" transform="translate(142.859375 0)"/>
       <use xlink:href="#DejaVuSans-49" transform="translate(206.335938 0)"/>
       <use xlink:href="#DejaVuSans-6e" transform="translate(235.828125 0)"/>
       <use xlink:href="#DejaVuSans-64" transform="translate(299.207031 0)"/>
       <use xlink:href="#DejaVuSans-5f" transform="translate(362.683594 0)"/>
       <use xlink:href="#DejaVuSans-6c" transform="translate(412.683594 0)"/>
       <use xlink:href="#DejaVuSans-68" transform="translate(440.466797 0)"/>
       <use xlink:href="#DejaVuSans-5f" transform="translate(503.845703 0)"/>
       <use xlink:href="#DejaVuSans-69" transform="translate(553.845703 0)"/>
       <use xlink:href="#DejaVuSans-6e" transform="translate(581.628906 0)"/>
       <use xlink:href="#DejaVuSans-73" transform="translate(645.007812 0)"/>
       <use xlink:href="#DejaVuSans-75" transform="translate(697.107422 0)"/>
       <use xlink:href="#DejaVuSans-6c" transform="translate(760.486328 0)"/>
       <use xlink:href="#DejaVuSans-61" transform="translate(788.269531 0)"/>
      </g>
     </g>
    </g>
    <g id="ytick_9">
     <g id="line2d_15">
      <g>
       <use xlink:href="#m26593d360e" x="246.67" y="261.052287" style="stroke: #000000; stroke-width: 0.8"/>
      </g>
     </g>
     <g id="text_16">
      <!-- Volume_mm3_Right-Cerebellum-White-Matter -->
      <g transform="translate(10.627812 264.851505) scale(0.1 -0.1)">
       <defs>
        <path id="DejaVuSans-52" d="M 2841 2188 
Q 3044 2119 3236 1894 
Q 3428 1669 3622 1275 
L 4263 0 
L 3584 0 
L 2988 1197 
Q 2756 1666 2539 1819 
Q 2322 1972 1947 1972 
L 1259 1972 
L 1259 0 
L 628 0 
L 628 4666 
L 2053 4666 
Q 2853 4666 3247 4331 
Q 3641 3997 3641 3322 
Q 3641 2881 3436 2590 
Q 3231 2300 2841 2188 
z
M 1259 4147 
L 1259 2491 
L 2053 2491 
Q 2509 2491 2742 2702 
Q 2975 2913 2975 3322 
Q 2975 3731 2742 3939 
Q 2509 4147 2053 4147 
L 1259 4147 
z
" transform="scale(0.015625)"/>
       </defs>
       <use xlink:href="#DejaVuSans-56"/>
       <use xlink:href="#DejaVuSans-6f" transform="translate(60.658203 0)"/>
       <use xlink:href="#DejaVuSans-6c" transform="translate(121.839844 0)"/>
       <use xlink:href="#DejaVuSans-75" transform="translate(149.623047 0)"/>
       <use xlink:href="#DejaVuSans-6d" transform="translate(213.001953 0)"/>
       <use xlink:href="#DejaVuSans-65" transform="translate(310.414062 0)"/>
       <use xlink:href="#DejaVuSans-5f" transform="translate(371.9375 0)"/>
       <use xlink:href="#DejaVuSans-6d" transform="translate(421.9375 0)"/>
       <use xlink:href="#DejaVuSans-6d" transform="translate(519.349609 0)"/>
       <use xlink:href="#DejaVuSans-33" transform="translate(616.761719 0)"/>
       <use xlink:href="#DejaVuSans-5f" transform="translate(680.384766 0)"/>
       <use xlink:href="#DejaVuSans-52" transform="translate(730.384766 0)"/>
       <use xlink:href="#DejaVuSans-69" transform="translate(799.867188 0)"/>
       <use xlink:href="#DejaVuSans-67" transform="translate(827.650391 0)"/>
       <use xlink:href="#DejaVuSans-68" transform="translate(891.126953 0)"/>
       <use xlink:href="#DejaVuSans-74" transform="translate(954.505859 0)"/>
       <use xlink:href="#DejaVuSans-2d" transform="translate(993.714844 0)"/>
       <use xlink:href="#DejaVuSans-43" transform="translate(1029.798828 0)"/>
       <use xlink:href="#DejaVuSans-65" transform="translate(1099.623047 0)"/>
       <use xlink:href="#DejaVuSans-72" transform="translate(1161.146484 0)"/>
       <use xlink:href="#DejaVuSans-65" transform="translate(1200.009766 0)"/>
       <use xlink:href="#DejaVuSans-62" transform="translate(1261.533203 0)"/>
       <use xlink:href="#DejaVuSans-65" transform="translate(1325.009766 0)"/>
       <use xlink:href="#DejaVuSans-6c" transform="translate(1386.533203 0)"/>
       <use xlink:href="#DejaVuSans-6c" transform="translate(1414.316406 0)"/>
       <use xlink:href="#DejaVuSans-75" transform="translate(1442.099609 0)"/>
       <use xlink:href="#DejaVuSans-6d" transform="translate(1505.478516 0)"/>
       <use xlink:href="#DejaVuSans-2d" transform="translate(1602.890625 0)"/>
       <use xlink:href="#DejaVuSans-57" transform="translate(1634.974609 0)"/>
       <use xlink:href="#DejaVuSans-68" transform="translate(1733.851562 0)"/>
       <use xlink:href="#DejaVuSans-69" transform="translate(1797.230469 0)"/>
       <use xlink:href="#DejaVuSans-74" transform="translate(1825.013672 0)"/>
       <use xlink:href="#DejaVuSans-65" transform="translate(1864.222656 0)"/>
       <use xlink:href="#DejaVuSans-2d" transform="translate(1925.746094 0)"/>
       <use xlink:href="#DejaVuSans-4d" transform="translate(1961.830078 0)"/>
       <use xlink:href="#DejaVuSans-61" transform="translate(2048.109375 0)"/>
       <use xlink:href="#DejaVuSans-74" transform="translate(2109.388672 0)"/>
       <use xlink:href="#DejaVuSans-74" transform="translate(2148.597656 0)"/>
       <use xlink:href="#DejaVuSans-65" transform="translate(2187.806641 0)"/>
       <use xlink:href="#DejaVuSans-72" transform="translate(2249.330078 0)"/>
      </g>
     </g>
    </g>
    <g id="ytick_10">
     <g id="line2d_16">
      <g>
       <use xlink:href="#m26593d360e" x="246.67" y="285.990762" style="stroke: #000000; stroke-width: 0.8"/>
      </g>
     </g>
     <g id="text_17">
      <!-- ThickStd_lh_rostralanteriorcingulate -->
      <g transform="translate(59.560625 289.789981) scale(0.1 -0.1)">
       <use xlink:href="#DejaVuSans-54"/>
       <use xlink:href="#DejaVuSans-68" transform="translate(61.083984 0)"/>
       <use xlink:href="#DejaVuSans-69" transform="translate(124.462891 0)"/>
       <use xlink:href="#DejaVuSans-63" transform="translate(152.246094 0)"/>
       <use xlink:href="#DejaVuSans-6b" transform="translate(207.226562 0)"/>
       <use xlink:href="#DejaVuSans-53" transform="translate(265.136719 0)"/>
       <use xlink:href="#DejaVuSans-74" transform="translate(328.613281 0)"/>
       <use xlink:href="#DejaVuSans-64" transform="translate(367.822266 0)"/>
       <use xlink:href="#DejaVuSans-5f" transform="translate(431.298828 0)"/>
       <use xlink:href="#DejaVuSans-6c" transform="translate(481.298828 0)"/>
       <use xlink:href="#DejaVuSans-68" transform="translate(509.082031 0)"/>
       <use xlink:href="#DejaVuSans-5f" transform="translate(572.460938 0)"/>
       <use xlink:href="#DejaVuSans-72" transform="translate(622.460938 0)"/>
       <use xlink:href="#DejaVuSans-6f" transform="translate(661.324219 0)"/>
       <use xlink:href="#DejaVuSans-73" transform="translate(722.505859 0)"/>
       <use xlink:href="#DejaVuSans-74" transform="translate(774.605469 0)"/>
       <use xlink:href="#DejaVuSans-72" transform="translate(813.814453 0)"/>
       <use xlink:href="#DejaVuSans-61" transform="translate(854.927734 0)"/>
       <use xlink:href="#DejaVuSans-6c" transform="translate(916.207031 0)"/>
       <use xlink:href="#DejaVuSans-61" transform="translate(943.990234 0)"/>
       <use xlink:href="#DejaVuSans-6e" transform="translate(1005.269531 0)"/>
       <use xlink:href="#DejaVuSans-74" transform="translate(1068.648438 0)"/>
       <use xlink:href="#DejaVuSans-65" transform="translate(1107.857422 0)"/>
       <use xlink:href="#DejaVuSans-72" transform="translate(1169.380859 0)"/>
       <use xlink:href="#DejaVuSans-69" transform="translate(1210.494141 0)"/>
       <use xlink:href="#DejaVuSans-6f" transform="translate(1238.277344 0)"/>
       <use xlink:href="#DejaVuSans-72" transform="translate(1299.458984 0)"/>
       <use xlink:href="#DejaVuSans-63" transform="translate(1338.322266 0)"/>
       <use xlink:href="#DejaVuSans-69" transform="translate(1393.302734 0)"/>
       <use xlink:href="#DejaVuSans-6e" transform="translate(1421.085938 0)"/>
       <use xlink:href="#DejaVuSans-67" transform="translate(1484.464844 0)"/>
       <use xlink:href="#DejaVuSans-75" transform="translate(1547.941406 0)"/>
       <use xlink:href="#DejaVuSans-6c" transform="translate(1611.320312 0)"/>
       <use xlink:href="#DejaVuSans-61" transform="translate(1639.103516 0)"/>
       <use xlink:href="#DejaVuSans-74" transform="translate(1700.382812 0)"/>
       <use xlink:href="#DejaVuSans-65" transform="translate(1739.591797 0)"/>
      </g>
     </g>
    </g>
    <g id="ytick_11">
     <g id="line2d_17">
      <g>
       <use xlink:href="#m26593d360e" x="246.67" y="310.929238" style="stroke: #000000; stroke-width: 0.8"/>
      </g>
     </g>
     <g id="text_18">
      <!-- ThickAvg_rh_medialorbitofrontal -->
      <g transform="translate(78.352812 314.728457) scale(0.1 -0.1)">
       <use xlink:href="#DejaVuSans-54"/>
       <use xlink:href="#DejaVuSans-68" transform="translate(61.083984 0)"/>
       <use xlink:href="#DejaVuSans-69" transform="translate(124.462891 0)"/>
       <use xlink:href="#DejaVuSans-63" transform="translate(152.246094 0)"/>
       <use xlink:href="#DejaVuSans-6b" transform="translate(207.226562 0)"/>
       <use xlink:href="#DejaVuSans-41" transform="translate(265.136719 0)"/>
       <use xlink:href="#DejaVuSans-76" transform="translate(327.669922 0)"/>
       <use xlink:href="#DejaVuSans-67" transform="translate(386.849609 0)"/>
       <use xlink:href="#DejaVuSans-5f" transform="translate(450.326172 0)"/>
       <use xlink:href="#DejaVuSans-72" transform="translate(500.326172 0)"/>
       <use xlink:href="#DejaVuSans-68" transform="translate(539.689453 0)"/>
       <use xlink:href="#DejaVuSans-5f" transform="translate(603.068359 0)"/>
       <use xlink:href="#DejaVuSans-6d" transform="translate(653.068359 0)"/>
       <use xlink:href="#DejaVuSans-65" transform="translate(750.480469 0)"/>
       <use xlink:href="#DejaVuSans-64" transform="translate(812.003906 0)"/>
       <use xlink:href="#DejaVuSans-69" transform="translate(875.480469 0)"/>
       <use xlink:href="#DejaVuSans-61" transform="translate(903.263672 0)"/>
       <use xlink:href="#DejaVuSans-6c" transform="translate(964.542969 0)"/>
       <use xlink:href="#DejaVuSans-6f" transform="translate(992.326172 0)"/>
       <use xlink:href="#DejaVuSans-72" transform="translate(1053.507812 0)"/>
       <use xlink:href="#DejaVuSans-62" transform="translate(1094.621094 0)"/>
       <use xlink:href="#DejaVuSans-69" transform="translate(1158.097656 0)"/>
       <use xlink:href="#DejaVuSans-74" transform="translate(1185.880859 0)"/>
       <use xlink:href="#DejaVuSans-6f" transform="translate(1225.089844 0)"/>
       <use xlink:href="#DejaVuSans-66" transform="translate(1286.271484 0)"/>
       <use xlink:href="#DejaVuSans-72" transform="translate(1321.476562 0)"/>
       <use xlink:href="#DejaVuSans-6f" transform="translate(1360.339844 0)"/>
       <use xlink:href="#DejaVuSans-6e" transform="translate(1421.521484 0)"/>
       <use xlink:href="#DejaVuSans-74" transform="translate(1484.900391 0)"/>
       <use xlink:href="#DejaVuSans-61" transform="translate(1524.109375 0)"/>
       <use xlink:href="#DejaVuSans-6c" transform="translate(1585.388672 0)"/>
      </g>
     </g>
    </g>
    <g id="ytick_12">
     <g id="line2d_18">
      <g>
       <use xlink:href="#m26593d360e" x="246.67" y="335.867713" style="stroke: #000000; stroke-width: 0.8"/>
      </g>
     </g>
     <g id="text_19">
      <!-- ThickAvg_rh_isthmuscingulate -->
      <g transform="translate(88.55125 339.666932) scale(0.1 -0.1)">
       <use xlink:href="#DejaVuSans-54"/>
       <use xlink:href="#DejaVuSans-68" transform="translate(61.083984 0)"/>
       <use xlink:href="#DejaVuSans-69" transform="translate(124.462891 0)"/>
       <use xlink:href="#DejaVuSans-63" transform="translate(152.246094 0)"/>
       <use xlink:href="#DejaVuSans-6b" transform="translate(207.226562 0)"/>
       <use xlink:href="#DejaVuSans-41" transform="translate(265.136719 0)"/>
       <use xlink:href="#DejaVuSans-76" transform="translate(327.669922 0)"/>
       <use xlink:href="#DejaVuSans-67" transform="translate(386.849609 0)"/>
       <use xlink:href="#DejaVuSans-5f" transform="translate(450.326172 0)"/>
       <use xlink:href="#DejaVuSans-72" transform="translate(500.326172 0)"/>
       <use xlink:href="#DejaVuSans-68" transform="translate(539.689453 0)"/>
       <use xlink:href="#DejaVuSans-5f" transform="translate(603.068359 0)"/>
       <use xlink:href="#DejaVuSans-69" transform="translate(653.068359 0)"/>
       <use xlink:href="#DejaVuSans-73" transform="translate(680.851562 0)"/>
       <use xlink:href="#DejaVuSans-74" transform="translate(732.951172 0)"/>
       <use xlink:href="#DejaVuSans-68" transform="translate(772.160156 0)"/>
       <use xlink:href="#DejaVuSans-6d" transform="translate(835.539062 0)"/>
       <use xlink:href="#DejaVuSans-75" transform="translate(932.951172 0)"/>
       <use xlink:href="#DejaVuSans-73" transform="translate(996.330078 0)"/>
       <use xlink:href="#DejaVuSans-63" transform="translate(1048.429688 0)"/>
       <use xlink:href="#DejaVuSans-69" transform="translate(1103.410156 0)"/>
       <use xlink:href="#DejaVuSans-6e" transform="translate(1131.193359 0)"/>
       <use xlink:href="#DejaVuSans-67" transform="translate(1194.572266 0)"/>
       <use xlink:href="#DejaVuSans-75" transform="translate(1258.048828 0)"/>
       <use xlink:href="#DejaVuSans-6c" transform="translate(1321.427734 0)"/>
       <use xlink:href="#DejaVuSans-61" transform="translate(1349.210938 0)"/>
       <use xlink:href="#DejaVuSans-74" transform="translate(1410.490234 0)"/>
       <use xlink:href="#DejaVuSans-65" transform="translate(1449.699219 0)"/>
      </g>
     </g>
    </g>
    <g id="ytick_13">
     <g id="line2d_19">
      <g>
       <use xlink:href="#m26593d360e" x="246.67" y="360.806189" style="stroke: #000000; stroke-width: 0.8"/>
      </g>
     </g>
     <g id="text_20">
      <!-- ThickAvg_lh_medialorbitofrontal -->
      <g transform="translate(79.510625 364.605408) scale(0.1 -0.1)">
       <use xlink:href="#DejaVuSans-54"/>
       <use xlink:href="#DejaVuSans-68" transform="translate(61.083984 0)"/>
       <use xlink:href="#DejaVuSans-69" transform="translate(124.462891 0)"/>
       <use xlink:href="#DejaVuSans-63" transform="translate(152.246094 0)"/>
       <use xlink:href="#DejaVuSans-6b" transform="translate(207.226562 0)"/>
       <use xlink:href="#DejaVuSans-41" transform="translate(265.136719 0)"/>
       <use xlink:href="#DejaVuSans-76" transform="translate(327.669922 0)"/>
       <use xlink:href="#DejaVuSans-67" transform="translate(386.849609 0)"/>
       <use xlink:href="#DejaVuSans-5f" transform="translate(450.326172 0)"/>
       <use xlink:href="#DejaVuSans-6c" transform="translate(500.326172 0)"/>
       <use xlink:href="#DejaVuSans-68" transform="translate(528.109375 0)"/>
       <use xlink:href="#DejaVuSans-5f" transform="translate(591.488281 0)"/>
       <use xlink:href="#DejaVuSans-6d" transform="translate(641.488281 0)"/>
       <use xlink:href="#DejaVuSans-65" transform="translate(738.900391 0)"/>
       <use xlink:href="#DejaVuSans-64" transform="translate(800.423828 0)"/>
       <use xlink:href="#DejaVuSans-69" transform="translate(863.900391 0)"/>
       <use xlink:href="#DejaVuSans-61" transform="translate(891.683594 0)"/>
       <use xlink:href="#DejaVuSans-6c" transform="translate(952.962891 0)"/>
       <use xlink:href="#DejaVuSans-6f" transform="translate(980.746094 0)"/>
       <use xlink:href="#DejaVuSans-72" transform="translate(1041.927734 0)"/>
       <use xlink:href="#DejaVuSans-62" transform="translate(1083.041016 0)"/>
       <use xlink:href="#DejaVuSans-69" transform="translate(1146.517578 0)"/>
       <use xlink:href="#DejaVuSans-74" transform="translate(1174.300781 0)"/>
       <use xlink:href="#DejaVuSans-6f" transform="translate(1213.509766 0)"/>
       <use xlink:href="#DejaVuSans-66" transform="translate(1274.691406 0)"/>
       <use xlink:href="#DejaVuSans-72" transform="translate(1309.896484 0)"/>
       <use xlink:href="#DejaVuSans-6f" transform="translate(1348.759766 0)"/>
       <use xlink:href="#DejaVuSans-6e" transform="translate(1409.941406 0)"/>
       <use xlink:href="#DejaVuSans-74" transform="translate(1473.320312 0)"/>
       <use xlink:href="#DejaVuSans-61" transform="translate(1512.529297 0)"/>
       <use xlink:href="#DejaVuSans-6c" transform="translate(1573.808594 0)"/>
      </g>
     </g>
    </g>
    <g id="ytick_14">
     <g id="line2d_20">
      <g>
       <use xlink:href="#m26593d360e" x="246.67" y="385.744665" style="stroke: #000000; stroke-width: 0.8"/>
      </g>
     </g>
     <g id="text_21">
      <!-- FoldInd_rh_insula -->
      <g transform="translate(153.5575 389.543884) scale(0.1 -0.1)">
       <use xlink:href="#DejaVuSans-46"/>
       <use xlink:href="#DejaVuSans-6f" transform="translate(53.894531 0)"/>
       <use xlink:href="#DejaVuSans-6c" transform="translate(115.076172 0)"/>
       <use xlink:href="#DejaVuSans-64" transform="translate(142.859375 0)"/>
       <use xlink:href="#DejaVuSans-49" transform="translate(206.335938 0)"/>
       <use xlink:href="#DejaVuSans-6e" transform="translate(235.828125 0)"/>
       <use xlink:href="#DejaVuSans-64" transform="translate(299.207031 0)"/>
       <use xlink:href="#DejaVuSans-5f" transform="translate(362.683594 0)"/>
       <use xlink:href="#DejaVuSans-72" transform="translate(412.683594 0)"/>
       <use xlink:href="#DejaVuSans-68" transform="translate(452.046875 0)"/>
       <use xlink:href="#DejaVuSans-5f" transform="translate(515.425781 0)"/>
       <use xlink:href="#DejaVuSans-69" transform="translate(565.425781 0)"/>
       <use xlink:href="#DejaVuSans-6e" transform="translate(593.208984 0)"/>
       <use xlink:href="#DejaVuSans-73" transform="translate(656.587891 0)"/>
       <use xlink:href="#DejaVuSans-75" transform="translate(708.6875 0)"/>
       <use xlink:href="#DejaVuSans-6c" transform="translate(772.066406 0)"/>
       <use xlink:href="#DejaVuSans-61" transform="translate(799.849609 0)"/>
      </g>
     </g>
    </g>
    <g id="ytick_15">
     <g id="line2d_21">
      <g>
       <use xlink:href="#m26593d360e" x="246.67" y="410.68314" style="stroke: #000000; stroke-width: 0.8"/>
      </g>
     </g>
     <g id="text_22">
      <!-- ThickAvg_rh_middletemporal -->
      <g transform="translate(94.918437 414.482359) scale(0.1 -0.1)">
       <use xlink:href="#DejaVuSans-54"/>
       <use xlink:href="#DejaVuSans-68" transform="translate(61.083984 0)"/>
       <use xlink:href="#DejaVuSans-69" transform="translate(124.462891 0)"/>
       <use xlink:href="#DejaVuSans-63" transform="translate(152.246094 0)"/>
       <use xlink:href="#DejaVuSans-6b" transform="translate(207.226562 0)"/>
       <use xlink:href="#DejaVuSans-41" transform="translate(265.136719 0)"/>
       <use xlink:href="#DejaVuSans-76" transform="translate(327.669922 0)"/>
       <use xlink:href="#DejaVuSans-67" transform="translate(386.849609 0)"/>
       <use xlink:href="#DejaVuSans-5f" transform="translate(450.326172 0)"/>
       <use xlink:href="#DejaVuSans-72" transform="translate(500.326172 0)"/>
       <use xlink:href="#DejaVuSans-68" transform="translate(539.689453 0)"/>
       <use xlink:href="#DejaVuSans-5f" transform="translate(603.068359 0)"/>
       <use xlink:href="#DejaVuSans-6d" transform="translate(653.068359 0)"/>
       <use xlink:href="#DejaVuSans-69" transform="translate(750.480469 0)"/>
       <use xlink:href="#DejaVuSans-64" transform="translate(778.263672 0)"/>
       <use xlink:href="#DejaVuSans-64" transform="translate(841.740234 0)"/>
       <use xlink:href="#DejaVuSans-6c" transform="translate(905.216797 0)"/>
       <use xlink:href="#DejaVuSans-65" transform="translate(933 0)"/>
       <use xlink:href="#DejaVuSans-74" transform="translate(994.523438 0)"/>
       <use xlink:href="#DejaVuSans-65" transform="translate(1033.732422 0)"/>
       <use xlink:href="#DejaVuSans-6d" transform="translate(1095.255859 0)"/>
       <use xlink:href="#DejaVuSans-70" transform="translate(1192.667969 0)"/>
       <use xlink:href="#DejaVuSans-6f" transform="translate(1256.144531 0)"/>
       <use xlink:href="#DejaVuSans-72" transform="translate(1317.326172 0)"/>
       <use xlink:href="#DejaVuSans-61" transform="translate(1358.439453 0)"/>
       <use xlink:href="#DejaVuSans-6c" transform="translate(1419.71875 0)"/>
      </g>
     </g>
    </g>
    <g id="ytick_16">
     <g id="line2d_22">
      <g>
       <use xlink:href="#m26593d360e" x="246.67" y="435.621616" style="stroke: #000000; stroke-width: 0.8"/>
      </g>
     </g>
     <g id="text_23">
      <!-- Volume_mm3_Cbm_Left_CrusII -->
      <g transform="translate(86.204375 439.420835) scale(0.1 -0.1)">
       <use xlink:href="#DejaVuSans-56"/>
       <use xlink:href="#DejaVuSans-6f" transform="translate(60.658203 0)"/>
       <use xlink:href="#DejaVuSans-6c" transform="translate(121.839844 0)"/>
       <use xlink:href="#DejaVuSans-75" transform="translate(149.623047 0)"/>
       <use xlink:href="#DejaVuSans-6d" transform="translate(213.001953 0)"/>
       <use xlink:href="#DejaVuSans-65" transform="translate(310.414062 0)"/>
       <use xlink:href="#DejaVuSans-5f" transform="translate(371.9375 0)"/>
       <use xlink:href="#DejaVuSans-6d" transform="translate(421.9375 0)"/>
       <use xlink:href="#DejaVuSans-6d" transform="translate(519.349609 0)"/>
       <use xlink:href="#DejaVuSans-33" transform="translate(616.761719 0)"/>
       <use xlink:href="#DejaVuSans-5f" transform="translate(680.384766 0)"/>
       <use xlink:href="#DejaVuSans-43" transform="translate(730.384766 0)"/>
       <use xlink:href="#DejaVuSans-62" transform="translate(800.208984 0)"/>
       <use xlink:href="#DejaVuSans-6d" transform="translate(863.685547 0)"/>
       <use xlink:href="#DejaVuSans-5f" transform="translate(961.097656 0)"/>
       <use xlink:href="#DejaVuSans-4c" transform="translate(1011.097656 0)"/>
       <use xlink:href="#DejaVuSans-65" transform="translate(1065.060547 0)"/>
       <use xlink:href="#DejaVuSans-66" transform="translate(1126.583984 0)"/>
       <use xlink:href="#DejaVuSans-74" transform="translate(1160.039062 0)"/>
       <use xlink:href="#DejaVuSans-5f" transform="translate(1199.248047 0)"/>
       <use xlink:href="#DejaVuSans-43" transform="translate(1249.248047 0)"/>
       <use xlink:href="#DejaVuSans-72" transform="translate(1319.072266 0)"/>
       <use xlink:href="#DejaVuSans-75" transform="translate(1360.185547 0)"/>
       <use xlink:href="#DejaVuSans-73" transform="translate(1423.564453 0)"/>
       <use xlink:href="#DejaVuSans-49" transform="translate(1475.664062 0)"/>
       <use xlink:href="#DejaVuSans-49" transform="translate(1505.15625 0)"/>
      </g>
     </g>
    </g>
    <g id="ytick_17">
     <g id="line2d_23">
      <g>
       <use xlink:href="#m26593d360e" x="246.67" y="460.560092" style="stroke: #000000; stroke-width: 0.8"/>
      </g>
     </g>
     <g id="text_24">
      <!-- ThickAvg_lh_insula -->
      <g transform="translate(145.952812 464.359311) scale(0.1 -0.1)">
       <use xlink:href="#DejaVuSans-54"/>
       <use xlink:href="#DejaVuSans-68" transform="translate(61.083984 0)"/>
       <use xlink:href="#DejaVuSans-69" transform="translate(124.462891 0)"/>
       <use xlink:href="#DejaVuSans-63" transform="translate(152.246094 0)"/>
       <use xlink:href="#DejaVuSans-6b" transform="translate(207.226562 0)"/>
       <use xlink:href="#DejaVuSans-41" transform="translate(265.136719 0)"/>
       <use xlink:href="#DejaVuSans-76" transform="translate(327.669922 0)"/>
       <use xlink:href="#DejaVuSans-67" transform="translate(386.849609 0)"/>
       <use xlink:href="#DejaVuSans-5f" transform="translate(450.326172 0)"/>
       <use xlink:href="#DejaVuSans-6c" transform="translate(500.326172 0)"/>
       <use xlink:href="#DejaVuSans-68" transform="translate(528.109375 0)"/>
       <use xlink:href="#DejaVuSans-5f" transform="translate(591.488281 0)"/>
       <use xlink:href="#DejaVuSans-69" transform="translate(641.488281 0)"/>
       <use xlink:href="#DejaVuSans-6e" transform="translate(669.271484 0)"/>
       <use xlink:href="#DejaVuSans-73" transform="translate(732.650391 0)"/>
       <use xlink:href="#DejaVuSans-75" transform="translate(784.75 0)"/>
       <use xlink:href="#DejaVuSans-6c" transform="translate(848.128906 0)"/>
       <use xlink:href="#DejaVuSans-61" transform="translate(875.912109 0)"/>
      </g>
     </g>
    </g>
    <g id="ytick_18">
     <g id="line2d_24">
      <g>
       <use xlink:href="#m26593d360e" x="246.67" y="485.498567" style="stroke: #000000; stroke-width: 0.8"/>
      </g>
     </g>
     <g id="text_25">
      <!-- GausCurv_lh_fusiform -->
      <g transform="translate(130.62 489.297786) scale(0.1 -0.1)">
       <defs>
        <path id="DejaVuSans-47" d="M 3809 666 
L 3809 1919 
L 2778 1919 
L 2778 2438 
L 4434 2438 
L 4434 434 
Q 4069 175 3628 42 
Q 3188 -91 2688 -91 
Q 1594 -91 976 548 
Q 359 1188 359 2328 
Q 359 3472 976 4111 
Q 1594 4750 2688 4750 
Q 3144 4750 3555 4637 
Q 3966 4525 4313 4306 
L 4313 3634 
Q 3963 3931 3569 4081 
Q 3175 4231 2741 4231 
Q 1884 4231 1454 3753 
Q 1025 3275 1025 2328 
Q 1025 1384 1454 906 
Q 1884 428 2741 428 
Q 3075 428 3337 486 
Q 3600 544 3809 666 
z
" transform="scale(0.015625)"/>
       </defs>
       <use xlink:href="#DejaVuSans-47"/>
       <use xlink:href="#DejaVuSans-61" transform="translate(77.490234 0)"/>
       <use xlink:href="#DejaVuSans-75" transform="translate(138.769531 0)"/>
       <use xlink:href="#DejaVuSans-73" transform="translate(202.148438 0)"/>
       <use xlink:href="#DejaVuSans-43" transform="translate(254.248047 0)"/>
       <use xlink:href="#DejaVuSans-75" transform="translate(324.072266 0)"/>
       <use xlink:href="#DejaVuSans-72" transform="translate(387.451172 0)"/>
       <use xlink:href="#DejaVuSans-76" transform="translate(428.564453 0)"/>
       <use xlink:href="#DejaVuSans-5f" transform="translate(487.744141 0)"/>
       <use xlink:href="#DejaVuSans-6c" transform="translate(537.744141 0)"/>
       <use xlink:href="#DejaVuSans-68" transform="translate(565.527344 0)"/>
       <use xlink:href="#DejaVuSans-5f" transform="translate(628.90625 0)"/>
       <use xlink:href="#DejaVuSans-66" transform="translate(678.90625 0)"/>
       <use xlink:href="#DejaVuSans-75" transform="translate(714.111328 0)"/>
       <use xlink:href="#DejaVuSans-73" transform="translate(777.490234 0)"/>
       <use xlink:href="#DejaVuSans-69" transform="translate(829.589844 0)"/>
       <use xlink:href="#DejaVuSans-66" transform="translate(857.373047 0)"/>
       <use xlink:href="#DejaVuSans-6f" transform="translate(892.578125 0)"/>
       <use xlink:href="#DejaVuSans-72" transform="translate(953.759766 0)"/>
       <use xlink:href="#DejaVuSans-6d" transform="translate(993.123047 0)"/>
      </g>
     </g>
    </g>
    <g id="ytick_19">
     <g id="line2d_25">
      <g>
       <use xlink:href="#m26593d360e" x="246.67" y="510.437043" style="stroke: #000000; stroke-width: 0.8"/>
      </g>
     </g>
     <g id="text_26">
      <!-- ThickStd_rh_rostralanteriorcingulate -->
      <g transform="translate(58.402812 514.236262) scale(0.1 -0.1)">
       <use xlink:href="#DejaVuSans-54"/>
       <use xlink:href="#DejaVuSans-68" transform="translate(61.083984 0)"/>
       <use xlink:href="#DejaVuSans-69" transform="translate(124.462891 0)"/>
       <use xlink:href="#DejaVuSans-63" transform="translate(152.246094 0)"/>
       <use xlink:href="#DejaVuSans-6b" transform="translate(207.226562 0)"/>
       <use xlink:href="#DejaVuSans-53" transform="translate(265.136719 0)"/>
       <use xlink:href="#DejaVuSans-74" transform="translate(328.613281 0)"/>
       <use xlink:href="#DejaVuSans-64" transform="translate(367.822266 0)"/>
       <use xlink:href="#DejaVuSans-5f" transform="translate(431.298828 0)"/>
       <use xlink:href="#DejaVuSans-72" transform="translate(481.298828 0)"/>
       <use xlink:href="#DejaVuSans-68" transform="translate(520.662109 0)"/>
       <use xlink:href="#DejaVuSans-5f" transform="translate(584.041016 0)"/>
       <use xlink:href="#DejaVuSans-72" transform="translate(634.041016 0)"/>
       <use xlink:href="#DejaVuSans-6f" transform="translate(672.904297 0)"/>
       <use xlink:href="#DejaVuSans-73" transform="translate(734.085938 0)"/>
       <use xlink:href="#DejaVuSans-74" transform="translate(786.185547 0)"/>
       <use xlink:href="#DejaVuSans-72" transform="translate(825.394531 0)"/>
       <use xlink:href="#DejaVuSans-61" transform="translate(866.507812 0)"/>
       <use xlink:href="#DejaVuSans-6c" transform="translate(927.787109 0)"/>
       <use xlink:href="#DejaVuSans-61" transform="translate(955.570312 0)"/>
       <use xlink:href="#DejaVuSans-6e" transform="translate(1016.849609 0)"/>
       <use xlink:href="#DejaVuSans-74" transform="translate(1080.228516 0)"/>
       <use xlink:href="#DejaVuSans-65" transform="translate(1119.4375 0)"/>
       <use xlink:href="#DejaVuSans-72" transform="translate(1180.960938 0)"/>
       <use xlink:href="#DejaVuSans-69" transform="translate(1222.074219 0)"/>
       <use xlink:href="#DejaVuSans-6f" transform="translate(1249.857422 0)"/>
       <use xlink:href="#DejaVuSans-72" transform="translate(1311.039062 0)"/>
       <use xlink:href="#DejaVuSans-63" transform="translate(1349.902344 0)"/>
       <use xlink:href="#DejaVuSans-69" transform="translate(1404.882812 0)"/>
       <use xlink:href="#DejaVuSans-6e" transform="translate(1432.666016 0)"/>
       <use xlink:href="#DejaVuSans-67" transform="translate(1496.044922 0)"/>
       <use xlink:href="#DejaVuSans-75" transform="translate(1559.521484 0)"/>
       <use xlink:href="#DejaVuSans-6c" transform="translate(1622.900391 0)"/>
       <use xlink:href="#DejaVuSans-61" transform="translate(1650.683594 0)"/>
       <use xlink:href="#DejaVuSans-74" transform="translate(1711.962891 0)"/>
       <use xlink:href="#DejaVuSans-65" transform="translate(1751.171875 0)"/>
      </g>
     </g>
    </g>
    <g id="ytick_20">
     <g id="line2d_26">
      <g>
       <use xlink:href="#m26593d360e" x="246.67" y="535.375519" style="stroke: #000000; stroke-width: 0.8"/>
      </g>
     </g>
     <g id="text_27">
      <!-- GausCurv_rh_fusiform -->
      <g transform="translate(129.462187 539.174738) scale(0.1 -0.1)">
       <use xlink:href="#DejaVuSans-47"/>
       <use xlink:href="#DejaVuSans-61" transform="translate(77.490234 0)"/>
       <use xlink:href="#DejaVuSans-75" transform="translate(138.769531 0)"/>
       <use xlink:href="#DejaVuSans-73" transform="translate(202.148438 0)"/>
       <use xlink:href="#DejaVuSans-43" transform="translate(254.248047 0)"/>
       <use xlink:href="#DejaVuSans-75" transform="translate(324.072266 0)"/>
       <use xlink:href="#DejaVuSans-72" transform="translate(387.451172 0)"/>
       <use xlink:href="#DejaVuSans-76" transform="translate(428.564453 0)"/>
       <use xlink:href="#DejaVuSans-5f" transform="translate(487.744141 0)"/>
       <use xlink:href="#DejaVuSans-72" transform="translate(537.744141 0)"/>
       <use xlink:href="#DejaVuSans-68" transform="translate(577.107422 0)"/>
       <use xlink:href="#DejaVuSans-5f" transform="translate(640.486328 0)"/>
       <use xlink:href="#DejaVuSans-66" transform="translate(690.486328 0)"/>
       <use xlink:href="#DejaVuSans-75" transform="translate(725.691406 0)"/>
       <use xlink:href="#DejaVuSans-73" transform="translate(789.070312 0)"/>
       <use xlink:href="#DejaVuSans-69" transform="translate(841.169922 0)"/>
       <use xlink:href="#DejaVuSans-66" transform="translate(868.953125 0)"/>
       <use xlink:href="#DejaVuSans-6f" transform="translate(904.158203 0)"/>
       <use xlink:href="#DejaVuSans-72" transform="translate(965.339844 0)"/>
       <use xlink:href="#DejaVuSans-6d" transform="translate(1004.703125 0)"/>
      </g>
     </g>
    </g>
   </g>
   <g id="patch_23">
    <path d="M 246.67 570.04 
L 246.67 26.88 
" style="fill: none; stroke: #000000; stroke-width: 0.8; stroke-linejoin: miter; stroke-linecap: square"/>
   </g>
   <g id="patch_24">
    <path d="M 565.2 570.04 
L 565.2 26.88 
" style="fill: none; stroke: #000000; stroke-width: 0.8; stroke-linejoin: miter; stroke-linecap: square"/>
   </g>
   <g id="patch_25">
    <path d="M 246.67 570.04 
L 565.2 570.04 
" style="fill: none; stroke: #000000; stroke-width: 0.8; stroke-linejoin: miter; stroke-linecap: square"/>
   </g>
   <g id="patch_26">
    <path d="M 246.67 26.88 
L 565.2 26.88 
" style="fill: none; stroke: #000000; stroke-width: 0.8; stroke-linejoin: miter; stroke-linecap: square"/>
   </g>
   <g id="text_28">
    <!-- Cardiff_Long_UNHARM_K4: PCA age-axis weights (top |w|; fused, K=4) -->
    <g transform="translate(195.178437 20.88) scale(0.12 -0.12)">
     <defs>
      <path id="DejaVuSans-55" d="M 556 4666 
L 1191 4666 
L 1191 1831 
Q 1191 1081 1462 751 
Q 1734 422 2344 422 
Q 2950 422 3222 751 
Q 3494 1081 3494 1831 
L 3494 4666 
L 4128 4666 
L 4128 1753 
Q 4128 841 3676 375 
Q 3225 -91 2344 -91 
Q 1459 -91 1007 375 
Q 556 841 556 1753 
L 556 4666 
z
" transform="scale(0.015625)"/>
      <path id="DejaVuSans-4e" d="M 628 4666 
L 1478 4666 
L 3547 763 
L 3547 4666 
L 4159 4666 
L 4159 0 
L 3309 0 
L 1241 3903 
L 1241 0 
L 628 0 
L 628 4666 
z
" transform="scale(0.015625)"/>
      <path id="DejaVuSans-48" d="M 628 4666 
L 1259 4666 
L 1259 2753 
L 3553 2753 
L 3553 4666 
L 4184 4666 
L 4184 0 
L 3553 0 
L 3553 2222 
L 1259 2222 
L 1259 0 
L 628 0 
L 628 4666 
z
" transform="scale(0.015625)"/>
      <path id="DejaVuSans-4b" d="M 628 4666 
L 1259 4666 
L 1259 2694 
L 3353 4666 
L 4166 4666 
L 1850 2491 
L 4331 0 
L 3500 0 
L 1259 2247 
L 1259 0 
L 628 0 
L 628 4666 
z
" transform="scale(0.015625)"/>
      <path id="DejaVuSans-3a" d="M 750 794 
L 1409 794 
L 1409 0 
L 750 0 
L 750 794 
z
M 750 3309 
L 1409 3309 
L 1409 2516 
L 750 2516 
L 750 3309 
z
" transform="scale(0.015625)"/>
      <path id="DejaVuSans-50" d="M 1259 4147 
L 1259 2394 
L 2053 2394 
Q 2494 2394 2734 2622 
Q 2975 2850 2975 3272 
Q 2975 3691 2734 3919 
Q 2494 4147 2053 4147 
L 1259 4147 
z
M 628 4666 
L 2053 4666 
Q 2838 4666 3239 4311 
Q 3641 3956 3641 3272 
Q 3641 2581 3239 2228 
Q 2838 1875 2053 1875 
L 1259 1875 
L 1259 0 
L 628 0 
L 628 4666 
z
" transform="scale(0.015625)"/>
      <path id="DejaVuSans-78" d="M 3513 3500 
L 2247 1797 
L 3578 0 
L 2900 0 
L 1881 1375 
L 863 0 
L 184 0 
L 1544 1831 
L 300 3500 
L 978 3500 
L 1906 2253 
L 2834 3500 
L 3513 3500 
z
" transform="scale(0.015625)"/>
      <path id="DejaVuSans-77" d="M 269 3500 
L 844 3500 
L 1563 769 
L 2278 3500 
L 2956 3500 
L 3675 769 
L 4391 3500 
L 4966 3500 
L 4050 0 
L 3372 0 
L 2619 2869 
L 1863 0 
L 1184 0 
L 269 3500 
z
" transform="scale(0.015625)"/>
      <path id="DejaVuSans-7c" d="M 1344 4891 
L 1344 -1509 
L 813 -1509 
L 813 4891 
L 1344 4891 
z
" transform="scale(0.015625)"/>
      <path id="DejaVuSans-3b" d="M 750 3309 
L 1409 3309 
L 1409 2516 
L 750 2516 
L 750 3309 
z
M 750 794 
L 1409 794 
L 1409 256 
L 897 -744 
L 494 -744 
L 750 256 
L 750 794 
z
" transform="scale(0.015625)"/>
      <path id="DejaVuSans-2c" d="M 750 794 
L 1409 794 
L 1409 256 
L 897 -744 
L 494 -744 
L 750 256 
L 750 794 
z
" transform="scale(0.015625)"/>
      <path id="DejaVuSans-3d" d="M 678 2906 
L 4684 2906 
L 4684 2381 
L 678 2381 
L 678 2906 
z
M 678 1631 
L 4684 1631 
L 4684 1100 
L 678 1100 
L 678 1631 
z
" transform="scale(0.015625)"/>
     </defs>
     <use xlink:href="#DejaVuSans-43"/>
     <use xlink:href="#DejaVuSans-61" transform="translate(69.824219 0)"/>
     <use xlink:href="#DejaVuSans-72" transform="translate(131.103516 0)"/>
     <use xlink:href="#DejaVuSans-64" transform="translate(170.466797 0)"/>
     <use xlink:href="#DejaVuSans-69" transform="translate(233.943359 0)"/>
     <use xlink:href="#DejaVuSans-66" transform="translate(261.726562 0)"/>
     <use xlink:href="#DejaVuSans-66" transform="translate(296.931641 0)"/>
     <use xlink:href="#DejaVuSans-5f" transform="translate(332.136719 0)"/>
     <use xlink:href="#DejaVuSans-4c" transform="translate(382.136719 0)"/>
     <use xlink:href="#DejaVuSans-6f" transform="translate(436.099609 0)"/>
     <use xlink:href="#DejaVuSans-6e" transform="translate(497.28125 0)"/>
     <use xlink:href="#DejaVuSans-67" transform="translate(560.660156 0)"/>
     <use xlink:href="#DejaVuSans-5f" transform="translate(624.136719 0)"/>
     <use xlink:href="#DejaVuSans-55" transform="translate(674.136719 0)"/>
     <use xlink:href="#DejaVuSans-4e" transform="translate(747.330078 0)"/>
     <use xlink:href="#DejaVuSans-48" transform="translate(822.134766 0)"/>
     <use xlink:href="#DejaVuSans-41" transform="translate(897.330078 0)"/>
     <use xlink:href="#DejaVuSans-52" transform="translate(965.738281 0)"/>
     <use xlink:href="#DejaVuSans-4d" transform="translate(1035.220703 0)"/>
     <use xlink:href="#DejaVuSans-5f" transform="translate(1121.5 0)"/>
     <use xlink:href="#DejaVuSans-4b" transform="translate(1171.5 0)"/>
     <use xlink:href="#DejaVuSans-34" transform="translate(1237.076172 0)"/>
     <use xlink:href="#DejaVuSans-3a" transform="translate(1300.699219 0)"/>
     <use xlink:href="#DejaVuSans-20" transform="translate(1334.390625 0)"/>
     <use xlink:href="#DejaVuSans-50" transform="translate(1366.177734 0)"/>
     <use xlink:href="#DejaVuSans-43" transform="translate(1426.480469 0)"/>
     <use xlink:href="#DejaVuSans-41" transform="translate(1496.304688 0)"/>
     <use xlink:href="#DejaVuSans-20" transform="translate(1564.712891 0)"/>
     <use xlink:href="#DejaVuSans-61" transform="translate(1596.5 0)"/>
     <use xlink:href="#DejaVuSans-67" transform="translate(1657.779297 0)"/>
     <use xlink:href="#DejaVuSans-65" transform="translate(1721.255859 0)"/>
     <use xlink:href="#DejaVuSans-2d" transform="translate(1782.779297 0)"/>
     <use xlink:href="#DejaVuSans-61" transform="translate(1818.863281 0)"/>
     <use xlink:href="#DejaVuSans-78" transform="translate(1880.142578 0)"/>
     <use xlink:href="#DejaVuSans-69" transform="translate(1939.322266 0)"/>
     <use xlink:href="#DejaVuSans-73" transform="translate(1967.105469 0)"/>
     <use xlink:href="#DejaVuSans-20" transform="translate(2019.205078 0)"/>
     <use xlink:href="#DejaVuSans-77" transform="translate(2050.992188 0)"/>
     <use xlink:href="#DejaVuSans-65" transform="translate(2132.779297 0)"/>
     <use xlink:href="#DejaVuSans-69" transform="translate(2194.302734 0)"/>
     <use xlink:href="#DejaVuSans-67" transform="translate(2222.085938 0)"/>
     <use xlink:href="#DejaVuSans-68" transform="translate(2285.5625 0)"/>
     <use xlink:href="#DejaVuSans-74" transform="translate(2348.941406 0)"/>
     <use xlink:href="#DejaVuSans-73" transform="translate(2388.150391 0)"/>
     <use xlink:href="#DejaVuSans-20" transform="translate(2440.25 0)"/>
     <use xlink:href="#DejaVuSans-28" transform="translate(2472.037109 0)"/>
     <use xlink:href="#DejaVuSans-74" transform="translate(2511.050781 0)"/>
     <use xlink:href="#DejaVuSans-6f" transform="translate(2550.259766 0)"/>
     <use xlink:href="#DejaVuSans-70" transform="translate(2611.441406 0)"/>
     <use xlink:href="#DejaVuSans-20" transform="translate(2674.917969 0)"/>
     <use xlink:href="#DejaVuSans-7c" transform="translate(2706.705078 0)"/>
     <use xlink:href="#DejaVuSans-77" transform="translate(2740.396484 0)"/>
     <use xlink:href="#DejaVuSans-7c" transform="translate(2822.183594 0)"/>
     <use xlink:href="#DejaVuSans-3b" transform="translate(2855.875 0)"/>
     <use xlink:href="#DejaVuSans-20" transform="translate(2889.566406 0)"/>
     <use xlink:href="#DejaVuSans-66" transform="translate(2921.353516 0)"/>
     <use xlink:href="#DejaVuSans-75" transform="translate(2956.558594 0)"/>
     <use xlink:href="#DejaVuSans-73" transform="translate(3019.9375 0)"/>
     <use xlink:href="#DejaVuSans-65" transform="translate(3072.037109 0)"/>
     <use xlink:href="#DejaVuSans-64" transform="translate(3133.560547 0)"/>
     <use xlink:href="#DejaVuSans-2c" transform="translate(3197.037109 0)"/>
     <use xlink:href="#DejaVuSans-20" transform="translate(3228.824219 0)"/>
     <use xlink:href="#DejaVuSans-4b" transform="translate(3260.611328 0)"/>
     <use xlink:href="#DejaVuSans-3d" transform="translate(3326.1875 0)"/>
     <use xlink:href="#DejaVuSans-34" transform="translate(3409.976562 0)"/>
     <use xlink:href="#DejaVuSans-29" transform="translate(3473.599609 0)"/>
    </g>
   </g>
  </g>
 </g>
 <defs>
  <clipPath id="pe0de7f008a">
   <rect x="246.67" y="26.88" width="318.53" height="543.16"/>
  </clipPath>
 </defs>
</svg>
