<?xml version="1.0" encoding="utf-8" standalone="no"?>
<!DOCTYPE svg PUBLIC "-//W3C//DTD SVG 1.1//EN"
  "http://www.w3.org/Graphics/SVG/1.1/DTD/svg11.dtd">
<svg xmlns:xlink="http://www.w3.org/1999/xlink" width="1116pt" height="302.4pt" viewBox="0 0 1116 302.4" xmlns="http://www.w3.org/2000/svg" version="1.1">
 <metadata>
  <rdf:RDF xmlns:dc="http://purl.org/dc/elements/1.1/" xmlns:cc="http://creativecommons.org/ns#" xmlns:rdf="http://www.w3.org/1999/02/22-rdf-syntax-ns#">
   <cc:Work>
    <dc:type rdf:resource="http://purl.org/dc/dcmitype/StillImage"/>
    <dc:date>2026-05-05T13:01:36.978039</dc:date>
    <dc:format>image/svg+xml</dc:format>
    <dc:creator>
     <cc:Agent>
      <dc:title>Matplotlib v3.10.0, https://matplotlib.org/</dc:title>
     </cc:Agent>
    </dc:creator>
   </cc:Work>
  </rdf:RDF>
 </metadata>
 <defs>
  <style type="text/css">*{stroke-linejoin: round; stroke-linecap: butt}</style>
 </defs>
 <g id="figure_1">
  <g id="patch_1">
   <path d="M 0 302.4 
L 1116 302.4 
L 1116 0 
L 0 0 
z
" style="fill: #ffffff"/>
  </g>
  <g id="axes_1">
   <g id="patch_2">
    <path d="M 54.38 260.44 
L 1105.2 260.44 
L 1105.2 26.88 
L 54.38 26.88 
z
" style="fill: #ffffff"/>
   </g>
   <g id="patch_3">
    <path d="M 102.144545 260.44 
L 106.357938 260.44 
L 106.357938 38.001905 
L 102.144545 38.001905 
z
" clip-path="url(#p2b67b56e89)" style="fill: #1f77b4"/>
   </g>
   <g id="patch_4">
    <path d="M 121.296328 260.44 
L 125.50972 260.44 
L 125.50972 142.600922 
L 121.296328 142.600922 
z
" clip-path="url(#p2b67b56e89)" style="fill: #1f77b4"/>
   </g>
   <g id="patch_5">
    <path d="M 140.44811 260.44 
L 144.661503 260.44 
L 144.661503 110.157268 
L 140.44811 110.157268 
z
" clip-path="url(#p2b67b56e89)" style="fill: #1f77b4"/>
   </g>
   <g id="patch_6">
    <path d="M 159.599893 260.44 
L 163.813285 260.44 
L 163.813285 250.023582 
L 159.599893 250.023582 
z
" clip-path="url(#p2b67b56e89)" style="fill: #1f77b4"/>
   </g>
   <g id="patch_7">
    <path d="M 178.751675 260.44 
L 182.965067 260.44 
L 182.965067 147.245814 
L 178.751675 147.245814 
z
" clip-path="url(#p2b67b56e89)" style="fill: #1f77b4"/>
   </g>
   <g id="patch_8">
    <path d="M 197.903458 260.44 
L 202.11685 260.44 
L 202.11685 228.275887 
L 197.903458 228.275887 
z
" clip-path="url(#p2b67b56e89)" style="fill: #1f77b4"/>
   </g>
   <g id="patch_9">
    <path d="M 217.05524 260.44 
L 221.268632 260.44 
L 221.268632 256.198889 
L 217.05524 256.198889 
z
" clip-path="url(#p2b67b56e89)" style="fill: #1f77b4"/>
   </g>
   <g id="patch_10">
    <path d="M 236.207023 260.44 
L 240.420415 260.44 
L 240.420415 172.963551 
L 236.207023 172.963551 
z
" clip-path="url(#p2b67b56e89)" style="fill: #1f77b4"/>
   </g>
   <g id="patch_11">
    <path d="M 255.358805 260.44 
L 259.572197 260.44 
L 259.572197 137.732962 
L 255.358805 137.732962 
z
" clip-path="url(#p2b67b56e89)" style="fill: #1f77b4"/>
   </g>
   <g id="patch_12">
    <path d="M 274.510588 260.44 
L 278.72398 260.44 
L 278.72398 251.92107 
L 274.510588 251.92107 
z
" clip-path="url(#p2b67b56e89)" style="fill: #1f77b4"/>
   </g>
   <g id="patch_13">
    <path d="M 293.66237 260.44 
L 297.875762 260.44 
L 297.875762 142.550097 
L 293.66237 142.550097 
z
" clip-path="url(#p2b67b56e89)" style="fill: #1f77b4"/>
   </g>
   <g id="patch_14">
    <path d="M 312.814153 260.44 
L 317.027545 260.44 
L 317.027545 230.670336 
L 312.814153 230.670336 
z
" clip-path="url(#p2b67b56e89)" style="fill: #1f77b4"/>
   </g>
   <g id="patch_15">
    <path d="M 331.965935 260.44 
L 336.179327 260.44 
L 336.179327 184.388009 
L 331.965935 184.388009 
z
" clip-path="url(#p2b67b56e89)" style="fill: #1f77b4"/>
   </g>
   <g id="patch_16">
    <path d="M 351.117717 260.44 
L 355.33111 260.44 
L 355.33111 220.160738 
L 351.117717 220.160738 
z
" clip-path="url(#p2b67b56e89)" style="fill: #1f77b4"/>
   </g>
   <g id="patch_17">
    <path d="M 370.2695 260.44 
L 374.482892 260.44 
L 374.482892 258.200851 
L 370.2695 258.200851 
z
" clip-path="url(#p2b67b56e89)" style="fill: #1f77b4"/>
   </g>
   <g id="patch_18">
    <path d="M 389.421282 260.44 
L 393.634674 260.44 
L 393.634674 195.671285 
L 389.421282 195.671285 
z
" clip-path="url(#p2b67b56e89)" style="fill: #1f77b4"/>
   </g>
   <g id="patch_19">
    <path d="M 408.573065 260.44 
L 412.786457 260.44 
L 412.786457 180.076307 
L 408.573065 180.076307 
z
" clip-path="url(#p2b67b56e89)" style="fill: #1f77b4"/>
   </g>
   <g id="patch_20">
    <path d="M 427.724847 260.44 
L 431.938239 260.44 
L 431.938239 208.021898 
L 427.724847 208.021898 
z
" clip-path="url(#p2b67b56e89)" style="fill: #1f77b4"/>
   </g>
   <g id="patch_21">
    <path d="M 446.87663 260.44 
L 451.090022 260.44 
L 451.090022 253.510781 
L 446.87663 253.510781 
z
" clip-path="url(#p2b67b56e89)" style="fill: #1f77b4"/>
   </g>
   <g id="patch_22">
    <path d="M 466.028412 260.44 
L 470.241804 260.44 
L 470.241804 215.097947 
L 466.028412 215.097947 
z
" clip-path="url(#p2b67b56e89)" style="fill: #1f77b4"/>
   </g>
   <g id="patch_23">
    <path d="M 485.180195 260.44 
L 489.393587 260.44 
L 489.393587 231.940975 
L 485.180195 231.940975 
z
" clip-path="url(#p2b67b56e89)" style="fill: #1f77b4"/>
   </g>
   <g id="patch_24">
    <path d="M 504.331977 260.44 
L 508.545369 260.44 
L 508.545369 96.617902 
L 504.331977 96.617902 
z
" clip-path="url(#p2b67b56e89)" style="fill: #1f77b4"/>
   </g>
   <g id="patch_25">
    <path d="M 523.48376 260.44 
L 527.697152 260.44 
L 527.697152 161.022367 
L 523.48376 161.022367 
z
" clip-path="url(#p2b67b56e89)" style="fill: #1f77b4"/>
   </g>
   <g id="patch_26">
    <path d="M 542.635542 260.44 
L 546.848934 260.44 
L 546.848934 139.616332 
L 542.635542 139.616332 
z
" clip-path="url(#p2b67b56e89)" style="fill: #1f77b4"/>
   </g>
   <g id="patch_27">
    <path d="M 561.787324 260.44 
L 566.000717 260.44 
L 566.000717 235.809365 
L 561.787324 235.809365 
z
" clip-path="url(#p2b67b56e89)" style="fill: #1f77b4"/>
   </g>
   <g id="patch_28">
    <path d="M 580.939107 260.44 
L 585.152499 260.44 
L 585.152499 172.850606 
L 580.939107 172.850606 
z
" clip-path="url(#p2b67b56e89)" style="fill: #1f77b4"/>
   </g>
   <g id="patch_29">
    <path d="M 600.090889 260.44 
L 604.304282 260.44 
L 604.304282 257.509059 
L 600.090889 257.509059 
z
" clip-path="url(#p2b67b56e89)" style="fill: #1f77b4"/>
   </g>
   <g id="patch_30">
    <path d="M 619.242672 260.44 
L 623.456064 260.44 
L 623.456064 211.661574 
L 619.242672 211.661574 
z
" clip-path="url(#p2b67b56e89)" style="fill: #1f77b4"/>
   </g>
   <g id="patch_31">
    <path d="M 638.394454 260.44 
L 642.607846 260.44 
L 642.607846 233.671868 
L 638.394454 233.671868 
z
" clip-path="url(#p2b67b56e89)" style="fill: #1f77b4"/>
   </g>
   <g id="patch_32">
    <path d="M 657.546237 260.44 
L 661.759629 260.44 
L 661.759629 173.827586 
L 657.546237 173.827586 
z
" clip-path="url(#p2b67b56e89)" style="fill: #1f77b4"/>
   </g>
   <g id="patch_33">
    <path d="M 676.698019 260.44 
L 680.911411 260.44 
L 680.911411 131.859786 
L 676.698019 131.859786 
z
" clip-path="url(#p2b67b56e89)" style="fill: #1f77b4"/>
   </g>
   <g id="patch_34">
    <path d="M 695.849802 260.44 
L 700.063194 260.44 
L 700.063194 204.241041 
L 695.849802 204.241041 
z
" clip-path="url(#p2b67b56e89)" style="fill: #1f77b4"/>
   </g>
   <g id="patch_35">
    <path d="M 715.001584 260.44 
L 719.214976 260.44 
L 719.214976 244.709487 
L 715.001584 244.709487 
z
" clip-path="url(#p2b67b56e89)" style="fill: #1f77b4"/>
   </g>
   <g id="patch_36">
    <path d="M 734.153367 260.44 
L 738.366759 260.44 
L 738.366759 250.015111 
L 734.153367 250.015111 
z
" clip-path="url(#p2b67b56e89)" style="fill: #1f77b4"/>
   </g>
   <g id="patch_37">
    <path d="M 753.305149 260.44 
L 757.518541 260.44 
L 757.518541 255.08355 
L 753.305149 255.08355 
z
" clip-path="url(#p2b67b56e89)" style="fill: #1f77b4"/>
   </g>
   <g id="patch_38">
    <path d="M 772.456932 260.44 
L 776.670324 260.44 
L 776.670324 148.282091 
L 772.456932 148.282091 
z
" clip-path="url(#p2b67b56e89)" style="fill: #1f77b4"/>
   </g>
   <g id="patch_39">
    <path d="M 791.608714 260.44 
L 795.822106 260.44 
L 795.822106 258.421096 
L 791.608714 258.421096 
z
" clip-path="url(#p2b67b56e89)" style="fill: #1f77b4"/>
   </g>
   <g id="patch_40">
    <path d="M 810.760496 260.44 
L 814.973889 260.44 
L 814.973889 225.048463 
L 810.760496 225.048463 
z
" clip-path="url(#p2b67b56e89)" style="fill: #1f77b4"/>
   </g>
   <g id="patch_41">
    <path d="M 829.912279 260.44 
L 834.125671 260.44 
L 834.125671 208.894404 
L 829.912279 208.894404 
z
" clip-path="url(#p2b67b56e89)" style="fill: #1f77b4"/>
   </g>
   <g id="patch_42">
    <path d="M 849.064061 260.44 
L 853.277454 260.44 
L 853.277454 178.260705 
L 849.064061 178.260705 
z
" clip-path="url(#p2b67b56e89)" style="fill: #1f77b4"/>
   </g>
   <g id="patch_43">
    <path d="M 868.215844 260.44 
L 872.429236 260.44 
L 872.429236 229.269809 
L 868.215844 229.269809 
z
" clip-path="url(#p2b67b56e89)" style="fill: #1f77b4"/>
   </g>
   <g id="patch_44">
    <path d="M 887.367626 260.44 
L 891.581018 260.44 
L 891.581018 232.172514 
L 887.367626 232.172514 
z
" clip-path="url(#p2b67b56e89)" style="fill: #1f77b4"/>
   </g>
   <g id="patch_45">
    <path d="M 906.519409 260.44 
L 910.732801 260.44 
L 910.732801 141.318988 
L 906.519409 141.318988 
z
" clip-path="url(#p2b67b56e89)" style="fill: #1f77b4"/>
   </g>
   <g id="patch_46">
    <path d="M 925.671191 260.44 
L 929.884583 260.44 
L 929.884583 221.329726 
L 925.671191 221.329726 
z
" clip-path="url(#p2b67b56e89)" style="fill: #1f77b4"/>
   </g>
   <g id="patch_47">
    <path d="M 944.822974 260.44 
L 949.036366 260.44 
L 949.036366 197.365471 
L 944.822974 197.365471 
z
" clip-path="url(#p2b67b56e89)" style="fill: #1f77b4"/>
   </g>
   <g id="patch_48">
    <path d="M 963.974756 260.44 
L 968.188148 260.44 
L 968.188148 217.351214 
L 963.974756 217.351214 
z
" clip-path="url(#p2b67b56e89)" style="fill: #1f77b4"/>
   </g>
   <g id="patch_49">
    <path d="M 983.126539 260.44 
L 987.339931 260.44 
L 987.339931 191.625006 
L 983.126539 191.625006 
z
" clip-path="url(#p2b67b56e89)" style="fill: #1f77b4"/>
   </g>
   <g id="patch_50">
    <path d="M 1002.278321 260.44 
L 1006.491713 260.44 
L 1006.491713 182.674058 
L 1002.278321 182.674058 
z
" clip-path="url(#p2b67b56e89)" style="fill: #1f77b4"/>
   </g>
   <g id="patch_51">
    <path d="M 1021.430104 260.44 
L 1025.643496 260.44 
L 1025.643496 196.281192 
L 1021.430104 196.281192 
z
" clip-path="url(#p2b67b56e89)" style="fill: #1f77b4"/>
   </g>
   <g id="patch_52">
    <path d="M 1040.581886 260.44 
L 1044.795278 260.44 
L 1044.795278 234.293069 
L 1040.581886 234.293069 
z
" clip-path="url(#p2b67b56e89)" style="fill: #1f77b4"/>
   </g>
   <g id="patch_53">
    <path d="M 106.357938 260.44 
L 110.57133 260.44 
L 110.57133 38.001905 
L 106.357938 38.001905 
z
" clip-path="url(#p2b67b56e89)" style="fill: #ff7f0e"/>
   </g>
   <g id="patch_54">
    <path d="M 125.50972 260.44 
L 129.723112 260.44 
L 129.723112 142.600922 
L 125.50972 142.600922 
z
" clip-path="url(#p2b67b56e89)" style="fill: #ff7f0e"/>
   </g>
   <g id="patch_55">
    <path d="M 144.661503 260.44 
L 148.874895 260.44 
L 148.874895 110.157268 
L 144.661503 110.157268 
z
" clip-path="url(#p2b67b56e89)" style="fill: #ff7f0e"/>
   </g>
   <g id="patch_56">
    <path d="M 163.813285 260.44 
L 168.026677 260.44 
L 168.026677 250.023582 
L 163.813285 250.023582 
z
" clip-path="url(#p2b67b56e89)" style="fill: #ff7f0e"/>
   </g>
   <g id="patch_57">
    <path d="M 182.965067 260.44 
L 187.17846 260.44 
L 187.17846 147.245814 
L 182.965067 147.245814 
z
" clip-path="url(#p2b67b56e89)" style="fill: #ff7f0e"/>
   </g>
   <g id="patch_58">
    <path d="M 202.11685 260.44 
L 206.330242 260.44 
L 206.330242 228.275887 
L 202.11685 228.275887 
z
" clip-path="url(#p2b67b56e89)" style="fill: #ff7f0e"/>
   </g>
   <g id="patch_59">
    <path d="M 221.268632 260.44 
L 225.482024 260.44 
L 225.482024 256.198889 
L 221.268632 256.198889 
z
" clip-path="url(#p2b67b56e89)" style="fill: #ff7f0e"/>
   </g>
   <g id="patch_60">
    <path d="M 240.420415 260.44 
L 244.633807 260.44 
L 244.633807 172.963551 
L 240.420415 172.963551 
z
" clip-path="url(#p2b67b56e89)" style="fill: #ff7f0e"/>
   </g>
   <g id="patch_61">
    <path d="M 259.572197 260.44 
L 263.785589 260.44 
L 263.785589 137.732962 
L 259.572197 137.732962 
z
" clip-path="url(#p2b67b56e89)" style="fill: #ff7f0e"/>
   </g>
   <g id="patch_62">
    <path d="M 278.72398 260.44 
L 282.937372 260.44 
L 282.937372 251.92107 
L 278.72398 251.92107 
z
" clip-path="url(#p2b67b56e89)" style="fill: #ff7f0e"/>
   </g>
   <g id="patch_63">
    <path d="M 297.875762 260.44 
L 302.089154 260.44 
L 302.089154 142.550097 
L 297.875762 142.550097 
z
" clip-path="url(#p2b67b56e89)" style="fill: #ff7f0e"/>
   </g>
   <g id="patch_64">
    <path d="M 317.027545 260.44 
L 321.240937 260.44 
L 321.240937 230.670336 
L 317.027545 230.670336 
z
" clip-path="url(#p2b67b56e89)" style="fill: #ff7f0e"/>
   </g>
   <g id="patch_65">
    <path d="M 336.179327 260.44 
L 340.392719 260.44 
L 340.392719 184.388009 
L 336.179327 184.388009 
z
" clip-path="url(#p2b67b56e89)" style="fill: #ff7f0e"/>
   </g>
   <g id="patch_66">
    <path d="M 355.33111 260.44 
L 359.544502 260.44 
L 359.544502 220.160738 
L 355.33111 220.160738 
z
" clip-path="url(#p2b67b56e89)" style="fill: #ff7f0e"/>
   </g>
   <g id="patch_67">
    <path d="M 374.482892 260.44 
L 378.696284 260.44 
L 378.696284 258.200851 
L 374.482892 258.200851 
z
" clip-path="url(#p2b67b56e89)" style="fill: #ff7f0e"/>
   </g>
   <g id="patch_68">
    <path d="M 393.634674 260.44 
L 397.848067 260.44 
L 397.848067 195.671285 
L 393.634674 195.671285 
z
" clip-path="url(#p2b67b56e89)" style="fill: #ff7f0e"/>
   </g>
   <g id="patch_69">
    <path d="M 412.786457 260.44 
L 416.999849 260.44 
L 416.999849 180.076307 
L 412.786457 180.076307 
z
" clip-path="url(#p2b67b56e89)" style="fill: #ff7f0e"/>
   </g>
   <g id="patch_70">
    <path d="M 431.938239 260.44 
L 436.151632 260.44 
L 436.151632 208.021898 
L 431.938239 208.021898 
z
" clip-path="url(#p2b67b56e89)" style="fill: #ff7f0e"/>
   </g>
   <g id="patch_71">
    <path d="M 451.090022 260.44 
L 455.303414 260.44 
L 455.303414 253.510781 
L 451.090022 253.510781 
z
" clip-path="url(#p2b67b56e89)" style="fill: #ff7f0e"/>
   </g>
   <g id="patch_72">
    <path d="M 470.241804 260.44 
L 474.455196 260.44 
L 474.455196 215.097947 
L 470.241804 215.097947 
z
" clip-path="url(#p2b67b56e89)" style="fill: #ff7f0e"/>
   </g>
   <g id="patch_73">
    <path d="M 489.393587 260.44 
L 493.606979 260.44 
L 493.606979 231.940975 
L 489.393587 231.940975 
z
" clip-path="url(#p2b67b56e89)" style="fill: #ff7f0e"/>
   </g>
   <g id="patch_74">
    <path d="M 508.545369 260.44 
L 512.758761 260.44 
L 512.758761 96.617902 
L 508.545369 96.617902 
z
" clip-path="url(#p2b67b56e89)" style="fill: #ff7f0e"/>
   </g>
   <g id="patch_75">
    <path d="M 527.697152 260.44 
L 531.910544 260.44 
L 531.910544 161.022367 
L 527.697152 161.022367 
z
" clip-path="url(#p2b67b56e89)" style="fill: #ff7f0e"/>
   </g>
   <g id="patch_76">
    <path d="M 546.848934 260.44 
L 551.062326 260.44 
L 551.062326 139.616332 
L 546.848934 139.616332 
z
" clip-path="url(#p2b67b56e89)" style="fill: #ff7f0e"/>
   </g>
   <g id="patch_77">
    <path d="M 566.000717 260.44 
L 570.214109 260.44 
L 570.214109 235.809365 
L 566.000717 235.809365 
z
" clip-path="url(#p2b67b56e89)" style="fill: #ff7f0e"/>
   </g>
   <g id="patch_78">
    <path d="M 585.152499 260.44 
L 589.365891 260.44 
L 589.365891 172.850606 
L 585.152499 172.850606 
z
" clip-path="url(#p2b67b56e89)" style="fill: #ff7f0e"/>
   </g>
   <g id="patch_79">
    <path d="M 604.304282 260.44 
L 608.517674 260.44 
L 608.517674 257.509059 
L 604.304282 257.509059 
z
" clip-path="url(#p2b67b56e89)" style="fill: #ff7f0e"/>
   </g>
   <g id="patch_80">
    <path d="M 623.456064 260.44 
L 627.669456 260.44 
L 627.669456 211.661574 
L 623.456064 211.661574 
z
" clip-path="url(#p2b67b56e89)" style="fill: #ff7f0e"/>
   </g>
   <g id="patch_81">
    <path d="M 642.607846 260.44 
L 646.821239 260.44 
L 646.821239 233.671868 
L 642.607846 233.671868 
z
" clip-path="url(#p2b67b56e89)" style="fill: #ff7f0e"/>
   </g>
   <g id="patch_82">
    <path d="M 661.759629 260.44 
L 665.973021 260.44 
L 665.973021 173.827586 
L 661.759629 173.827586 
z
" clip-path="url(#p2b67b56e89)" style="fill: #ff7f0e"/>
   </g>
   <g id="patch_83">
    <path d="M 680.911411 260.44 
L 685.124804 260.44 
L 685.124804 131.859786 
L 680.911411 131.859786 
z
" clip-path="url(#p2b67b56e89)" style="fill: #ff7f0e"/>
   </g>
   <g id="patch_84">
    <path d="M 700.063194 260.44 
L 704.276586 260.44 
L 704.276586 204.241041 
L 700.063194 204.241041 
z
" clip-path="url(#p2b67b56e89)" style="fill: #ff7f0e"/>
   </g>
   <g id="patch_85">
    <path d="M 719.214976 260.44 
L 723.428368 260.44 
L 723.428368 244.709487 
L 719.214976 244.709487 
z
" clip-path="url(#p2b67b56e89)" style="fill: #ff7f0e"/>
   </g>
   <g id="patch_86">
    <path d="M 738.366759 260.44 
L 742.580151 260.44 
L 742.580151 250.015111 
L 738.366759 250.015111 
z
" clip-path="url(#p2b67b56e89)" style="fill: #ff7f0e"/>
   </g>
   <g id="patch_87">
    <path d="M 757.518541 260.44 
L 761.731933 260.44 
L 761.731933 255.08355 
L 757.518541 255.08355 
z
" clip-path="url(#p2b67b56e89)" style="fill: #ff7f0e"/>
   </g>
   <g id="patch_88">
    <path d="M 776.670324 260.44 
L 780.883716 260.44 
L 780.883716 148.282091 
L 776.670324 148.282091 
z
" clip-path="url(#p2b67b56e89)" style="fill: #ff7f0e"/>
   </g>
   <g id="patch_89">
    <path d="M 795.822106 260.44 
L 800.035498 260.44 
L 800.035498 258.421096 
L 795.822106 258.421096 
z
" clip-path="url(#p2b67b56e89)" style="fill: #ff7f0e"/>
   </g>
   <g id="patch_90">
    <path d="M 814.973889 260.44 
L 819.187281 260.44 
L 819.187281 225.048463 
L 814.973889 225.048463 
z
" clip-path="url(#p2b67b56e89)" style="fill: #ff7f0e"/>
   </g>
   <g id="patch_91">
    <path d="M 834.125671 260.44 
L 838.339063 260.44 
L 838.339063 208.894404 
L 834.125671 208.894404 
z
" clip-path="url(#p2b67b56e89)" style="fill: #ff7f0e"/>
   </g>
   <g id="patch_92">
    <path d="M 853.277454 260.44 
L 857.490846 260.44 
L 857.490846 178.260705 
L 853.277454 178.260705 
z
" clip-path="url(#p2b67b56e89)" style="fill: #ff7f0e"/>
   </g>
   <g id="patch_93">
    <path d="M 872.429236 260.44 
L 876.642628 260.44 
L 876.642628 229.269809 
L 872.429236 229.269809 
z
" clip-path="url(#p2b67b56e89)" style="fill: #ff7f0e"/>
   </g>
   <g id="patch_94">
    <path d="M 891.581018 260.44 
L 895.794411 260.44 
L 895.794411 232.172514 
L 891.581018 232.172514 
z
" clip-path="url(#p2b67b56e89)" style="fill: #ff7f0e"/>
   </g>
   <g id="patch_95">
    <path d="M 910.732801 260.44 
L 914.946193 260.44 
L 914.946193 141.318988 
L 910.732801 141.318988 
z
" clip-path="url(#p2b67b56e89)" style="fill: #ff7f0e"/>
   </g>
   <g id="patch_96">
    <path d="M 929.884583 260.44 
L 934.097976 260.44 
L 934.097976 221.329726 
L 929.884583 221.329726 
z
" clip-path="url(#p2b67b56e89)" style="fill: #ff7f0e"/>
   </g>
   <g id="patch_97">
    <path d="M 949.036366 260.44 
L 953.249758 260.44 
L 953.249758 197.365471 
L 949.036366 197.365471 
z
" clip-path="url(#p2b67b56e89)" style="fill: #ff7f0e"/>
   </g>
   <g id="patch_98">
    <path d="M 968.188148 260.44 
L 972.40154 260.44 
L 972.40154 217.351214 
L 968.188148 217.351214 
z
" clip-path="url(#p2b67b56e89)" style="fill: #ff7f0e"/>
   </g>
   <g id="patch_99">
    <path d="M 987.339931 260.44 
L 991.553323 260.44 
L 991.553323 191.625006 
L 987.339931 191.625006 
z
" clip-path="url(#p2b67b56e89)" style="fill: #ff7f0e"/>
   </g>
   <g id="patch_100">
    <path d="M 1006.491713 260.44 
L 1010.705105 260.44 
L 1010.705105 182.674058 
L 1006.491713 182.674058 
z
" clip-path="url(#p2b67b56e89)" style="fill: #ff7f0e"/>
   </g>
   <g id="patch_101">
    <path d="M 1025.643496 260.44 
L 1029.856888 260.44 
L 1029.856888 196.281192 
L 1025.643496 196.281192 
z
" clip-path="url(#p2b67b56e89)" style="fill: #ff7f0e"/>
   </g>
   <g id="patch_102">
    <path d="M 1044.795278 260.44 
L 1049.00867 260.44 
L 1049.00867 234.293069 
L 1044.795278 234.293069 
z
" clip-path="url(#p2b67b56e89)" style="fill: #ff7f0e"/>
   </g>
   <g id="patch_103">
    <path d="M 110.57133 260.44 
L 114.784722 260.44 
L 114.784722 55.175841 
L 110.57133 55.175841 
z
" clip-path="url(#p2b67b56e89)" style="fill: #2ca02c"/>
   </g>
   <g id="patch_104">
    <path d="M 129.723112 260.44 
L 133.936504 260.44 
L 133.936504 141.791788 
L 129.723112 141.791788 
z
" clip-path="url(#p2b67b56e89)" style="fill: #2ca02c"/>
   </g>
   <g id="patch_105">
    <path d="M 148.874895 260.44 
L 153.088287 260.44 
L 153.088287 130.053845 
L 148.874895 130.053845 
z
" clip-path="url(#p2b67b56e89)" style="fill: #2ca02c"/>
   </g>
   <g id="patch_106">
    <path d="M 168.026677 260.44 
L 172.240069 260.44 
L 172.240069 258.296872 
L 168.026677 258.296872 
z
" clip-path="url(#p2b67b56e89)" style="fill: #2ca02c"/>
   </g>
   <g id="patch_107">
    <path d="M 187.17846 260.44 
L 191.391852 260.44 
L 191.391852 126.171292 
L 187.17846 126.171292 
z
" clip-path="url(#p2b67b56e89)" style="fill: #2ca02c"/>
   </g>
   <g id="patch_108">
    <path d="M 206.330242 260.44 
L 210.543634 260.44 
L 210.543634 216.028537 
L 206.330242 216.028537 
z
" clip-path="url(#p2b67b56e89)" style="fill: #2ca02c"/>
   </g>
   <g id="patch_109">
    <path d="M 225.482024 260.44 
L 229.695417 260.44 
L 229.695417 258.205901 
L 225.482024 258.205901 
z
" clip-path="url(#p2b67b56e89)" style="fill: #2ca02c"/>
   </g>
   <g id="patch_110">
    <path d="M 244.633807 260.44 
L 248.847199 260.44 
L 248.847199 130.244369 
L 244.633807 130.244369 
z
" clip-path="url(#p2b67b56e89)" style="fill: #2ca02c"/>
   </g>
   <g id="patch_111">
    <path d="M 263.785589 260.44 
L 267.998982 260.44 
L 267.998982 166.353142 
L 263.785589 166.353142 
z
" clip-path="url(#p2b67b56e89)" style="fill: #2ca02c"/>
   </g>
   <g id="patch_112">
    <path d="M 282.937372 260.44 
L 287.150764 260.44 
L 287.150764 248.108174 
L 282.937372 248.108174 
z
" clip-path="url(#p2b67b56e89)" style="fill: #2ca02c"/>
   </g>
   <g id="patch_113">
    <path d="M 302.089154 260.44 
L 306.302546 260.44 
L 306.302546 144.190664 
L 302.089154 144.190664 
z
" clip-path="url(#p2b67b56e89)" style="fill: #2ca02c"/>
   </g>
   <g id="patch_114">
    <path d="M 321.240937 260.44 
L 325.454329 260.44 
L 325.454329 182.141847 
L 321.240937 182.141847 
z
" clip-path="url(#p2b67b56e89)" style="fill: #2ca02c"/>
   </g>
   <g id="patch_115">
    <path d="M 340.392719 260.44 
L 344.606111 260.44 
L 344.606111 168.466061 
L 340.392719 168.466061 
z
" clip-path="url(#p2b67b56e89)" style="fill: #2ca02c"/>
   </g>
   <g id="patch_116">
    <path d="M 359.544502 260.44 
L 363.757894 260.44 
L 363.757894 195.093646 
L 359.544502 195.093646 
z
" clip-path="url(#p2b67b56e89)" style="fill: #2ca02c"/>
   </g>
   <g id="patch_117">
    <path d="M 378.696284 260.44 
L 382.909676 260.44 
L 382.909676 237.93664 
L 378.696284 237.93664 
z
" clip-path="url(#p2b67b56e89)" style="fill: #2ca02c"/>
   </g>
   <g id="patch_118">
    <path d="M 397.848067 260.44 
L 402.061459 260.44 
L 402.061459 246.921438 
L 397.848067 246.921438 
z
" clip-path="url(#p2b67b56e89)" style="fill: #2ca02c"/>
   </g>
   <g id="patch_119">
    <path d="M 416.999849 260.44 
L 421.213241 260.44 
L 421.213241 147.630722 
L 416.999849 147.630722 
z
" clip-path="url(#p2b67b56e89)" style="fill: #2ca02c"/>
   </g>
   <g id="patch_120">
    <path d="M 436.151632 260.44 
L 440.365024 260.44 
L 440.365024 228.70811 
L 436.151632 228.70811 
z
" clip-path="url(#p2b67b56e89)" style="fill: #2ca02c"/>
   </g>
   <g id="patch_121">
    <path d="M 455.303414 260.44 
L 459.516806 260.44 
L 459.516806 252.848253 
L 455.303414 252.848253 
z
" clip-path="url(#p2b67b56e89)" style="fill: #2ca02c"/>
   </g>
   <g id="patch_122">
    <path d="M 474.455196 260.44 
L 478.668589 260.44 
L 478.668589 221.44729 
L 474.455196 221.44729 
z
" clip-path="url(#p2b67b56e89)" style="fill: #2ca02c"/>
   </g>
   <g id="patch_123">
    <path d="M 493.606979 260.44 
L 497.820371 260.44 
L 497.820371 249.751822 
L 493.606979 249.751822 
z
" clip-path="url(#p2b67b56e89)" style="fill: #2ca02c"/>
   </g>
   <g id="patch_124">
    <path d="M 512.758761 260.44 
L 516.972154 260.44 
L 516.972154 125.567797 
L 512.758761 125.567797 
z
" clip-path="url(#p2b67b56e89)" style="fill: #2ca02c"/>
   </g>
   <g id="patch_125">
    <path d="M 531.910544 260.44 
L 536.123936 260.44 
L 536.123936 197.739343 
L 531.910544 197.739343 
z
" clip-path="url(#p2b67b56e89)" style="fill: #2ca02c"/>
   </g>
   <g id="patch_126">
    <path d="M 551.062326 260.44 
L 555.275718 260.44 
L 555.275718 139.130643 
L 551.062326 139.130643 
z
" clip-path="url(#p2b67b56e89)" style="fill: #2ca02c"/>
   </g>
   <g id="patch_127">
    <path d="M 570.214109 260.44 
L 574.427501 260.44 
L 574.427501 242.469718 
L 570.214109 242.469718 
z
" clip-path="url(#p2b67b56e89)" style="fill: #2ca02c"/>
   </g>
   <g id="patch_128">
    <path d="M 589.365891 260.44 
L 593.579283 260.44 
L 593.579283 190.14176 
L 589.365891 190.14176 
z
" clip-path="url(#p2b67b56e89)" style="fill: #2ca02c"/>
   </g>
   <g id="patch_129">
    <path d="M 608.517674 260.44 
L 612.731066 260.44 
L 612.731066 258.64153 
L 608.517674 258.64153 
z
" clip-path="url(#p2b67b56e89)" style="fill: #2ca02c"/>
   </g>
   <g id="patch_130">
    <path d="M 627.669456 260.44 
L 631.882848 260.44 
L 631.882848 177.728232 
L 627.669456 177.728232 
z
" clip-path="url(#p2b67b56e89)" style="fill: #2ca02c"/>
   </g>
   <g id="patch_131">
    <path d="M 646.821239 260.44 
L 651.034631 260.44 
L 651.034631 223.752449 
L 646.821239 223.752449 
z
" clip-path="url(#p2b67b56e89)" style="fill: #2ca02c"/>
   </g>
   <g id="patch_132">
    <path d="M 665.973021 260.44 
L 670.186413 260.44 
L 670.186413 156.939581 
L 665.973021 156.939581 
z
" clip-path="url(#p2b67b56e89)" style="fill: #2ca02c"/>
   </g>
   <g id="patch_133">
    <path d="M 685.124804 260.44 
L 689.338196 260.44 
L 689.338196 132.412556 
L 685.124804 132.412556 
z
" clip-path="url(#p2b67b56e89)" style="fill: #2ca02c"/>
   </g>
   <g id="patch_134">
    <path d="M 704.276586 260.44 
L 708.489978 260.44 
L 708.489978 250.837633 
L 704.276586 250.837633 
z
" clip-path="url(#p2b67b56e89)" style="fill: #2ca02c"/>
   </g>
   <g id="patch_135">
    <path d="M 723.428368 260.44 
L 727.641761 260.44 
L 727.641761 236.902323 
L 723.428368 236.902323 
z
" clip-path="url(#p2b67b56e89)" style="fill: #2ca02c"/>
   </g>
   <g id="patch_136">
    <path d="M 742.580151 260.44 
L 746.793543 260.44 
L 746.793543 259.189756 
L 742.580151 259.189756 
z
" clip-path="url(#p2b67b56e89)" style="fill: #2ca02c"/>
   </g>
   <g id="patch_137">
    <path d="M 761.731933 260.44 
L 765.945326 260.44 
L 765.945326 257.970408 
L 761.731933 257.970408 
z
" clip-path="url(#p2b67b56e89)" style="fill: #2ca02c"/>
   </g>
   <g id="patch_138">
    <path d="M 780.883716 260.44 
L 785.097108 260.44 
L 785.097108 119.840774 
L 780.883716 119.840774 
z
" clip-path="url(#p2b67b56e89)" style="fill: #2ca02c"/>
   </g>
   <g id="patch_139">
    <path d="M 800.035498 260.44 
L 804.24889 260.44 
L 804.24889 234.380208 
L 800.035498 234.380208 
z
" clip-path="url(#p2b67b56e89)" style="fill: #2ca02c"/>
   </g>
   <g id="patch_140">
    <path d="M 819.187281 260.44 
L 823.400673 260.44 
L 823.400673 243.124019 
L 819.187281 243.124019 
z
" clip-path="url(#p2b67b56e89)" style="fill: #2ca02c"/>
   </g>
   <g id="patch_141">
    <path d="M 838.339063 260.44 
L 842.552455 260.44 
L 842.552455 206.989157 
L 838.339063 206.989157 
z
" clip-path="url(#p2b67b56e89)" style="fill: #2ca02c"/>
   </g>
   <g id="patch_142">
    <path d="M 857.490846 260.44 
L 861.704238 260.44 
L 861.704238 193.731834 
L 857.490846 193.731834 
z
" clip-path="url(#p2b67b56e89)" style="fill: #2ca02c"/>
   </g>
   <g id="patch_143">
    <path d="M 876.642628 260.44 
L 880.85602 260.44 
L 880.85602 230.556013 
L 876.642628 230.556013 
z
" clip-path="url(#p2b67b56e89)" style="fill: #2ca02c"/>
   </g>
   <g id="patch_144">
    <path d="M 895.794411 260.44 
L 900.007803 260.44 
L 900.007803 234.391536 
L 895.794411 234.391536 
z
" clip-path="url(#p2b67b56e89)" style="fill: #2ca02c"/>
   </g>
   <g id="patch_145">
    <path d="M 914.946193 260.44 
L 919.159585 260.44 
L 919.159585 193.822805 
L 914.946193 193.822805 
z
" clip-path="url(#p2b67b56e89)" style="fill: #2ca02c"/>
   </g>
   <g id="patch_146">
    <path d="M 934.097976 260.44 
L 938.311368 260.44 
L 938.311368 236.970636 
L 934.097976 236.970636 
z
" clip-path="url(#p2b67b56e89)" style="fill: #2ca02c"/>
   </g>
   <g id="patch_147">
    <path d="M 953.249758 260.44 
L 957.46315 260.44 
L 957.46315 186.774821 
L 953.249758 186.774821 
z
" clip-path="url(#p2b67b56e89)" style="fill: #2ca02c"/>
   </g>
   <g id="patch_148">
    <path d="M 972.40154 260.44 
L 976.614933 260.44 
L 976.614933 256.189789 
L 972.40154 256.189789 
z
" clip-path="url(#p2b67b56e89)" style="fill: #2ca02c"/>
   </g>
   <g id="patch_149">
    <path d="M 991.553323 260.44 
L 995.766715 260.44 
L 995.766715 198.292375 
L 991.553323 198.292375 
z
" clip-path="url(#p2b67b56e89)" style="fill: #2ca02c"/>
   </g>
   <g id="patch_150">
    <path d="M 1010.705105 260.44 
L 1014.918497 260.44 
L 1014.918497 169.471542 
L 1010.705105 169.471542 
z
" clip-path="url(#p2b67b56e89)" style="fill: #2ca02c"/>
   </g>
   <g id="patch_151">
    <path d="M 1029.856888 260.44 
L 1034.07028 260.44 
L 1034.07028 213.376317 
L 1029.856888 213.376317 
z
" clip-path="url(#p2b67b56e89)" style="fill: #2ca02c"/>
   </g>
   <g id="patch_152">
    <path d="M 1049.00867 260.44 
L 1053.222062 260.44 
L 1053.222062 254.21384 
L 1049.00867 254.21384 
z
" clip-path="url(#p2b67b56e89)" style="fill: #2ca02c"/>
   </g>
   <g id="patch_153">
    <path d="M 114.784722 260.44 
L 118.998114 260.44 
L 118.998114 55.175841 
L 114.784722 55.175841 
z
" clip-path="url(#p2b67b56e89)" style="fill: #d62728"/>
   </g>
   <g id="patch_154">
    <path d="M 133.936504 260.44 
L 138.149896 260.44 
L 138.149896 141.791788 
L 133.936504 141.791788 
z
" clip-path="url(#p2b67b56e89)" style="fill: #d62728"/>
   </g>
   <g id="patch_155">
    <path d="M 153.088287 260.44 
L 157.301679 260.44 
L 157.301679 130.053845 
L 153.088287 130.053845 
z
" clip-path="url(#p2b67b56e89)" style="fill: #d62728"/>
   </g>
   <g id="patch_156">
    <path d="M 172.240069 260.44 
L 176.453461 260.44 
L 176.453461 258.296872 
L 172.240069 258.296872 
z
" clip-path="url(#p2b67b56e89)" style="fill: #d62728"/>
   </g>
   <g id="patch_157">
    <path d="M 191.391852 260.44 
L 195.605244 260.44 
L 195.605244 126.171292 
L 191.391852 126.171292 
z
" clip-path="url(#p2b67b56e89)" style="fill: #d62728"/>
   </g>
   <g id="patch_158">
    <path d="M 210.543634 260.44 
L 214.757026 260.44 
L 214.757026 216.028537 
L 210.543634 216.028537 
z
" clip-path="url(#p2b67b56e89)" style="fill: #d62728"/>
   </g>
   <g id="patch_159">
    <path d="M 229.695417 260.44 
L 233.908809 260.44 
L 233.908809 258.205901 
L 229.695417 258.205901 
z
" clip-path="url(#p2b67b56e89)" style="fill: #d62728"/>
   </g>
   <g id="patch_160">
    <path d="M 248.847199 260.44 
L 253.060591 260.44 
L 253.060591 130.244369 
L 248.847199 130.244369 
z
" clip-path="url(#p2b67b56e89)" style="fill: #d62728"/>
   </g>
   <g id="patch_161">
    <path d="M 267.998982 260.44 
L 272.212374 260.44 
L 272.212374 166.353142 
L 267.998982 166.353142 
z
" clip-path="url(#p2b67b56e89)" style="fill: #d62728"/>
   </g>
   <g id="patch_162">
    <path d="M 287.150764 260.44 
L 291.364156 260.44 
L 291.364156 248.108174 
L 287.150764 248.108174 
z
" clip-path="url(#p2b67b56e89)" style="fill: #d62728"/>
   </g>
   <g id="patch_163">
    <path d="M 306.302546 260.44 
L 310.515939 260.44 
L 310.515939 144.190664 
L 306.302546 144.190664 
z
" clip-path="url(#p2b67b56e89)" style="fill: #d62728"/>
   </g>
   <g id="patch_164">
    <path d="M 325.454329 260.44 
L 329.667721 260.44 
L 329.667721 182.141847 
L 325.454329 182.141847 
z
" clip-path="url(#p2b67b56e89)" style="fill: #d62728"/>
   </g>
   <g id="patch_165">
    <path d="M 344.606111 260.44 
L 348.819504 260.44 
L 348.819504 168.466061 
L 344.606111 168.466061 
z
" clip-path="url(#p2b67b56e89)" style="fill: #d62728"/>
   </g>
   <g id="patch_166">
    <path d="M 363.757894 260.44 
L 367.971286 260.44 
L 367.971286 195.093646 
L 363.757894 195.093646 
z
" clip-path="url(#p2b67b56e89)" style="fill: #d62728"/>
   </g>
   <g id="patch_167">
    <path d="M 382.909676 260.44 
L 387.123068 260.44 
L 387.123068 237.93664 
L 382.909676 237.93664 
z
" clip-path="url(#p2b67b56e89)" style="fill: #d62728"/>
   </g>
   <g id="patch_168">
    <path d="M 402.061459 260.44 
L 406.274851 260.44 
L 406.274851 246.921438 
L 402.061459 246.921438 
z
" clip-path="url(#p2b67b56e89)" style="fill: #d62728"/>
   </g>
   <g id="patch_169">
    <path d="M 421.213241 260.44 
L 425.426633 260.44 
L 425.426633 147.630722 
L 421.213241 147.630722 
z
" clip-path="url(#p2b67b56e89)" style="fill: #d62728"/>
   </g>
   <g id="patch_170">
    <path d="M 440.365024 260.44 
L 444.578416 260.44 
L 444.578416 228.70811 
L 440.365024 228.70811 
z
" clip-path="url(#p2b67b56e89)" style="fill: #d62728"/>
   </g>
   <g id="patch_171">
    <path d="M 459.516806 260.44 
L 463.730198 260.44 
L 463.730198 252.848253 
L 459.516806 252.848253 
z
" clip-path="url(#p2b67b56e89)" style="fill: #d62728"/>
   </g>
   <g id="patch_172">
    <path d="M 478.668589 260.44 
L 482.881981 260.44 
L 482.881981 221.44729 
L 478.668589 221.44729 
z
" clip-path="url(#p2b67b56e89)" style="fill: #d62728"/>
   </g>
   <g id="patch_173">
    <path d="M 497.820371 260.44 
L 502.033763 260.44 
L 502.033763 249.751822 
L 497.820371 249.751822 
z
" clip-path="url(#p2b67b56e89)" style="fill: #d62728"/>
   </g>
   <g id="patch_174">
    <path d="M 516.972154 260.44 
L 521.185546 260.44 
L 521.185546 125.567797 
L 516.972154 125.567797 
z
" clip-path="url(#p2b67b56e89)" style="fill: #d62728"/>
   </g>
   <g id="patch_175">
    <path d="M 536.123936 260.44 
L 540.337328 260.44 
L 540.337328 197.739343 
L 536.123936 197.739343 
z
" clip-path="url(#p2b67b56e89)" style="fill: #d62728"/>
   </g>
   <g id="patch_176">
    <path d="M 555.275718 260.44 
L 559.489111 260.44 
L 559.489111 139.130643 
L 555.275718 139.130643 
z
" clip-path="url(#p2b67b56e89)" style="fill: #d62728"/>
   </g>
   <g id="patch_177">
    <path d="M 574.427501 260.44 
L 578.640893 260.44 
L 578.640893 242.469718 
L 574.427501 242.469718 
z
" clip-path="url(#p2b67b56e89)" style="fill: #d62728"/>
   </g>
   <g id="patch_178">
    <path d="M 593.579283 260.44 
L 597.792676 260.44 
L 597.792676 190.14176 
L 593.579283 190.14176 
z
" clip-path="url(#p2b67b56e89)" style="fill: #d62728"/>
   </g>
   <g id="patch_179">
    <path d="M 612.731066 260.44 
L 616.944458 260.44 
L 616.944458 258.64153 
L 612.731066 258.64153 
z
" clip-path="url(#p2b67b56e89)" style="fill: #d62728"/>
   </g>
   <g id="patch_180">
    <path d="M 631.882848 260.44 
L 636.09624 260.44 
L 636.09624 177.728232 
L 631.882848 177.728232 
z
" clip-path="url(#p2b67b56e89)" style="fill: #d62728"/>
   </g>
   <g id="patch_181">
    <path d="M 651.034631 260.44 
L 655.248023 260.44 
L 655.248023 223.752449 
L 651.034631 223.752449 
z
" clip-path="url(#p2b67b56e89)" style="fill: #d62728"/>
   </g>
   <g id="patch_182">
    <path d="M 670.186413 260.44 
L 674.399805 260.44 
L 674.399805 156.939581 
L 670.186413 156.939581 
z
" clip-path="url(#p2b67b56e89)" style="fill: #d62728"/>
   </g>
   <g id="patch_183">
    <path d="M 689.338196 260.44 
L 693.551588 260.44 
L 693.551588 132.412556 
L 689.338196 132.412556 
z
" clip-path="url(#p2b67b56e89)" style="fill: #d62728"/>
   </g>
   <g id="patch_184">
    <path d="M 708.489978 260.44 
L 712.70337 260.44 
L 712.70337 250.837633 
L 708.489978 250.837633 
z
" clip-path="url(#p2b67b56e89)" style="fill: #d62728"/>
   </g>
   <g id="patch_185">
    <path d="M 727.641761 260.44 
L 731.855153 260.44 
L 731.855153 236.902323 
L 727.641761 236.902323 
z
" clip-path="url(#p2b67b56e89)" style="fill: #d62728"/>
   </g>
   <g id="patch_186">
    <path d="M 746.793543 260.44 
L 751.006935 260.44 
L 751.006935 259.189756 
L 746.793543 259.189756 
z
" clip-path="url(#p2b67b56e89)" style="fill: #d62728"/>
   </g>
   <g id="patch_187">
    <path d="M 765.945326 260.44 
L 770.158718 260.44 
L 770.158718 257.970408 
L 765.945326 257.970408 
z
" clip-path="url(#p2b67b56e89)" style="fill: #d62728"/>
   </g>
   <g id="patch_188">
    <path d="M 785.097108 260.44 
L 789.3105 260.44 
L 789.3105 119.840774 
L 785.097108 119.840774 
z
" clip-path="url(#p2b67b56e89)" style="fill: #d62728"/>
   </g>
   <g id="patch_189">
    <path d="M 804.24889 260.44 
L 808.462283 260.44 
L 808.462283 234.380208 
L 804.24889 234.380208 
z
" clip-path="url(#p2b67b56e89)" style="fill: #d62728"/>
   </g>
   <g id="patch_190">
    <path d="M 823.400673 260.44 
L 827.614065 260.44 
L 827.614065 243.124019 
L 823.400673 243.124019 
z
" clip-path="url(#p2b67b56e89)" style="fill: #d62728"/>
   </g>
   <g id="patch_191">
    <path d="M 842.552455 260.44 
L 846.765847 260.44 
L 846.765847 206.989157 
L 842.552455 206.989157 
z
" clip-path="url(#p2b67b56e89)" style="fill: #d62728"/>
   </g>
   <g id="patch_192">
    <path d="M 861.704238 260.44 
L 865.91763 260.44 
L 865.91763 193.731834 
L 861.704238 193.731834 
z
" clip-path="url(#p2b67b56e89)" style="fill: #d62728"/>
   </g>
   <g id="patch_193">
    <path d="M 880.85602 260.44 
L 885.069412 260.44 
L 885.069412 230.556013 
L 880.85602 230.556013 
z
" clip-path="url(#p2b67b56e89)" style="fill: #d62728"/>
   </g>
   <g id="patch_194">
    <path d="M 900.007803 260.44 
L 904.221195 260.44 
L 904.221195 234.391536 
L 900.007803 234.391536 
z
" clip-path="url(#p2b67b56e89)" style="fill: #d62728"/>
   </g>
   <g id="patch_195">
    <path d="M 919.159585 260.44 
L 923.372977 260.44 
L 923.372977 193.822805 
L 919.159585 193.822805 
z
" clip-path="url(#p2b67b56e89)" style="fill: #d62728"/>
   </g>
   <g id="patch_196">
    <path d="M 938.311368 260.44 
L 942.52476 260.44 
L 942.52476 236.970636 
L 938.311368 236.970636 
z
" clip-path="url(#p2b67b56e89)" style="fill: #d62728"/>
   </g>
   <g id="patch_197">
    <path d="M 957.46315 260.44 
L 961.676542 260.44 
L 961.676542 186.774821 
L 957.46315 186.774821 
z
" clip-path="url(#p2b67b56e89)" style="fill: #d62728"/>
   </g>
   <g id="patch_198">
    <path d="M 976.614933 260.44 
L 980.828325 260.44 
L 980.828325 256.189789 
L 976.614933 256.189789 
z
" clip-path="url(#p2b67b56e89)" style="fill: #d62728"/>
   </g>
   <g id="patch_199">
    <path d="M 995.766715 260.44 
L 999.980107 260.44 
L 999.980107 198.292375 
L 995.766715 198.292375 
z
" clip-path="url(#p2b67b56e89)" style="fill: #d62728"/>
   </g>
   <g id="patch_200">
    <path d="M 1014.918497 260.44 
L 1019.13189 260.44 
L 1019.13189 169.471542 
L 1014.918497 169.471542 
z
" clip-path="url(#p2b67b56e89)" style="fill: #d62728"/>
   </g>
   <g id="patch_201">
    <path d="M 1034.07028 260.44 
L 1038.283672 260.44 
L 1038.283672 213.376317 
L 1034.07028 213.376317 
z
" clip-path="url(#p2b67b56e89)" style="fill: #d62728"/>
   </g>
   <g id="patch_202">
    <path d="M 1053.222062 260.44 
L 1057.435455 260.44 
L 1057.435455 254.21384 
L 1053.222062 254.21384 
z
" clip-path="url(#p2b67b56e89)" style="fill: #d62728"/>
   </g>
   <g id="matplotlib.axis_1">
    <g id="xtick_1">
     <g id="line2d_1">
      <defs>
       <path id="m860cc3a1c6" d="M 0 0 
L 0 3.5 
" style="stroke: #000000; stroke-width: 0.8"/>
      </defs>
      <g>
       <use xlink:href="#m860cc3a1c6" x="110.57133" y="260.44" style="stroke: #000000; stroke-width: 0.8"/>
      </g>
     </g>
     <g id="text_1">
      <!-- 0 -->
      <g transform="translate(107.39008 275.038438) scale(0.1 -0.1)">
       <defs>
        <path id="DejaVuSans-30" d="M 2034 4250 
Q 1547 4250 1301 3770 
Q 1056 3291 1056 2328 
Q 1056 1369 1301 889 
Q 1547 409 2034 409 
Q 2525 409 2770 889 
Q 3016 1369 3016 2328 
Q 3016 3291 2770 3770 
Q 2525 4250 2034 4250 
z
M 2034 4750 
Q 2819 4750 3233 4129 
Q 3647 3509 3647 2328 
Q 3647 1150 3233 529 
Q 2819 -91 2034 -91 
Q 1250 -91 836 529 
Q 422 1150 422 2328 
Q 422 3509 836 4129 
Q 1250 4750 2034 4750 
z
" transform="scale(0.015625)"/>
       </defs>
       <use xlink:href="#DejaVuSans-30"/>
      </g>
     </g>
    </g>
    <g id="xtick_2">
     <g id="line2d_2">
      <g>
       <use xlink:href="#m860cc3a1c6" x="302.089154" y="260.44" style="stroke: #000000; stroke-width: 0.8"/>
      </g>
     </g>
     <g id="text_2">
      <!-- 10 -->
      <g transform="translate(295.726654 275.038438) scale(0.1 -0.1)">
       <defs>
        <path id="DejaVuSans-31" d="M 794 531 
L 1825 531 
L 1825 4091 
L 703 3866 
L 703 4441 
L 1819 4666 
L 2450 4666 
L 2450 531 
L 3481 531 
L 3481 0 
L 794 0 
L 794 531 
z
" transform="scale(0.015625)"/>
       </defs>
       <use xlink:href="#DejaVuSans-31"/>
       <use xlink:href="#DejaVuSans-30" transform="translate(63.623047 0)"/>
      </g>
     </g>
    </g>
    <g id="xtick_3">
     <g id="line2d_3">
      <g>
       <use xlink:href="#m860cc3a1c6" x="493.606979" y="260.44" style="stroke: #000000; stroke-width: 0.8"/>
      </g>
     </g>
     <g id="text_3">
      <!-- 20 -->
      <g transform="translate(487.244479 275.038438) scale(0.1 -0.1)">
       <defs>
        <path id="DejaVuSans-32" d="M 1228 531 
L 3431 531 
L 3431 0 
L 469 0 
L 469 531 
Q 828 903 1448 1529 
Q 2069 2156 2228 2338 
Q 2531 2678 2651 2914 
Q 2772 3150 2772 3378 
Q 2772 3750 2511 3984 
Q 2250 4219 1831 4219 
Q 1534 4219 1204 4116 
Q 875 4013 500 3803 
L 500 4441 
Q 881 4594 1212 4672 
Q 1544 4750 1819 4750 
Q 2544 4750 2975 4387 
Q 3406 4025 3406 3419 
Q 3406 3131 3298 2873 
Q 3191 2616 2906 2266 
Q 2828 2175 2409 1742 
Q 1991 1309 1228 531 
z
" transform="scale(0.015625)"/>
       </defs>
       <use xlink:href="#DejaVuSans-32"/>
       <use xlink:href="#DejaVuSans-30" transform="translate(63.623047 0)"/>
      </g>
     </g>
    </g>
    <g id="xtick_4">
     <g id="line2d_4">
      <g>
       <use xlink:href="#m860cc3a1c6" x="685.124804" y="260.44" style="stroke: #000000; stroke-width: 0.8"/>
      </g>
     </g>
     <g id="text_4">
      <!-- 30 -->
      <g transform="translate(678.762304 275.038438) scale(0.1 -0.1)">
       <defs>
        <path id="DejaVuSans-33" d="M 2597 2516 
Q 3050 2419 3304 2112 
Q 3559 1806 3559 1356 
Q 3559 666 3084 287 
Q 2609 -91 1734 -91 
Q 1441 -91 1130 -33 
Q 819 25 488 141 
L 488 750 
Q 750 597 1062 519 
Q 1375 441 1716 441 
Q 2309 441 2620 675 
Q 2931 909 2931 1356 
Q 2931 1769 2642 2001 
Q 2353 2234 1838 2234 
L 1294 2234 
L 1294 2753 
L 1863 2753 
Q 2328 2753 2575 2939 
Q 2822 3125 2822 3475 
Q 2822 3834 2567 4026 
Q 2313 4219 1838 4219 
Q 1578 4219 1281 4162 
Q 984 4106 628 3988 
L 628 4550 
Q 988 4650 1302 4700 
Q 1616 4750 1894 4750 
Q 2613 4750 3031 4423 
Q 3450 4097 3450 3541 
Q 3450 3153 3228 2886 
Q 3006 2619 2597 2516 
z
" transform="scale(0.015625)"/>
       </defs>
       <use xlink:href="#DejaVuSans-33"/>
       <use xlink:href="#DejaVuSans-30" transform="translate(63.623047 0)"/>
      </g>
     </g>
    </g>
    <g id="xtick_5">
     <g id="line2d_5">
      <g>
       <use xlink:href="#m860cc3a1c6" x="876.642628" y="260.44" style="stroke: #000000; stroke-width: 0.8"/>
      </g>
     </g>
     <g id="text_5">
      <!-- 40 -->
      <g transform="translate(870.280128 275.038438) scale(0.1 -0.1)">
       <defs>
        <path id="DejaVuSans-34" d="M 2419 4116 
L 825 1625 
L 2419 1625 
L 2419 4116 
z
M 2253 4666 
L 3047 4666 
L 3047 1625 
L 3713 1625 
L 3713 1100 
L 3047 1100 
L 3047 0 
L 2419 0 
L 2419 1100 
L 313 1100 
L 313 1709 
L 2253 4666 
z
" transform="scale(0.015625)"/>
       </defs>
       <use xlink:href="#DejaVuSans-34"/>
       <use xlink:href="#DejaVuSans-30" transform="translate(63.623047 0)"/>
      </g>
     </g>
    </g>
    <g id="xtick_6">
     <g id="line2d_6">
      <g>
       <use xlink:href="#m860cc3a1c6" x="1068.160453" y="260.44" style="stroke: #000000; stroke-width: 0.8"/>
      </g>
     </g>
     <g id="text_6">
      <!-- 50 -->
      <g transform="translate(1061.797953 275.038438) scale(0.1 -0.1)">
       <defs>
        <path id="DejaVuSans-35" d="M 691 4666 
L 3169 4666 
L 3169 4134 
L 1269 4134 
L 1269 2991 
Q 1406 3038 1543 3061 
Q 1681 3084 1819 3084 
Q 2600 3084 3056 2656 
Q 3513 2228 3513 1497 
Q 3513 744 3044 326 
Q 2575 -91 1722 -91 
Q 1428 -91 1123 -41 
Q 819 9 494 109 
L 494 744 
Q 775 591 1075 516 
Q 1375 441 1709 441 
Q 2250 441 2565 725 
Q 2881 1009 2881 1497 
Q 2881 1984 2565 2268 
Q 2250 2553 1709 2553 
Q 1456 2553 1204 2497 
Q 953 2441 691 2322 
L 691 4666 
z
" transform="scale(0.015625)"/>
       </defs>
       <use xlink:href="#DejaVuSans-35"/>
       <use xlink:href="#DejaVuSans-30" transform="translate(63.623047 0)"/>
      </g>
     </g>
    </g>
    <g id="text_7">
     <!-- PC index -->
     <g transform="translate(558.014219 288.716563) scale(0.1 -0.1)">
      <defs>
       <path id="DejaVuSans-50" d="M 1259 4147 
L 1259 2394 
L 2053 2394 
Q 2494 2394 2734 2622 
Q 2975 2850 2975 3272 
Q 2975 3691 2734 3919 
Q 2494 4147 2053 4147 
L 1259 4147 
z
M 628 4666 
L 2053 4666 
Q 2838 4666 3239 4311 
Q 3641 3956 3641 3272 
Q 3641 2581 3239 2228 
Q 2838 1875 2053 1875 
L 1259 1875 
L 1259 0 
L 628 0 
L 628 4666 
z
" transform="scale(0.015625)"/>
       <path id="DejaVuSans-43" d="M 4122 4306 
L 4122 3641 
Q 3803 3938 3442 4084 
Q 3081 4231 2675 4231 
Q 1875 4231 1450 3742 
Q 1025 3253 1025 2328 
Q 1025 1406 1450 917 
Q 1875 428 2675 428 
Q 3081 428 3442 575 
Q 3803 722 4122 1019 
L 4122 359 
Q 3791 134 3420 21 
Q 3050 -91 2638 -91 
Q 1578 -91 968 557 
Q 359 1206 359 2328 
Q 359 3453 968 4101 
Q 1578 4750 2638 4750 
Q 3056 4750 3426 4639 
Q 3797 4528 4122 4306 
z
" transform="scale(0.015625)"/>
       <path id="DejaVuSans-20" transform="scale(0.015625)"/>
       <path id="DejaVuSans-69" d="M 603 3500 
L 1178 3500 
L 1178 0 
L 603 0 
L 603 3500 
z
M 603 4863 
L 1178 4863 
L 1178 4134 
L 603 4134 
L 603 4863 
z
" transform="scale(0.015625)"/>
       <path id="DejaVuSans-6e" d="M 3513 2113 
L 3513 0 
L 2938 0 
L 2938 2094 
Q 2938 2591 2744 2837 
Q 2550 3084 2163 3084 
Q 1697 3084 1428 2787 
Q 1159 2491 1159 1978 
L 1159 0 
L 581 0 
L 581 3500 
L 1159 3500 
L 1159 2956 
Q 1366 3272 1645 3428 
Q 1925 3584 2291 3584 
Q 2894 3584 3203 3211 
Q 3513 2838 3513 2113 
z
" transform="scale(0.015625)"/>
       <path id="DejaVuSans-64" d="M 2906 2969 
L 2906 4863 
L 3481 4863 
L 3481 0 
L 2906 0 
L 2906 525 
Q 2725 213 2448 61 
Q 2172 -91 1784 -91 
Q 1150 -91 751 415 
Q 353 922 353 1747 
Q 353 2572 751 3078 
Q 1150 3584 1784 3584 
Q 2172 3584 2448 3432 
Q 2725 3281 2906 2969 
z
M 947 1747 
Q 947 1113 1208 752 
Q 1469 391 1925 391 
Q 2381 391 2643 752 
Q 2906 1113 2906 1747 
Q 2906 2381 2643 2742 
Q 2381 3103 1925 3103 
Q 1469 3103 1208 2742 
Q 947 2381 947 1747 
z
" transform="scale(0.015625)"/>
       <path id="DejaVuSans-65" d="M 3597 1894 
L 3597 1613 
L 953 1613 
Q 991 1019 1311 708 
Q 1631 397 2203 397 
Q 2534 397 2845 478 
Q 3156 559 3463 722 
L 3463 178 
Q 3153 47 2828 -22 
Q 2503 -91 2169 -91 
Q 1331 -91 842 396 
Q 353 884 353 1716 
Q 353 2575 817 3079 
Q 1281 3584 2069 3584 
Q 2775 3584 3186 3129 
Q 3597 2675 3597 1894 
z
M 3022 2063 
Q 3016 2534 2758 2815 
Q 2500 3097 2075 3097 
Q 1594 3097 1305 2825 
Q 1016 2553 972 2059 
L 3022 2063 
z
" transform="scale(0.015625)"/>
       <path id="DejaVuSans-78" d="M 3513 3500 
L 2247 1797 
L 3578 0 
L 2900 0 
L 1881 1375 
L 863 0 
L 184 0 
L 1544 1831 
L 300 3500 
L 978 3500 
L 1906 2253 
L 2834 3500 
L 3513 3500 
z
" transform="scale(0.015625)"/>
      </defs>
      <use xlink:href="#DejaVuSans-50"/>
      <use xlink:href="#DejaVuSans-43" transform="translate(60.302734 0)"/>
      <use xlink:href="#DejaVuSans-20" transform="translate(130.126953 0)"/>
      <use xlink:href="#DejaVuSans-69" transform="translate(161.914062 0)"/>
      <use xlink:href="#DejaVuSans-6e" transform="translate(189.697266 0)"/>
      <use xlink:href="#DejaVuSans-64" transform="translate(253.076172 0)"/>
      <use xlink:href="#DejaVuSans-65" transform="translate(316.552734 0)"/>
      <use xlink:href="#DejaVuSans-78" transform="translate(376.326172 0)"/>
     </g>
    </g>
   </g>
   <g id="matplotlib.axis_2">
    <g id="ytick_1">
     <g id="line2d_7">
      <defs>
       <path id="m2ad88d2d28" d="M 0 0 
L -3.5 0 
" style="stroke: #000000; stroke-width: 0.8"/>
      </defs>
      <g>
       <use xlink:href="#m2ad88d2d28" x="54.38" y="260.44" style="stroke: #000000; stroke-width: 0.8"/>
      </g>
     </g>
     <g id="text_8">
      <!-- 0.00 -->
      <g transform="translate(25.114375 264.239219) scale(0.1 -0.1)">
       <defs>
        <path id="DejaVuSans-2e" d="M 684 794 
L 1344 794 
L 1344 0 
L 684 0 
L 684 794 
z
" transform="scale(0.015625)"/>
       </defs>
       <use xlink:href="#DejaVuSans-30"/>
       <use xlink:href="#DejaVuSans-2e" transform="translate(63.623047 0)"/>
       <use xlink:href="#DejaVuSans-30" transform="translate(95.410156 0)"/>
       <use xlink:href="#DejaVuSans-30" transform="translate(159.033203 0)"/>
      </g>
     </g>
    </g>
    <g id="ytick_2">
     <g id="line2d_8">
      <g>
       <use xlink:href="#m2ad88d2d28" x="54.38" y="227.937516" style="stroke: #000000; stroke-width: 0.8"/>
      </g>
     </g>
     <g id="text_9">
      <!-- 0.05 -->
      <g transform="translate(25.114375 231.736735) scale(0.1 -0.1)">
       <use xlink:href="#DejaVuSans-30"/>
       <use xlink:href="#DejaVuSans-2e" transform="translate(63.623047 0)"/>
       <use xlink:href="#DejaVuSans-30" transform="translate(95.410156 0)"/>
       <use xlink:href="#DejaVuSans-35" transform="translate(159.033203 0)"/>
      </g>
     </g>
    </g>
    <g id="ytick_3">
     <g id="line2d_9">
      <g>
       <use xlink:href="#m2ad88d2d28" x="54.38" y="195.435032" style="stroke: #000000; stroke-width: 0.8"/>
      </g>
     </g>
     <g id="text_10">
      <!-- 0.10 -->
      <g transform="translate(25.114375 199.234251) scale(0.1 -0.1)">
       <use xlink:href="#DejaVuSans-30"/>
       <use xlink:href="#DejaVuSans-2e" transform="translate(63.623047 0)"/>
       <use xlink:href="#DejaVuSans-31" transform="translate(95.410156 0)"/>
       <use xlink:href="#DejaVuSans-30" transform="translate(159.033203 0)"/>
      </g>
     </g>
    </g>
    <g id="ytick_4">
     <g id="line2d_10">
      <g>
       <use xlink:href="#m2ad88d2d28" x="54.38" y="162.932548" style="stroke: #000000; stroke-width: 0.8"/>
      </g>
     </g>
     <g id="text_11">
      <!-- 0.15 -->
      <g transform="translate(25.114375 166.731767) scale(0.1 -0.1)">
       <use xlink:href="#DejaVuSans-30"/>
       <use xlink:href="#DejaVuSans-2e" transform="translate(63.623047 0)"/>
       <use xlink:href="#DejaVuSans-31" transform="translate(95.410156 0)"/>
       <use xlink:href="#DejaVuSans-35" transform="translate(159.033203 0)"/>
      </g>
     </g>
    </g>
    <g id="ytick_5">
     <g id="line2d_11">
      <g>
       <use xlink:href="#m2ad88d2d28" x="54.38" y="130.430064" style="stroke: #000000; stroke-width: 0.8"/>
      </g>
     </g>
     <g id="text_12">
      <!-- 0.20 -->
      <g transform="translate(25.114375 134.229283) scale(0.1 -0.1)">
       <use xlink:href="#DejaVuSans-30"/>
       <use xlink:href="#DejaVuSans-2e" transform="translate(63.623047 0)"/>
       <use xlink:href="#DejaVuSans-32" transform="translate(95.410156 0)"/>
       <use xlink:href="#DejaVuSans-30" transform="translate(159.033203 0)"/>
      </g>
     </g>
    </g>
    <g id="ytick_6">
     <g id="line2d_12">
      <g>
       <use xlink:href="#m2ad88d2d28" x="54.38" y="97.927581" style="stroke: #000000; stroke-width: 0.8"/>
      </g>
     </g>
     <g id="text_13">
      <!-- 0.25 -->
      <g transform="translate(25.114375 101.726799) scale(0.1 -0.1)">
       <use xlink:href="#DejaVuSans-30"/>
       <use xlink:href="#DejaVuSans-2e" transform="translate(63.623047 0)"/>
       <use xlink:href="#DejaVuSans-32" transform="translate(95.410156 0)"/>
       <use xlink:href="#DejaVuSans-35" transform="translate(159.033203 0)"/>
      </g>
     </g>
    </g>
    <g id="ytick_7">
     <g id="line2d_13">
      <g>
       <use xlink:href="#m2ad88d2d28" x="54.38" y="65.425097" style="stroke: #000000; stroke-width: 0.8"/>
      </g>
     </g>
     <g id="text_14">
      <!-- 0.30 -->
      <g transform="translate(25.114375 69.224315) scale(0.1 -0.1)">
       <use xlink:href="#DejaVuSans-30"/>
       <use xlink:href="#DejaVuSans-2e" transform="translate(63.623047 0)"/>
       <use xlink:href="#DejaVuSans-33" transform="translate(95.410156 0)"/>
       <use xlink:href="#DejaVuSans-30" transform="translate(159.033203 0)"/>
      </g>
     </g>
    </g>
    <g id="ytick_8">
     <g id="line2d_14">
      <g>
       <use xlink:href="#m2ad88d2d28" x="54.38" y="32.922613" style="stroke: #000000; stroke-width: 0.8"/>
      </g>
     </g>
     <g id="text_15">
      <!-- 0.35 -->
      <g transform="translate(25.114375 36.721832) scale(0.1 -0.1)">
       <use xlink:href="#DejaVuSans-30"/>
       <use xlink:href="#DejaVuSans-2e" transform="translate(63.623047 0)"/>
       <use xlink:href="#DejaVuSans-33" transform="translate(95.410156 0)"/>
       <use xlink:href="#DejaVuSans-35" transform="translate(159.033203 0)"/>
      </g>
     </g>
    </g>
    <g id="text_16">
     <!-- |Spearman(age, PC score)| -->
     <g transform="translate(18.756562 210.511563) rotate(-90) scale(0.1 -0.1)">
      <defs>
       <path id="DejaVuSans-7c" d="M 1344 4891 
L 1344 -1509 
L 813 -1509 
L 813 4891 
L 1344 4891 
z
" transform="scale(0.015625)"/>
       <path id="DejaVuSans-53" d="M 3425 4513 
L 3425 3897 
Q 3066 4069 2747 4153 
Q 2428 4238 2131 4238 
Q 1616 4238 1336 4038 
Q 1056 3838 1056 3469 
Q 1056 3159 1242 3001 
Q 1428 2844 1947 2747 
L 2328 2669 
Q 3034 2534 3370 2195 
Q 3706 1856 3706 1288 
Q 3706 609 3251 259 
Q 2797 -91 1919 -91 
Q 1588 -91 1214 -16 
Q 841 59 441 206 
L 441 856 
Q 825 641 1194 531 
Q 1563 422 1919 422 
Q 2459 422 2753 634 
Q 3047 847 3047 1241 
Q 3047 1584 2836 1778 
Q 2625 1972 2144 2069 
L 1759 2144 
Q 1053 2284 737 2584 
Q 422 2884 422 3419 
Q 422 4038 858 4394 
Q 1294 4750 2059 4750 
Q 2388 4750 2728 4690 
Q 3069 4631 3425 4513 
z
" transform="scale(0.015625)"/>
       <path id="DejaVuSans-70" d="M 1159 525 
L 1159 -1331 
L 581 -1331 
L 581 3500 
L 1159 3500 
L 1159 2969 
Q 1341 3281 1617 3432 
Q 1894 3584 2278 3584 
Q 2916 3584 3314 3078 
Q 3713 2572 3713 1747 
Q 3713 922 3314 415 
Q 2916 -91 2278 -91 
Q 1894 -91 1617 61 
Q 1341 213 1159 525 
z
M 3116 1747 
Q 3116 2381 2855 2742 
Q 2594 3103 2138 3103 
Q 1681 3103 1420 2742 
Q 1159 2381 1159 1747 
Q 1159 1113 1420 752 
Q 1681 391 2138 391 
Q 2594 391 2855 752 
Q 3116 1113 3116 1747 
z
" transform="scale(0.015625)"/>
       <path id="DejaVuSans-61" d="M 2194 1759 
Q 1497 1759 1228 1600 
Q 959 1441 959 1056 
Q 959 750 1161 570 
Q 1363 391 1709 391 
Q 2188 391 2477 730 
Q 2766 1069 2766 1631 
L 2766 1759 
L 2194 1759 
z
M 3341 1997 
L 3341 0 
L 2766 0 
L 2766 531 
Q 2569 213 2275 61 
Q 1981 -91 1556 -91 
Q 1019 -91 701 211 
Q 384 513 384 1019 
Q 384 1609 779 1909 
Q 1175 2209 1959 2209 
L 2766 2209 
L 2766 2266 
Q 2766 2663 2505 2880 
Q 2244 3097 1772 3097 
Q 1472 3097 1187 3025 
Q 903 2953 641 2809 
L 641 3341 
Q 956 3463 1253 3523 
Q 1550 3584 1831 3584 
Q 2591 3584 2966 3190 
Q 3341 2797 3341 1997 
z
" transform="scale(0.015625)"/>
       <path id="DejaVuSans-72" d="M 2631 2963 
Q 2534 3019 2420 3045 
Q 2306 3072 2169 3072 
Q 1681 3072 1420 2755 
Q 1159 2438 1159 1844 
L 1159 0 
L 581 0 
L 581 3500 
L 1159 3500 
L 1159 2956 
Q 1341 3275 1631 3429 
Q 1922 3584 2338 3584 
Q 2397 3584 2469 3576 
Q 2541 3569 2628 3553 
L 2631 2963 
z
" transform="scale(0.015625)"/>
       <path id="DejaVuSans-6d" d="M 3328 2828 
Q 3544 3216 3844 3400 
Q 4144 3584 4550 3584 
Q 5097 3584 5394 3201 
Q 5691 2819 5691 2113 
L 5691 0 
L 5113 0 
L 5113 2094 
Q 5113 2597 4934 2840 
Q 4756 3084 4391 3084 
Q 3944 3084 3684 2787 
Q 3425 2491 3425 1978 
L 3425 0 
L 2847 0 
L 2847 2094 
Q 2847 2600 2669 2842 
Q 2491 3084 2119 3084 
Q 1678 3084 1418 2786 
Q 1159 2488 1159 1978 
L 1159 0 
L 581 0 
L 581 3500 
L 1159 3500 
L 1159 2956 
Q 1356 3278 1631 3431 
Q 1906 3584 2284 3584 
Q 2666 3584 2933 3390 
Q 3200 3197 3328 2828 
z
" transform="scale(0.015625)"/>
       <path id="DejaVuSans-28" d="M 1984 4856 
Q 1566 4138 1362 3434 
Q 1159 2731 1159 2009 
Q 1159 1288 1364 580 
Q 1569 -128 1984 -844 
L 1484 -844 
Q 1016 -109 783 600 
Q 550 1309 550 2009 
Q 550 2706 781 3412 
Q 1013 4119 1484 4856 
L 1984 4856 
z
" transform="scale(0.015625)"/>
       <path id="DejaVuSans-67" d="M 2906 1791 
Q 2906 2416 2648 2759 
Q 2391 3103 1925 3103 
Q 1463 3103 1205 2759 
Q 947 2416 947 1791 
Q 947 1169 1205 825 
Q 1463 481 1925 481 
Q 2391 481 2648 825 
Q 2906 1169 2906 1791 
z
M 3481 434 
Q 3481 -459 3084 -895 
Q 2688 -1331 1869 -1331 
Q 1566 -1331 1297 -1286 
Q 1028 -1241 775 -1147 
L 775 -588 
Q 1028 -725 1275 -790 
Q 1522 -856 1778 -856 
Q 2344 -856 2625 -561 
Q 2906 -266 2906 331 
L 2906 616 
Q 2728 306 2450 153 
Q 2172 0 1784 0 
Q 1141 0 747 490 
Q 353 981 353 1791 
Q 353 2603 747 3093 
Q 1141 3584 1784 3584 
Q 2172 3584 2450 3431 
Q 2728 3278 2906 2969 
L 2906 3500 
L 3481 3500 
L 3481 434 
z
" transform="scale(0.015625)"/>
       <path id="DejaVuSans-2c" d="M 750 794 
L 1409 794 
L 1409 256 
L 897 -744 
L 494 -744 
L 750 256 
L 750 794 
z
" transform="scale(0.015625)"/>
       <path id="DejaVuSans-73" d="M 2834 3397 
L 2834 2853 
Q 2591 2978 2328 3040 
Q 2066 3103 1784 3103 
Q 1356 3103 1142 2972 
Q 928 2841 928 2578 
Q 928 2378 1081 2264 
Q 1234 2150 1697 2047 
L 1894 2003 
Q 2506 1872 2764 1633 
Q 3022 1394 3022 966 
Q 3022 478 2636 193 
Q 2250 -91 1575 -91 
Q 1294 -91 989 -36 
Q 684 19 347 128 
L 347 722 
Q 666 556 975 473 
Q 1284 391 1588 391 
Q 1994 391 2212 530 
Q 2431 669 2431 922 
Q 2431 1156 2273 1281 
Q 2116 1406 1581 1522 
L 1381 1569 
Q 847 1681 609 1914 
Q 372 2147 372 2553 
Q 372 3047 722 3315 
Q 1072 3584 1716 3584 
Q 2034 3584 2315 3537 
Q 2597 3491 2834 3397 
z
" transform="scale(0.015625)"/>
       <path id="DejaVuSans-63" d="M 3122 3366 
L 3122 2828 
Q 2878 2963 2633 3030 
Q 2388 3097 2138 3097 
Q 1578 3097 1268 2742 
Q 959 2388 959 1747 
Q 959 1106 1268 751 
Q 1578 397 2138 397 
Q 2388 397 2633 464 
Q 2878 531 3122 666 
L 3122 134 
Q 2881 22 2623 -34 
Q 2366 -91 2075 -91 
Q 1284 -91 818 406 
Q 353 903 353 1747 
Q 353 2603 823 3093 
Q 1294 3584 2113 3584 
Q 2378 3584 2631 3529 
Q 2884 3475 3122 3366 
z
" transform="scale(0.015625)"/>
       <path id="DejaVuSans-6f" d="M 1959 3097 
Q 1497 3097 1228 2736 
Q 959 2375 959 1747 
Q 959 1119 1226 758 
Q 1494 397 1959 397 
Q 2419 397 2687 759 
Q 2956 1122 2956 1747 
Q 2956 2369 2687 2733 
Q 2419 3097 1959 3097 
z
M 1959 3584 
Q 2709 3584 3137 3096 
Q 3566 2609 3566 1747 
Q 3566 888 3137 398 
Q 2709 -91 1959 -91 
Q 1206 -91 779 398 
Q 353 888 353 1747 
Q 353 2609 779 3096 
Q 1206 3584 1959 3584 
z
" transform="scale(0.015625)"/>
       <path id="DejaVuSans-29" d="M 513 4856 
L 1013 4856 
Q 1481 4119 1714 3412 
Q 1947 2706 1947 2009 
Q 1947 1309 1714 600 
Q 1481 -109 1013 -844 
L 513 -844 
Q 928 -128 1133 580 
Q 1338 1288 1338 2009 
Q 1338 2731 1133 3434 
Q 928 4138 513 4856 
z
" transform="scale(0.015625)"/>
      </defs>
      <use xlink:href="#DejaVuSans-7c"/>
      <use xlink:href="#DejaVuSans-53" transform="translate(33.691406 0)"/>
      <use xlink:href="#DejaVuSans-70" transform="translate(97.167969 0)"/>
      <use xlink:href="#DejaVuSans-65" transform="translate(160.644531 0)"/>
      <use xlink:href="#DejaVuSans-61" transform="translate(222.167969 0)"/>
      <use xlink:href="#DejaVuSans-72" transform="translate(283.447266 0)"/>
      <use xlink:href="#DejaVuSans-6d" transform="translate(322.810547 0)"/>
      <use xlink:href="#DejaVuSans-61" transform="translate(420.222656 0)"/>
      <use xlink:href="#DejaVuSans-6e" transform="translate(481.501953 0)"/>
      <use xlink:href="#DejaVuSans-28" transform="translate(544.880859 0)"/>
      <use xlink:href="#DejaVuSans-61" transform="translate(583.894531 0)"/>
      <use xlink:href="#DejaVuSans-67" transform="translate(645.173828 0)"/>
      <use xlink:href="#DejaVuSans-65" transform="translate(708.650391 0)"/>
      <use xlink:href="#DejaVuSans-2c" transform="translate(770.173828 0)"/>
      <use xlink:href="#DejaVuSans-20" transform="translate(801.960938 0)"/>
      <use xlink:href="#DejaVuSans-50" transform="translate(833.748047 0)"/>
      <use xlink:href="#DejaVuSans-43" transform="translate(894.050781 0)"/>
      <use xlink:href="#DejaVuSans-20" transform="translate(963.875 0)"/>
      <use xlink:href="#DejaVuSans-73" transform="translate(995.662109 0)"/>
      <use xlink:href="#DejaVuSans-63" transform="translate(1047.761719 0)"/>
      <use xlink:href="#DejaVuSans-6f" transform="translate(1102.742188 0)"/>
      <use xlink:href="#DejaVuSans-72" transform="translate(1163.923828 0)"/>
      <use xlink:href="#DejaVuSans-65" transform="translate(1202.787109 0)"/>
      <use xlink:href="#DejaVuSans-29" transform="translate(1264.310547 0)"/>
      <use xlink:href="#DejaVuSans-7c" transform="translate(1303.324219 0)"/>
     </g>
    </g>
   </g>
   <g id="patch_203">
    <path d="M 54.38 260.44 
L 54.38 26.88 
" style="fill: none; stroke: #000000; stroke-width: 0.8; stroke-linejoin: miter; stroke-linecap: square"/>
   </g>
   <g id="patch_204">
    <path d="M 1105.2 260.44 
L 1105.2 26.88 
" style="fill: none; stroke: #000000; stroke-width: 0.8; stroke-linejoin: miter; stroke-linecap: square"/>
   </g>
   <g id="patch_205">
    <path d="M 54.38 260.44 
L 1105.2 260.44 
" style="fill: none; stroke: #000000; stroke-width: 0.8; stroke-linejoin: miter; stroke-linecap: square"/>
   </g>
   <g id="patch_206">
    <path d="M 54.38 26.88 
L 1105.2 26.88 
" style="fill: none; stroke: #000000; stroke-width: 0.8; stroke-linejoin: miter; stroke-linecap: square"/>
   </g>
   <g id="text_17">
    <!-- Age-PC correlations (|rho|) -->
    <g transform="translate(500.521563 20.88) scale(0.12 -0.12)">
     <defs>
      <path id="DejaVuSans-41" d="M 2188 4044 
L 1331 1722 
L 3047 1722 
L 2188 4044 
z
M 1831 4666 
L 2547 4666 
L 4325 0 
L 3669 0 
L 3244 1197 
L 1141 1197 
L 716 0 
L 50 0 
L 1831 4666 
z
" transform="scale(0.015625)"/>
      <path id="DejaVuSans-2d" d="M 313 2009 
L 1997 2009 
L 1997 1497 
L 313 1497 
L 313 2009 
z
" transform="scale(0.015625)"/>
      <path id="DejaVuSans-6c" d="M 603 4863 
L 1178 4863 
L 1178 0 
L 603 0 
L 603 4863 
z
" transform="scale(0.015625)"/>
      <path id="DejaVuSans-74" d="M 1172 4494 
L 1172 3500 
L 2356 3500 
L 2356 3053 
L 1172 3053 
L 1172 1153 
Q 1172 725 1289 603 
Q 1406 481 1766 481 
L 2356 481 
L 2356 0 
L 1766 0 
Q 1100 0 847 248 
Q 594 497 594 1153 
L 594 3053 
L 172 3053 
L 172 3500 
L 594 3500 
L 594 4494 
L 1172 4494 
z
" transform="scale(0.015625)"/>
      <path id="DejaVuSans-68" d="M 3513 2113 
L 3513 0 
L 2938 0 
L 2938 2094 
Q 2938 2591 2744 2837 
Q 2550 3084 2163 3084 
Q 1697 3084 1428 2787 
Q 1159 2491 1159 1978 
L 1159 0 
L 581 0 
L 581 4863 
L 1159 4863 
L 1159 2956 
Q 1366 3272 1645 3428 
Q 1925 3584 2291 3584 
Q 2894 3584 3203 3211 
Q 3513 2838 3513 2113 
z
" transform="scale(0.015625)"/>
     </defs>
     <use xlink:href="#DejaVuSans-41"/>
     <use xlink:href="#DejaVuSans-67" transform="translate(68.408203 0)"/>
     <use xlink:href="#DejaVuSans-65" transform="translate(131.884766 0)"/>
     <use xlink:href="#DejaVuSans-2d" transform="translate(193.408203 0)"/>
     <use xlink:href="#DejaVuSans-50" transform="translate(229.492188 0)"/>
     <use xlink:href="#DejaVuSans-43" transform="translate(289.794922 0)"/>
     <use xlink:href="#DejaVuSans-20" transform="translate(359.619141 0)"/>
     <use xlink:href="#DejaVuSans-63" transform="translate(391.40625 0)"/>
     <use xlink:href="#DejaVuSans-6f" transform="translate(446.386719 0)"/>
     <use xlink:href="#DejaVuSans-72" transform="translate(507.568359 0)"/>
     <use xlink:href="#DejaVuSans-72" transform="translate(546.931641 0)"/>
     <use xlink:href="#DejaVuSans-65" transform="translate(585.794922 0)"/>
     <use xlink:href="#DejaVuSans-6c" transform="translate(647.318359 0)"/>
     <use xlink:href="#DejaVuSans-61" transform="translate(675.101562 0)"/>
     <use xlink:href="#DejaVuSans-74" transform="translate(736.380859 0)"/>
     <use xlink:href="#DejaVuSans-69" transform="translate(775.589844 0)"/>
     <use xlink:href="#DejaVuSans-6f" transform="translate(803.373047 0)"/>
     <use xlink:href="#DejaVuSans-6e" transform="translate(864.554688 0)"/>
     <use xlink:href="#DejaVuSans-73" transform="translate(927.933594 0)"/>
     <use xlink:href="#DejaVuSans-20" transform="translate(980.033203 0)"/>
     <use xlink:href="#DejaVuSans-28" transform="translate(1011.820312 0)"/>
     <use xlink:href="#DejaVuSans-7c" transform="translate(1050.833984 0)"/>
     <use xlink:href="#DejaVuSans-72" transform="translate(1084.525391 0)"/>
     <use xlink:href="#DejaVuSans-68" transform="translate(1123.888672 0)"/>
     <use xlink:href="#DejaVuSans-6f" transform="translate(1187.267578 0)"/>
     <use xlink:href="#DejaVuSans-7c" transform="translate(1248.449219 0)"/>
     <use xlink:href="#DejaVuSans-29" transform="translate(1282.140625 0)"/>
    </g>
   </g>
   <g id="legend_1">
    <g id="patch_207">
     <path d="M 979.75 93.5925 
L 1098.2 93.5925 
Q 1100.2 93.5925 1100.2 91.5925 
L 1100.2 33.88 
Q 1100.2 31.88 1098.2 31.88 
L 979.75 31.88 
Q 977.75 31.88 977.75 33.88 
L 977.75 91.5925 
Q 977.75 93.5925 979.75 93.5925 
z
" style="fill: #ffffff; opacity: 0.8; stroke: #cccccc; stroke-linejoin: miter"/>
    </g>
    <g id="patch_208">
     <path d="M 981.75 43.478438 
L 1001.75 43.478438 
L 1001.75 36.478438 
L 981.75 36.478438 
z
" style="fill: #1f77b4"/>
    </g>
    <g id="text_18">
     <!-- Controls raw -->
     <g transform="translate(1009.75 43.478438) scale(0.1 -0.1)">
      <defs>
       <path id="DejaVuSans-77" d="M 269 3500 
L 844 3500 
L 1563 769 
L 2278 3500 
L 2956 3500 
L 3675 769 
L 4391 3500 
L 4966 3500 
L 4050 0 
L 3372 0 
L 2619 2869 
L 1863 0 
L 1184 0 
L 269 3500 
z
" transform="scale(0.015625)"/>
      </defs>
      <use xlink:href="#DejaVuSans-43"/>
      <use xlink:href="#DejaVuSans-6f" transform="translate(69.824219 0)"/>
      <use xlink:href="#DejaVuSans-6e" transform="translate(131.005859 0)"/>
      <use xlink:href="#DejaVuSans-74" transform="translate(194.384766 0)"/>
      <use xlink:href="#DejaVuSans-72" transform="translate(233.59375 0)"/>
      <use xlink:href="#DejaVuSans-6f" transform="translate(272.457031 0)"/>
      <use xlink:href="#DejaVuSans-6c" transform="translate(333.638672 0)"/>
      <use xlink:href="#DejaVuSans-73" transform="translate(361.421875 0)"/>
      <use xlink:href="#DejaVuSans-20" transform="translate(413.521484 0)"/>
      <use xlink:href="#DejaVuSans-72" transform="translate(445.308594 0)"/>
      <use xlink:href="#DejaVuSans-61" transform="translate(486.421875 0)"/>
      <use xlink:href="#DejaVuSans-77" transform="translate(547.701172 0)"/>
     </g>
    </g>
    <g id="patch_209">
     <path d="M 981.75 58.156563 
L 1001.75 58.156563 
L 1001.75 51.156563 
L 981.75 51.156563 
z
" style="fill: #ff7f0e"/>
    </g>
    <g id="text_19">
     <!-- Controls oriented -->
     <g transform="translate(1009.75 58.156563) scale(0.1 -0.1)">
      <use xlink:href="#DejaVuSans-43"/>
      <use xlink:href="#DejaVuSans-6f" transform="translate(69.824219 0)"/>
      <use xlink:href="#DejaVuSans-6e" transform="translate(131.005859 0)"/>
      <use xlink:href="#DejaVuSans-74" transform="translate(194.384766 0)"/>
      <use xlink:href="#DejaVuSans-72" transform="translate(233.59375 0)"/>
      <use xlink:href="#DejaVuSans-6f" transform="translate(272.457031 0)"/>
      <use xlink:href="#DejaVuSans-6c" transform="translate(333.638672 0)"/>
      <use xlink:href="#DejaVuSans-73" transform="translate(361.421875 0)"/>
      <use xlink:href="#DejaVuSans-20" transform="translate(413.521484 0)"/>
      <use xlink:href="#DejaVuSans-6f" transform="translate(445.308594 0)"/>
      <use xlink:href="#DejaVuSans-72" transform="translate(506.490234 0)"/>
      <use xlink:href="#DejaVuSans-69" transform="translate(547.603516 0)"/>
      <use xlink:href="#DejaVuSans-65" transform="translate(575.386719 0)"/>
      <use xlink:href="#DejaVuSans-6e" transform="translate(636.910156 0)"/>
      <use xlink:href="#DejaVuSans-74" transform="translate(700.289062 0)"/>
      <use xlink:href="#DejaVuSans-65" transform="translate(739.498047 0)"/>
      <use xlink:href="#DejaVuSans-64" transform="translate(801.021484 0)"/>
     </g>
    </g>
    <g id="patch_210">
     <path d="M 981.75 72.834688 
L 1001.75 72.834688 
L 1001.75 65.834688 
L 981.75 65.834688 
z
" style="fill: #2ca02c"/>
    </g>
    <g id="text_20">
     <!-- All rows raw -->
     <g transform="translate(1009.75 72.834688) scale(0.1 -0.1)">
      <use xlink:href="#DejaVuSans-41"/>
      <use xlink:href="#DejaVuSans-6c" transform="translate(68.408203 0)"/>
      <use xlink:href="#DejaVuSans-6c" transform="translate(96.191406 0)"/>
      <use xlink:href="#DejaVuSans-20" transform="translate(123.974609 0)"/>
      <use xlink:href="#DejaVuSans-72" transform="translate(155.761719 0)"/>
      <use xlink:href="#DejaVuSans-6f" transform="translate(194.625 0)"/>
      <use xlink:href="#DejaVuSans-77" transform="translate(255.806641 0)"/>
      <use xlink:href="#DejaVuSans-73" transform="translate(337.59375 0)"/>
      <use xlink:href="#DejaVuSans-20" transform="translate(389.693359 0)"/>
      <use xlink:href="#DejaVuSans-72" transform="translate(421.480469 0)"/>
      <use xlink:href="#DejaVuSans-61" transform="translate(462.59375 0)"/>
      <use xlink:href="#DejaVuSans-77" transform="translate(523.873047 0)"/>
     </g>
    </g>
    <g id="patch_211">
     <path d="M 981.75 87.512813 
L 1001.75 87.512813 
L 1001.75 80.512813 
L 981.75 80.512813 
z
" style="fill: #d62728"/>
    </g>
    <g id="text_21">
     <!-- All rows oriented -->
     <g transform="translate(1009.75 87.512813) scale(0.1 -0.1)">
      <use xlink:href="#DejaVuSans-41"/>
      <use xlink:href="#DejaVuSans-6c" transform="translate(68.408203 0)"/>
      <use xlink:href="#DejaVuSans-6c" transform="translate(96.191406 0)"/>
      <use xlink:href="#DejaVuSans-20" transform="translate(123.974609 0)"/>
      <use xlink:href="#DejaVuSans-72" transform="translate(155.761719 0)"/>
      <use xlink:href="#DejaVuSans-6f" transform="translate(194.625 0)"/>
      <use xlink:href="#DejaVuSans-77" transform="translate(255.806641 0)"/>
      <use xlink:href="#DejaVuSans-73" transform="translate(337.59375 0)"/>
      <use xlink:href="#DejaVuSans-20" transform="translate(389.693359 0)"/>
      <use xlink:href="#DejaVuSans-6f" transform="translate(421.480469 0)"/>
      <use xlink:href="#DejaVuSans-72" transform="translate(482.662109 0)"/>
      <use xlink:href="#DejaVuSans-69" transform="translate(523.775391 0)"/>
      <use xlink:href="#DejaVuSans-65" transform="translate(551.558594 0)"/>
      <use xlink:href="#DejaVuSans-6e" transform="translate(613.082031 0)"/>
      <use xlink:href="#DejaVuSans-74" transform="translate(676.460938 0)"/>
      <use xlink:href="#DejaVuSans-65" transform="translate(715.669922 0)"/>
      <use xlink:href="#DejaVuSans-64" transform="translate(777.193359 0)"/>
     </g>
    </g>
   </g>
  </g>
 </g>
 <defs>
  <clipPath id="p2b67b56e89">
   <rect x="54.38" y="26.88" width="1050.82" height="233.56"/>
  </clipPath>
 </defs>
</svg>
