<?xml version="1.0" encoding="utf-8" standalone="no"?>
<!DOCTYPE svg PUBLIC "-//W3C//DTD SVG 1.1//EN"
  "http://www.w3.org/Graphics/SVG/1.1/DTD/svg11.dtd">
<svg xmlns:xlink="http://www.w3.org/1999/xlink" width="403.2pt" height="316.8pt" viewBox="0 0 403.2 316.8" xmlns="http://www.w3.org/2000/svg" version="1.1">
 <metadata>
  <rdf:RDF xmlns:dc="http://purl.org/dc/elements/1.1/" xmlns:cc="http://creativecommons.org/ns#" xmlns:rdf="http://www.w3.org/1999/02/22-rdf-syntax-ns#">
   <cc:Work>
    <dc:type rdf:resource="http://purl.org/dc/dcmitype/StillImage"/>
    <dc:date>2026-05-05T13:01:06.490215</dc:date>
    <dc:format>image/svg+xml</dc:format>
    <dc:creator>
     <cc:Agent>
      <dc:title>Matplotlib v3.10.0, https://matplotlib.org/</dc:title>
     </cc:Agent>
    </dc:creator>
   </cc:Work>
  </rdf:RDF>
 </metadata>
 <defs>
  <style type="text/css">*{stroke-linejoin: round; stroke-linecap: butt}</style>
 </defs>
 <g id="figure_1">
  <g id="patch_1">
   <path d="M 0 316.8 
L 403.2 316.8 
L 403.2 0 
L 0 0 
z
" style="fill: #ffffff"/>
  </g>
  <g id="axes_1">
   <g id="patch_2">
    <path d="M 52.94 274.84 
L 392.4 274.84 
L 392.4 42.04725 
L 52.94 42.04725 
z
" style="fill: #ffffff"/>
   </g>
   <g id="PathCollection_1">
    <defs>
     <path id="m73d8115257" d="M 0 1.732051 
C 0.459345 1.732051 0.899939 1.549551 1.224745 1.224745 
C 1.549551 0.899939 1.732051 0.459345 1.732051 0 
C 1.732051 -0.459345 1.549551 -0.899939 1.224745 -1.224745 
C 0.899939 -1.549551 0.459345 -1.732051 0 -1.732051 
C -0.459345 -1.732051 -0.899939 -1.549551 -1.224745 -1.224745 
C -1.549551 -0.899939 -1.732051 -0.459345 -1.732051 0 
C -1.732051 0.459345 -1.549551 0.899939 -1.224745 1.224745 
C -0.899939 1.549551 -0.459345 1.732051 0 1.732051 
z
" style="stroke: #1f77b4"/>
    </defs>
    <g clip-path="url(#pa60e246b98)">
     <use xlink:href="#m73d8115257" x="93.734384" y="226.30835" style="fill: #1f77b4; stroke: #1f77b4"/>
     <use xlink:href="#m73d8115257" x="93.734384" y="145.96439" style="fill: #1f77b4; stroke: #1f77b4"/>
     <use xlink:href="#m73d8115257" x="119.098767" y="221.815362" style="fill: #1f77b4; stroke: #1f77b4"/>
     <use xlink:href="#m73d8115257" x="93.734384" y="150.561162" style="fill: #1f77b4; stroke: #1f77b4"/>
     <use xlink:href="#m73d8115257" x="93.734384" y="175.759881" style="fill: #1f77b4; stroke: #1f77b4"/>
     <use xlink:href="#m73d8115257" x="93.734384" y="162.251048" style="fill: #1f77b4; stroke: #1f77b4"/>
     <use xlink:href="#m73d8115257" x="93.734384" y="152.123244" style="fill: #1f77b4; stroke: #1f77b4"/>
     <use xlink:href="#m73d8115257" x="93.734384" y="240.415477" style="fill: #1f77b4; stroke: #1f77b4"/>
     <use xlink:href="#m73d8115257" x="119.098767" y="206.509825" style="fill: #1f77b4; stroke: #1f77b4"/>
     <use xlink:href="#m73d8115257" x="68.37" y="187.469478" style="fill: #1f77b4; stroke: #1f77b4"/>
     <use xlink:href="#m73d8115257" x="119.098767" y="181.210066" style="fill: #1f77b4; stroke: #1f77b4"/>
     <use xlink:href="#m73d8115257" x="93.734384" y="139.307279" style="fill: #1f77b4; stroke: #1f77b4"/>
     <use xlink:href="#m73d8115257" x="93.734384" y="236.17368" style="fill: #1f77b4; stroke: #1f77b4"/>
     <use xlink:href="#m73d8115257" x="93.734384" y="167.793437" style="fill: #1f77b4; stroke: #1f77b4"/>
     <use xlink:href="#m73d8115257" x="93.734384" y="170.626246" style="fill: #1f77b4; stroke: #1f77b4"/>
     <use xlink:href="#m73d8115257" x="119.098767" y="162.206269" style="fill: #1f77b4; stroke: #1f77b4"/>
     <use xlink:href="#m73d8115257" x="93.734384" y="170.739152" style="fill: #1f77b4; stroke: #1f77b4"/>
     <use xlink:href="#m73d8115257" x="93.734384" y="264.258511" style="fill: #1f77b4; stroke: #1f77b4"/>
     <use xlink:href="#m73d8115257" x="119.098767" y="199.713778" style="fill: #1f77b4; stroke: #1f77b4"/>
     <use xlink:href="#m73d8115257" x="93.734384" y="167.379541" style="fill: #1f77b4; stroke: #1f77b4"/>
     <use xlink:href="#m73d8115257" x="93.734384" y="226.686618" style="fill: #1f77b4; stroke: #1f77b4"/>
     <use xlink:href="#m73d8115257" x="119.098767" y="241.227458" style="fill: #1f77b4; stroke: #1f77b4"/>
     <use xlink:href="#m73d8115257" x="119.098767" y="223.951434" style="fill: #1f77b4; stroke: #1f77b4"/>
     <use xlink:href="#m73d8115257" x="93.734384" y="218.302458" style="fill: #1f77b4; stroke: #1f77b4"/>
     <use xlink:href="#m73d8115257" x="119.098767" y="212.678311" style="fill: #1f77b4; stroke: #1f77b4"/>
     <use xlink:href="#m73d8115257" x="93.734384" y="148.582596" style="fill: #1f77b4; stroke: #1f77b4"/>
     <use xlink:href="#m73d8115257" x="119.098767" y="181.832356" style="fill: #1f77b4; stroke: #1f77b4"/>
     <use xlink:href="#m73d8115257" x="68.37" y="181.002804" style="fill: #1f77b4; stroke: #1f77b4"/>
     <use xlink:href="#m73d8115257" x="93.734384" y="171.469082" style="fill: #1f77b4; stroke: #1f77b4"/>
     <use xlink:href="#m73d8115257" x="93.734384" y="168.779144" style="fill: #1f77b4; stroke: #1f77b4"/>
     <use xlink:href="#m73d8115257" x="119.098767" y="195.806998" style="fill: #1f77b4; stroke: #1f77b4"/>
     <use xlink:href="#m73d8115257" x="68.37" y="146.943922" style="fill: #1f77b4; stroke: #1f77b4"/>
     <use xlink:href="#m73d8115257" x="93.734384" y="180.601389" style="fill: #1f77b4; stroke: #1f77b4"/>
     <use xlink:href="#m73d8115257" x="93.734384" y="243.010467" style="fill: #1f77b4; stroke: #1f77b4"/>
     <use xlink:href="#m73d8115257" x="68.37" y="161.78676" style="fill: #1f77b4; stroke: #1f77b4"/>
     <use xlink:href="#m73d8115257" x="119.098767" y="216.780091" style="fill: #1f77b4; stroke: #1f77b4"/>
     <use xlink:href="#m73d8115257" x="119.098767" y="194.953298" style="fill: #1f77b4; stroke: #1f77b4"/>
     <use xlink:href="#m73d8115257" x="93.734384" y="154.552845" style="fill: #1f77b4; stroke: #1f77b4"/>
     <use xlink:href="#m73d8115257" x="93.734384" y="126.337003" style="fill: #1f77b4; stroke: #1f77b4"/>
     <use xlink:href="#m73d8115257" x="93.734384" y="151.65854" style="fill: #1f77b4; stroke: #1f77b4"/>
     <use xlink:href="#m73d8115257" x="93.734384" y="204.467416" style="fill: #1f77b4; stroke: #1f77b4"/>
     <use xlink:href="#m73d8115257" x="93.734384" y="186.088505" style="fill: #1f77b4; stroke: #1f77b4"/>
     <use xlink:href="#m73d8115257" x="93.734384" y="171.046732" style="fill: #1f77b4; stroke: #1f77b4"/>
     <use xlink:href="#m73d8115257" x="119.098767" y="197.276507" style="fill: #1f77b4; stroke: #1f77b4"/>
     <use xlink:href="#m73d8115257" x="68.37" y="228.710355" style="fill: #1f77b4; stroke: #1f77b4"/>
     <use xlink:href="#m73d8115257" x="93.734384" y="183.12135" style="fill: #1f77b4; stroke: #1f77b4"/>
     <use xlink:href="#m73d8115257" x="93.734384" y="222.876172" style="fill: #1f77b4; stroke: #1f77b4"/>
     <use xlink:href="#m73d8115257" x="93.734384" y="224.416532" style="fill: #1f77b4; stroke: #1f77b4"/>
     <use xlink:href="#m73d8115257" x="93.734384" y="137.378547" style="fill: #1f77b4; stroke: #1f77b4"/>
     <use xlink:href="#m73d8115257" x="144.463151" y="224.003959" style="fill: #1f77b4; stroke: #1f77b4"/>
     <use xlink:href="#m73d8115257" x="93.734384" y="163.227152" style="fill: #1f77b4; stroke: #1f77b4"/>
     <use xlink:href="#m73d8115257" x="119.098767" y="217.239486" style="fill: #1f77b4; stroke: #1f77b4"/>
     <use xlink:href="#m73d8115257" x="93.734384" y="153.927232" style="fill: #1f77b4; stroke: #1f77b4"/>
     <use xlink:href="#m73d8115257" x="119.098767" y="190.906783" style="fill: #1f77b4; stroke: #1f77b4"/>
     <use xlink:href="#m73d8115257" x="93.734384" y="158.934353" style="fill: #1f77b4; stroke: #1f77b4"/>
     <use xlink:href="#m73d8115257" x="93.734384" y="97.71956" style="fill: #1f77b4; stroke: #1f77b4"/>
     <use xlink:href="#m73d8115257" x="349.491918" y="194.499085" style="fill: #1f77b4; stroke: #1f77b4"/>
     <use xlink:href="#m73d8115257" x="345.264521" y="83.605193" style="fill: #1f77b4; stroke: #1f77b4"/>
     <use xlink:href="#m73d8115257" x="330.46863" y="192.645507" style="fill: #1f77b4; stroke: #1f77b4"/>
     <use xlink:href="#m73d8115257" x="283.96726" y="115.051295" style="fill: #1f77b4; stroke: #1f77b4"/>
     <use xlink:href="#m73d8115257" x="328.354932" y="131.88523" style="fill: #1f77b4; stroke: #1f77b4"/>
     <use xlink:href="#m73d8115257" x="286.080959" y="120.541234" style="fill: #1f77b4; stroke: #1f77b4"/>
     <use xlink:href="#m73d8115257" x="273.398767" y="125.063614" style="fill: #1f77b4; stroke: #1f77b4"/>
     <use xlink:href="#m73d8115257" x="322.013836" y="198.491098" style="fill: #1f77b4; stroke: #1f77b4"/>
     <use xlink:href="#m73d8115257" x="362.17411" y="163.404592" style="fill: #1f77b4; stroke: #1f77b4"/>
     <use xlink:href="#m73d8115257" x="336.809726" y="137.076619" style="fill: #1f77b4; stroke: #1f77b4"/>
     <use xlink:href="#m73d8115257" x="338.923425" y="133.07131" style="fill: #1f77b4; stroke: #1f77b4"/>
     <use xlink:href="#m73d8115257" x="288.194658" y="84.895645" style="fill: #1f77b4; stroke: #1f77b4"/>
     <use xlink:href="#m73d8115257" x="334.696027" y="179.279471" style="fill: #1f77b4; stroke: #1f77b4"/>
     <use xlink:href="#m73d8115257" x="347.378219" y="120.393659" style="fill: #1f77b4; stroke: #1f77b4"/>
     <use xlink:href="#m73d8115257" x="349.491918" y="130.796095" style="fill: #1f77b4; stroke: #1f77b4"/>
     <use xlink:href="#m73d8115257" x="292.422055" y="114.66037" style="fill: #1f77b4; stroke: #1f77b4"/>
     <use xlink:href="#m73d8115257" x="317.786438" y="123.014293" style="fill: #1f77b4; stroke: #1f77b4"/>
     <use xlink:href="#m73d8115257" x="286.080959" y="217.456463" style="fill: #1f77b4; stroke: #1f77b4"/>
     <use xlink:href="#m73d8115257" x="334.696027" y="152.679925" style="fill: #1f77b4; stroke: #1f77b4"/>
     <use xlink:href="#m73d8115257" x="317.786438" y="127.310104" style="fill: #1f77b4; stroke: #1f77b4"/>
     <use xlink:href="#m73d8115257" x="286.080959" y="177.229115" style="fill: #1f77b4; stroke: #1f77b4"/>
     <use xlink:href="#m73d8115257" x="364.287808" y="200.643686" style="fill: #1f77b4; stroke: #1f77b4"/>
     <use xlink:href="#m73d8115257" x="296.649452" y="185.953059" style="fill: #1f77b4; stroke: #1f77b4"/>
     <use xlink:href="#m73d8115257" x="355.833014" y="161.775213" style="fill: #1f77b4; stroke: #1f77b4"/>
     <use xlink:href="#m73d8115257" x="357.946712" y="178.884289" style="fill: #1f77b4; stroke: #1f77b4"/>
     <use xlink:href="#m73d8115257" x="343.150822" y="98.060829" style="fill: #1f77b4; stroke: #1f77b4"/>
     <use xlink:href="#m73d8115257" x="292.422055" y="139.129464" style="fill: #1f77b4; stroke: #1f77b4"/>
     <use xlink:href="#m73d8115257" x="292.422055" y="146.814464" style="fill: #1f77b4; stroke: #1f77b4"/>
     <use xlink:href="#m73d8115257" x="324.127534" y="126.478863" style="fill: #1f77b4; stroke: #1f77b4"/>
     <use xlink:href="#m73d8115257" x="360.060411" y="118.028646" style="fill: #1f77b4; stroke: #1f77b4"/>
     <use xlink:href="#m73d8115257" x="296.649452" y="143.746129" style="fill: #1f77b4; stroke: #1f77b4"/>
     <use xlink:href="#m73d8115257" x="269.17137" y="106.032794" style="fill: #1f77b4; stroke: #1f77b4"/>
     <use xlink:href="#m73d8115257" x="326.241233" y="133.183599" style="fill: #1f77b4; stroke: #1f77b4"/>
     <use xlink:href="#m73d8115257" x="349.491918" y="186.844601" style="fill: #1f77b4; stroke: #1f77b4"/>
     <use xlink:href="#m73d8115257" x="311.445342" y="118.5895" style="fill: #1f77b4; stroke: #1f77b4"/>
     <use xlink:href="#m73d8115257" x="332.582329" y="180.322415" style="fill: #1f77b4; stroke: #1f77b4"/>
     <use xlink:href="#m73d8115257" x="338.923425" y="161.079524" style="fill: #1f77b4; stroke: #1f77b4"/>
     <use xlink:href="#m73d8115257" x="298.763151" y="114.96271" style="fill: #1f77b4; stroke: #1f77b4"/>
     <use xlink:href="#m73d8115257" x="357.946712" y="98.265778" style="fill: #1f77b4; stroke: #1f77b4"/>
     <use xlink:href="#m73d8115257" x="334.696027" y="107.123859" style="fill: #1f77b4; stroke: #1f77b4"/>
     <use xlink:href="#m73d8115257" x="338.923425" y="159.896495" style="fill: #1f77b4; stroke: #1f77b4"/>
     <use xlink:href="#m73d8115257" x="360.060411" y="134.407384" style="fill: #1f77b4; stroke: #1f77b4"/>
     <use xlink:href="#m73d8115257" x="290.308356" y="127.715195" style="fill: #1f77b4; stroke: #1f77b4"/>
     <use xlink:href="#m73d8115257" x="345.264521" y="153.306219" style="fill: #1f77b4; stroke: #1f77b4"/>
     <use xlink:href="#m73d8115257" x="283.96726" y="174.923746" style="fill: #1f77b4; stroke: #1f77b4"/>
     <use xlink:href="#m73d8115257" x="273.398767" y="150.295065" style="fill: #1f77b4; stroke: #1f77b4"/>
     <use xlink:href="#m73d8115257" x="345.264521" y="187.257141" style="fill: #1f77b4; stroke: #1f77b4"/>
     <use xlink:href="#m73d8115257" x="322.013836" y="170.479519" style="fill: #1f77b4; stroke: #1f77b4"/>
     <use xlink:href="#m73d8115257" x="302.990548" y="98.864185" style="fill: #1f77b4; stroke: #1f77b4"/>
     <use xlink:href="#m73d8115257" x="338.923425" y="190.403798" style="fill: #1f77b4; stroke: #1f77b4"/>
     <use xlink:href="#m73d8115257" x="326.241233" y="123.959442" style="fill: #1f77b4; stroke: #1f77b4"/>
     <use xlink:href="#m73d8115257" x="294.535753" y="163.36332" style="fill: #1f77b4; stroke: #1f77b4"/>
     <use xlink:href="#m73d8115257" x="317.786438" y="107.622413" style="fill: #1f77b4; stroke: #1f77b4"/>
     <use xlink:href="#m73d8115257" x="376.97" y="149.149981" style="fill: #1f77b4; stroke: #1f77b4"/>
     <use xlink:href="#m73d8115257" x="349.491918" y="112.502827" style="fill: #1f77b4; stroke: #1f77b4"/>
     <use xlink:href="#m73d8115257" x="345.264521" y="52.628739" style="fill: #1f77b4; stroke: #1f77b4"/>
    </g>
   </g>
   <g id="matplotlib.axis_1">
    <g id="xtick_1">
     <g id="line2d_1">
      <defs>
       <path id="mb755d50194" d="M 0 0 
L 0 3.5 
" style="stroke: #000000; stroke-width: 0.8"/>
      </defs>
      <g>
       <use xlink:href="#mb755d50194" x="93.734384" y="274.84" style="stroke: #000000; stroke-width: 0.8"/>
      </g>
     </g>
     <g id="text_1">
      <!-- 20 -->
      <g transform="translate(87.371884 289.438438) scale(0.1 -0.1)">
       <defs>
        <path id="DejaVuSans-32" d="M 1228 531 
L 3431 531 
L 3431 0 
L 469 0 
L 469 531 
Q 828 903 1448 1529 
Q 2069 2156 2228 2338 
Q 2531 2678 2651 2914 
Q 2772 3150 2772 3378 
Q 2772 3750 2511 3984 
Q 2250 4219 1831 4219 
Q 1534 4219 1204 4116 
Q 875 4013 500 3803 
L 500 4441 
Q 881 4594 1212 4672 
Q 1544 4750 1819 4750 
Q 2544 4750 2975 4387 
Q 3406 4025 3406 3419 
Q 3406 3131 3298 2873 
Q 3191 2616 2906 2266 
Q 2828 2175 2409 1742 
Q 1991 1309 1228 531 
z
" transform="scale(0.015625)"/>
        <path id="DejaVuSans-30" d="M 2034 4250 
Q 1547 4250 1301 3770 
Q 1056 3291 1056 2328 
Q 1056 1369 1301 889 
Q 1547 409 2034 409 
Q 2525 409 2770 889 
Q 3016 1369 3016 2328 
Q 3016 3291 2770 3770 
Q 2525 4250 2034 4250 
z
M 2034 4750 
Q 2819 4750 3233 4129 
Q 3647 3509 3647 2328 
Q 3647 1150 3233 529 
Q 2819 -91 2034 -91 
Q 1250 -91 836 529 
Q 422 1150 422 2328 
Q 422 3509 836 4129 
Q 1250 4750 2034 4750 
z
" transform="scale(0.015625)"/>
       </defs>
       <use xlink:href="#DejaVuSans-32"/>
       <use xlink:href="#DejaVuSans-30" transform="translate(63.623047 0)"/>
      </g>
     </g>
    </g>
    <g id="xtick_2">
     <g id="line2d_2">
      <g>
       <use xlink:href="#mb755d50194" x="144.463151" y="274.84" style="stroke: #000000; stroke-width: 0.8"/>
      </g>
     </g>
     <g id="text_2">
      <!-- 22 -->
      <g transform="translate(138.100651 289.438438) scale(0.1 -0.1)">
       <use xlink:href="#DejaVuSans-32"/>
       <use xlink:href="#DejaVuSans-32" transform="translate(63.623047 0)"/>
      </g>
     </g>
    </g>
    <g id="xtick_3">
     <g id="line2d_3">
      <g>
       <use xlink:href="#mb755d50194" x="195.191918" y="274.84" style="stroke: #000000; stroke-width: 0.8"/>
      </g>
     </g>
     <g id="text_3">
      <!-- 24 -->
      <g transform="translate(188.829418 289.438438) scale(0.1 -0.1)">
       <defs>
        <path id="DejaVuSans-34" d="M 2419 4116 
L 825 1625 
L 2419 1625 
L 2419 4116 
z
M 2253 4666 
L 3047 4666 
L 3047 1625 
L 3713 1625 
L 3713 1100 
L 3047 1100 
L 3047 0 
L 2419 0 
L 2419 1100 
L 313 1100 
L 313 1709 
L 2253 4666 
z
" transform="scale(0.015625)"/>
       </defs>
       <use xlink:href="#DejaVuSans-32"/>
       <use xlink:href="#DejaVuSans-34" transform="translate(63.623047 0)"/>
      </g>
     </g>
    </g>
    <g id="xtick_4">
     <g id="line2d_4">
      <g>
       <use xlink:href="#mb755d50194" x="245.920685" y="274.84" style="stroke: #000000; stroke-width: 0.8"/>
      </g>
     </g>
     <g id="text_4">
      <!-- 26 -->
      <g transform="translate(239.558185 289.438438) scale(0.1 -0.1)">
       <defs>
        <path id="DejaVuSans-36" d="M 2113 2584 
Q 1688 2584 1439 2293 
Q 1191 2003 1191 1497 
Q 1191 994 1439 701 
Q 1688 409 2113 409 
Q 2538 409 2786 701 
Q 3034 994 3034 1497 
Q 3034 2003 2786 2293 
Q 2538 2584 2113 2584 
z
M 3366 4563 
L 3366 3988 
Q 3128 4100 2886 4159 
Q 2644 4219 2406 4219 
Q 1781 4219 1451 3797 
Q 1122 3375 1075 2522 
Q 1259 2794 1537 2939 
Q 1816 3084 2150 3084 
Q 2853 3084 3261 2657 
Q 3669 2231 3669 1497 
Q 3669 778 3244 343 
Q 2819 -91 2113 -91 
Q 1303 -91 875 529 
Q 447 1150 447 2328 
Q 447 3434 972 4092 
Q 1497 4750 2381 4750 
Q 2619 4750 2861 4703 
Q 3103 4656 3366 4563 
z
" transform="scale(0.015625)"/>
       </defs>
       <use xlink:href="#DejaVuSans-32"/>
       <use xlink:href="#DejaVuSans-36" transform="translate(63.623047 0)"/>
      </g>
     </g>
    </g>
    <g id="xtick_5">
     <g id="line2d_5">
      <g>
       <use xlink:href="#mb755d50194" x="296.649452" y="274.84" style="stroke: #000000; stroke-width: 0.8"/>
      </g>
     </g>
     <g id="text_5">
      <!-- 28 -->
      <g transform="translate(290.286952 289.438438) scale(0.1 -0.1)">
       <defs>
        <path id="DejaVuSans-38" d="M 2034 2216 
Q 1584 2216 1326 1975 
Q 1069 1734 1069 1313 
Q 1069 891 1326 650 
Q 1584 409 2034 409 
Q 2484 409 2743 651 
Q 3003 894 3003 1313 
Q 3003 1734 2745 1975 
Q 2488 2216 2034 2216 
z
M 1403 2484 
Q 997 2584 770 2862 
Q 544 3141 544 3541 
Q 544 4100 942 4425 
Q 1341 4750 2034 4750 
Q 2731 4750 3128 4425 
Q 3525 4100 3525 3541 
Q 3525 3141 3298 2862 
Q 3072 2584 2669 2484 
Q 3125 2378 3379 2068 
Q 3634 1759 3634 1313 
Q 3634 634 3220 271 
Q 2806 -91 2034 -91 
Q 1263 -91 848 271 
Q 434 634 434 1313 
Q 434 1759 690 2068 
Q 947 2378 1403 2484 
z
M 1172 3481 
Q 1172 3119 1398 2916 
Q 1625 2713 2034 2713 
Q 2441 2713 2670 2916 
Q 2900 3119 2900 3481 
Q 2900 3844 2670 4047 
Q 2441 4250 2034 4250 
Q 1625 4250 1398 4047 
Q 1172 3844 1172 3481 
z
" transform="scale(0.015625)"/>
       </defs>
       <use xlink:href="#DejaVuSans-32"/>
       <use xlink:href="#DejaVuSans-38" transform="translate(63.623047 0)"/>
      </g>
     </g>
    </g>
    <g id="xtick_6">
     <g id="line2d_6">
      <g>
       <use xlink:href="#mb755d50194" x="347.378219" y="274.84" style="stroke: #000000; stroke-width: 0.8"/>
      </g>
     </g>
     <g id="text_6">
      <!-- 30 -->
      <g transform="translate(341.015719 289.438438) scale(0.1 -0.1)">
       <defs>
        <path id="DejaVuSans-33" d="M 2597 2516 
Q 3050 2419 3304 2112 
Q 3559 1806 3559 1356 
Q 3559 666 3084 287 
Q 2609 -91 1734 -91 
Q 1441 -91 1130 -33 
Q 819 25 488 141 
L 488 750 
Q 750 597 1062 519 
Q 1375 441 1716 441 
Q 2309 441 2620 675 
Q 2931 909 2931 1356 
Q 2931 1769 2642 2001 
Q 2353 2234 1838 2234 
L 1294 2234 
L 1294 2753 
L 1863 2753 
Q 2328 2753 2575 2939 
Q 2822 3125 2822 3475 
Q 2822 3834 2567 4026 
Q 2313 4219 1838 4219 
Q 1578 4219 1281 4162 
Q 984 4106 628 3988 
L 628 4550 
Q 988 4650 1302 4700 
Q 1616 4750 1894 4750 
Q 2613 4750 3031 4423 
Q 3450 4097 3450 3541 
Q 3450 3153 3228 2886 
Q 3006 2619 2597 2516 
z
" transform="scale(0.015625)"/>
       </defs>
       <use xlink:href="#DejaVuSans-33"/>
       <use xlink:href="#DejaVuSans-30" transform="translate(63.623047 0)"/>
      </g>
     </g>
    </g>
    <g id="text_7">
     <!-- Age (controls) -->
     <g transform="translate(187.574688 303.116562) scale(0.1 -0.1)">
      <defs>
       <path id="DejaVuSans-41" d="M 2188 4044 
L 1331 1722 
L 3047 1722 
L 2188 4044 
z
M 1831 4666 
L 2547 4666 
L 4325 0 
L 3669 0 
L 3244 1197 
L 1141 1197 
L 716 0 
L 50 0 
L 1831 4666 
z
" transform="scale(0.015625)"/>
       <path id="DejaVuSans-67" d="M 2906 1791 
Q 2906 2416 2648 2759 
Q 2391 3103 1925 3103 
Q 1463 3103 1205 2759 
Q 947 2416 947 1791 
Q 947 1169 1205 825 
Q 1463 481 1925 481 
Q 2391 481 2648 825 
Q 2906 1169 2906 1791 
z
M 3481 434 
Q 3481 -459 3084 -895 
Q 2688 -1331 1869 -1331 
Q 1566 -1331 1297 -1286 
Q 1028 -1241 775 -1147 
L 775 -588 
Q 1028 -725 1275 -790 
Q 1522 -856 1778 -856 
Q 2344 -856 2625 -561 
Q 2906 -266 2906 331 
L 2906 616 
Q 2728 306 2450 153 
Q 2172 0 1784 0 
Q 1141 0 747 490 
Q 353 981 353 1791 
Q 353 2603 747 3093 
Q 1141 3584 1784 3584 
Q 2172 3584 2450 3431 
Q 2728 3278 2906 2969 
L 2906 3500 
L 3481 3500 
L 3481 434 
z
" transform="scale(0.015625)"/>
       <path id="DejaVuSans-65" d="M 3597 1894 
L 3597 1613 
L 953 1613 
Q 991 1019 1311 708 
Q 1631 397 2203 397 
Q 2534 397 2845 478 
Q 3156 559 3463 722 
L 3463 178 
Q 3153 47 2828 -22 
Q 2503 -91 2169 -91 
Q 1331 -91 842 396 
Q 353 884 353 1716 
Q 353 2575 817 3079 
Q 1281 3584 2069 3584 
Q 2775 3584 3186 3129 
Q 3597 2675 3597 1894 
z
M 3022 2063 
Q 3016 2534 2758 2815 
Q 2500 3097 2075 3097 
Q 1594 3097 1305 2825 
Q 1016 2553 972 2059 
L 3022 2063 
z
" transform="scale(0.015625)"/>
       <path id="DejaVuSans-20" transform="scale(0.015625)"/>
       <path id="DejaVuSans-28" d="M 1984 4856 
Q 1566 4138 1362 3434 
Q 1159 2731 1159 2009 
Q 1159 1288 1364 580 
Q 1569 -128 1984 -844 
L 1484 -844 
Q 1016 -109 783 600 
Q 550 1309 550 2009 
Q 550 2706 781 3412 
Q 1013 4119 1484 4856 
L 1984 4856 
z
" transform="scale(0.015625)"/>
       <path id="DejaVuSans-63" d="M 3122 3366 
L 3122 2828 
Q 2878 2963 2633 3030 
Q 2388 3097 2138 3097 
Q 1578 3097 1268 2742 
Q 959 2388 959 1747 
Q 959 1106 1268 751 
Q 1578 397 2138 397 
Q 2388 397 2633 464 
Q 2878 531 3122 666 
L 3122 134 
Q 2881 22 2623 -34 
Q 2366 -91 2075 -91 
Q 1284 -91 818 406 
Q 353 903 353 1747 
Q 353 2603 823 3093 
Q 1294 3584 2113 3584 
Q 2378 3584 2631 3529 
Q 2884 3475 3122 3366 
z
" transform="scale(0.015625)"/>
       <path id="DejaVuSans-6f" d="M 1959 3097 
Q 1497 3097 1228 2736 
Q 959 2375 959 1747 
Q 959 1119 1226 758 
Q 1494 397 1959 397 
Q 2419 397 2687 759 
Q 2956 1122 2956 1747 
Q 2956 2369 2687 2733 
Q 2419 3097 1959 3097 
z
M 1959 3584 
Q 2709 3584 3137 3096 
Q 3566 2609 3566 1747 
Q 3566 888 3137 398 
Q 2709 -91 1959 -91 
Q 1206 -91 779 398 
Q 353 888 353 1747 
Q 353 2609 779 3096 
Q 1206 3584 1959 3584 
z
" transform="scale(0.015625)"/>
       <path id="DejaVuSans-6e" d="M 3513 2113 
L 3513 0 
L 2938 0 
L 2938 2094 
Q 2938 2591 2744 2837 
Q 2550 3084 2163 3084 
Q 1697 3084 1428 2787 
Q 1159 2491 1159 1978 
L 1159 0 
L 581 0 
L 581 3500 
L 1159 3500 
L 1159 2956 
Q 1366 3272 1645 3428 
Q 1925 3584 2291 3584 
Q 2894 3584 3203 3211 
Q 3513 2838 3513 2113 
z
" transform="scale(0.015625)"/>
       <path id="DejaVuSans-74" d="M 1172 4494 
L 1172 3500 
L 2356 3500 
L 2356 3053 
L 1172 3053 
L 1172 1153 
Q 1172 725 1289 603 
Q 1406 481 1766 481 
L 2356 481 
L 2356 0 
L 1766 0 
Q 1100 0 847 248 
Q 594 497 594 1153 
L 594 3053 
L 172 3053 
L 172 3500 
L 594 3500 
L 594 4494 
L 1172 4494 
z
" transform="scale(0.015625)"/>
       <path id="DejaVuSans-72" d="M 2631 2963 
Q 2534 3019 2420 3045 
Q 2306 3072 2169 3072 
Q 1681 3072 1420 2755 
Q 1159 2438 1159 1844 
L 1159 0 
L 581 0 
L 581 3500 
L 1159 3500 
L 1159 2956 
Q 1341 3275 1631 3429 
Q 1922 3584 2338 3584 
Q 2397 3584 2469 3576 
Q 2541 3569 2628 3553 
L 2631 2963 
z
" transform="scale(0.015625)"/>
       <path id="DejaVuSans-6c" d="M 603 4863 
L 1178 4863 
L 1178 0 
L 603 0 
L 603 4863 
z
" transform="scale(0.015625)"/>
       <path id="DejaVuSans-73" d="M 2834 3397 
L 2834 2853 
Q 2591 2978 2328 3040 
Q 2066 3103 1784 3103 
Q 1356 3103 1142 2972 
Q 928 2841 928 2578 
Q 928 2378 1081 2264 
Q 1234 2150 1697 2047 
L 1894 2003 
Q 2506 1872 2764 1633 
Q 3022 1394 3022 966 
Q 3022 478 2636 193 
Q 2250 -91 1575 -91 
Q 1294 -91 989 -36 
Q 684 19 347 128 
L 347 722 
Q 666 556 975 473 
Q 1284 391 1588 391 
Q 1994 391 2212 530 
Q 2431 669 2431 922 
Q 2431 1156 2273 1281 
Q 2116 1406 1581 1522 
L 1381 1569 
Q 847 1681 609 1914 
Q 372 2147 372 2553 
Q 372 3047 722 3315 
Q 1072 3584 1716 3584 
Q 2034 3584 2315 3537 
Q 2597 3491 2834 3397 
z
" transform="scale(0.015625)"/>
       <path id="DejaVuSans-29" d="M 513 4856 
L 1013 4856 
Q 1481 4119 1714 3412 
Q 1947 2706 1947 2009 
Q 1947 1309 1714 600 
Q 1481 -109 1013 -844 
L 513 -844 
Q 928 -128 1133 580 
Q 1338 1288 1338 2009 
Q 1338 2731 1133 3434 
Q 928 4138 513 4856 
z
" transform="scale(0.015625)"/>
      </defs>
      <use xlink:href="#DejaVuSans-41"/>
      <use xlink:href="#DejaVuSans-67" transform="translate(68.408203 0)"/>
      <use xlink:href="#DejaVuSans-65" transform="translate(131.884766 0)"/>
      <use xlink:href="#DejaVuSans-20" transform="translate(193.408203 0)"/>
      <use xlink:href="#DejaVuSans-28" transform="translate(225.195312 0)"/>
      <use xlink:href="#DejaVuSans-63" transform="translate(264.208984 0)"/>
      <use xlink:href="#DejaVuSans-6f" transform="translate(319.189453 0)"/>
      <use xlink:href="#DejaVuSans-6e" transform="translate(380.371094 0)"/>
      <use xlink:href="#DejaVuSans-74" transform="translate(443.75 0)"/>
      <use xlink:href="#DejaVuSans-72" transform="translate(482.958984 0)"/>
      <use xlink:href="#DejaVuSans-6f" transform="translate(521.822266 0)"/>
      <use xlink:href="#DejaVuSans-6c" transform="translate(583.003906 0)"/>
      <use xlink:href="#DejaVuSans-73" transform="translate(610.787109 0)"/>
      <use xlink:href="#DejaVuSans-29" transform="translate(662.886719 0)"/>
     </g>
    </g>
   </g>
   <g id="matplotlib.axis_2">
    <g id="ytick_1">
     <g id="line2d_7">
      <defs>
       <path id="me020b7d626" d="M 0 0 
L -3.5 0 
" style="stroke: #000000; stroke-width: 0.8"/>
      </defs>
      <g>
       <use xlink:href="#me020b7d626" x="52.94" y="258.216428" style="stroke: #000000; stroke-width: 0.8"/>
      </g>
     </g>
     <g id="text_8">
      <!-- −15 -->
      <g transform="translate(24.835313 262.015647) scale(0.1 -0.1)">
       <defs>
        <path id="DejaVuSans-2212" d="M 678 2272 
L 4684 2272 
L 4684 1741 
L 678 1741 
L 678 2272 
z
" transform="scale(0.015625)"/>
        <path id="DejaVuSans-31" d="M 794 531 
L 1825 531 
L 1825 4091 
L 703 3866 
L 703 4441 
L 1819 4666 
L 2450 4666 
L 2450 531 
L 3481 531 
L 3481 0 
L 794 0 
L 794 531 
z
" transform="scale(0.015625)"/>
        <path id="DejaVuSans-35" d="M 691 4666 
L 3169 4666 
L 3169 4134 
L 1269 4134 
L 1269 2991 
Q 1406 3038 1543 3061 
Q 1681 3084 1819 3084 
Q 2600 3084 3056 2656 
Q 3513 2228 3513 1497 
Q 3513 744 3044 326 
Q 2575 -91 1722 -91 
Q 1428 -91 1123 -41 
Q 819 9 494 109 
L 494 744 
Q 775 591 1075 516 
Q 1375 441 1709 441 
Q 2250 441 2565 725 
Q 2881 1009 2881 1497 
Q 2881 1984 2565 2268 
Q 2250 2553 1709 2553 
Q 1456 2553 1204 2497 
Q 953 2441 691 2322 
L 691 4666 
z
" transform="scale(0.015625)"/>
       </defs>
       <use xlink:href="#DejaVuSans-2212"/>
       <use xlink:href="#DejaVuSans-31" transform="translate(83.789062 0)"/>
       <use xlink:href="#DejaVuSans-35" transform="translate(147.412109 0)"/>
      </g>
     </g>
    </g>
    <g id="ytick_2">
     <g id="line2d_8">
      <g>
       <use xlink:href="#me020b7d626" x="52.94" y="226.973497" style="stroke: #000000; stroke-width: 0.8"/>
      </g>
     </g>
     <g id="text_9">
      <!-- −10 -->
      <g transform="translate(24.835313 230.772716) scale(0.1 -0.1)">
       <use xlink:href="#DejaVuSans-2212"/>
       <use xlink:href="#DejaVuSans-31" transform="translate(83.789062 0)"/>
       <use xlink:href="#DejaVuSans-30" transform="translate(147.412109 0)"/>
      </g>
     </g>
    </g>
    <g id="ytick_3">
     <g id="line2d_9">
      <g>
       <use xlink:href="#me020b7d626" x="52.94" y="195.730566" style="stroke: #000000; stroke-width: 0.8"/>
      </g>
     </g>
     <g id="text_10">
      <!-- −5 -->
      <g transform="translate(31.197813 199.529785) scale(0.1 -0.1)">
       <use xlink:href="#DejaVuSans-2212"/>
       <use xlink:href="#DejaVuSans-35" transform="translate(83.789062 0)"/>
      </g>
     </g>
    </g>
    <g id="ytick_4">
     <g id="line2d_10">
      <g>
       <use xlink:href="#me020b7d626" x="52.94" y="164.487636" style="stroke: #000000; stroke-width: 0.8"/>
      </g>
     </g>
     <g id="text_11">
      <!-- 0 -->
      <g transform="translate(39.5775 168.286854) scale(0.1 -0.1)">
       <use xlink:href="#DejaVuSans-30"/>
      </g>
     </g>
    </g>
    <g id="ytick_5">
     <g id="line2d_11">
      <g>
       <use xlink:href="#me020b7d626" x="52.94" y="133.244705" style="stroke: #000000; stroke-width: 0.8"/>
      </g>
     </g>
     <g id="text_12">
      <!-- 5 -->
      <g transform="translate(39.5775 137.043924) scale(0.1 -0.1)">
       <use xlink:href="#DejaVuSans-35"/>
      </g>
     </g>
    </g>
    <g id="ytick_6">
     <g id="line2d_12">
      <g>
       <use xlink:href="#me020b7d626" x="52.94" y="102.001774" style="stroke: #000000; stroke-width: 0.8"/>
      </g>
     </g>
     <g id="text_13">
      <!-- 10 -->
      <g transform="translate(33.215 105.800993) scale(0.1 -0.1)">
       <use xlink:href="#DejaVuSans-31"/>
       <use xlink:href="#DejaVuSans-30" transform="translate(63.623047 0)"/>
      </g>
     </g>
    </g>
    <g id="ytick_7">
     <g id="line2d_13">
      <g>
       <use xlink:href="#me020b7d626" x="52.94" y="70.758843" style="stroke: #000000; stroke-width: 0.8"/>
      </g>
     </g>
     <g id="text_14">
      <!-- 15 -->
      <g transform="translate(33.215 74.558062) scale(0.1 -0.1)">
       <use xlink:href="#DejaVuSans-31"/>
       <use xlink:href="#DejaVuSans-35" transform="translate(63.623047 0)"/>
      </g>
     </g>
    </g>
    <g id="text_15">
     <!-- PCA age-axis score (+older-like) -->
     <g transform="translate(18.755625 238.606125) rotate(-90) scale(0.1 -0.1)">
      <defs>
       <path id="DejaVuSans-50" d="M 1259 4147 
L 1259 2394 
L 2053 2394 
Q 2494 2394 2734 2622 
Q 2975 2850 2975 3272 
Q 2975 3691 2734 3919 
Q 2494 4147 2053 4147 
L 1259 4147 
z
M 628 4666 
L 2053 4666 
Q 2838 4666 3239 4311 
Q 3641 3956 3641 3272 
Q 3641 2581 3239 2228 
Q 2838 1875 2053 1875 
L 1259 1875 
L 1259 0 
L 628 0 
L 628 4666 
z
" transform="scale(0.015625)"/>
       <path id="DejaVuSans-43" d="M 4122 4306 
L 4122 3641 
Q 3803 3938 3442 4084 
Q 3081 4231 2675 4231 
Q 1875 4231 1450 3742 
Q 1025 3253 1025 2328 
Q 1025 1406 1450 917 
Q 1875 428 2675 428 
Q 3081 428 3442 575 
Q 3803 722 4122 1019 
L 4122 359 
Q 3791 134 3420 21 
Q 3050 -91 2638 -91 
Q 1578 -91 968 557 
Q 359 1206 359 2328 
Q 359 3453 968 4101 
Q 1578 4750 2638 4750 
Q 3056 4750 3426 4639 
Q 3797 4528 4122 4306 
z
" transform="scale(0.015625)"/>
       <path id="DejaVuSans-61" d="M 2194 1759 
Q 1497 1759 1228 1600 
Q 959 1441 959 1056 
Q 959 750 1161 570 
Q 1363 391 1709 391 
Q 2188 391 2477 730 
Q 2766 1069 2766 1631 
L 2766 1759 
L 2194 1759 
z
M 3341 1997 
L 3341 0 
L 2766 0 
L 2766 531 
Q 2569 213 2275 61 
Q 1981 -91 1556 -91 
Q 1019 -91 701 211 
Q 384 513 384 1019 
Q 384 1609 779 1909 
Q 1175 2209 1959 2209 
L 2766 2209 
L 2766 2266 
Q 2766 2663 2505 2880 
Q 2244 3097 1772 3097 
Q 1472 3097 1187 3025 
Q 903 2953 641 2809 
L 641 3341 
Q 956 3463 1253 3523 
Q 1550 3584 1831 3584 
Q 2591 3584 2966 3190 
Q 3341 2797 3341 1997 
z
" transform="scale(0.015625)"/>
       <path id="DejaVuSans-2d" d="M 313 2009 
L 1997 2009 
L 1997 1497 
L 313 1497 
L 313 2009 
z
" transform="scale(0.015625)"/>
       <path id="DejaVuSans-78" d="M 3513 3500 
L 2247 1797 
L 3578 0 
L 2900 0 
L 1881 1375 
L 863 0 
L 184 0 
L 1544 1831 
L 300 3500 
L 978 3500 
L 1906 2253 
L 2834 3500 
L 3513 3500 
z
" transform="scale(0.015625)"/>
       <path id="DejaVuSans-69" d="M 603 3500 
L 1178 3500 
L 1178 0 
L 603 0 
L 603 3500 
z
M 603 4863 
L 1178 4863 
L 1178 4134 
L 603 4134 
L 603 4863 
z
" transform="scale(0.015625)"/>
       <path id="DejaVuSans-2b" d="M 2944 4013 
L 2944 2272 
L 4684 2272 
L 4684 1741 
L 2944 1741 
L 2944 0 
L 2419 0 
L 2419 1741 
L 678 1741 
L 678 2272 
L 2419 2272 
L 2419 4013 
L 2944 4013 
z
" transform="scale(0.015625)"/>
       <path id="DejaVuSans-64" d="M 2906 2969 
L 2906 4863 
L 3481 4863 
L 3481 0 
L 2906 0 
L 2906 525 
Q 2725 213 2448 61 
Q 2172 -91 1784 -91 
Q 1150 -91 751 415 
Q 353 922 353 1747 
Q 353 2572 751 3078 
Q 1150 3584 1784 3584 
Q 2172 3584 2448 3432 
Q 2725 3281 2906 2969 
z
M 947 1747 
Q 947 1113 1208 752 
Q 1469 391 1925 391 
Q 2381 391 2643 752 
Q 2906 1113 2906 1747 
Q 2906 2381 2643 2742 
Q 2381 3103 1925 3103 
Q 1469 3103 1208 2742 
Q 947 2381 947 1747 
z
" transform="scale(0.015625)"/>
       <path id="DejaVuSans-6b" d="M 581 4863 
L 1159 4863 
L 1159 1991 
L 2875 3500 
L 3609 3500 
L 1753 1863 
L 3688 0 
L 2938 0 
L 1159 1709 
L 1159 0 
L 581 0 
L 581 4863 
z
" transform="scale(0.015625)"/>
      </defs>
      <use xlink:href="#DejaVuSans-50"/>
      <use xlink:href="#DejaVuSans-43" transform="translate(60.302734 0)"/>
      <use xlink:href="#DejaVuSans-41" transform="translate(130.126953 0)"/>
      <use xlink:href="#DejaVuSans-20" transform="translate(198.535156 0)"/>
      <use xlink:href="#DejaVuSans-61" transform="translate(230.322266 0)"/>
      <use xlink:href="#DejaVuSans-67" transform="translate(291.601562 0)"/>
      <use xlink:href="#DejaVuSans-65" transform="translate(355.078125 0)"/>
      <use xlink:href="#DejaVuSans-2d" transform="translate(416.601562 0)"/>
      <use xlink:href="#DejaVuSans-61" transform="translate(452.685547 0)"/>
      <use xlink:href="#DejaVuSans-78" transform="translate(513.964844 0)"/>
      <use xlink:href="#DejaVuSans-69" transform="translate(573.144531 0)"/>
      <use xlink:href="#DejaVuSans-73" transform="translate(600.927734 0)"/>
      <use xlink:href="#DejaVuSans-20" transform="translate(653.027344 0)"/>
      <use xlink:href="#DejaVuSans-73" transform="translate(684.814453 0)"/>
      <use xlink:href="#DejaVuSans-63" transform="translate(736.914062 0)"/>
      <use xlink:href="#DejaVuSans-6f" transform="translate(791.894531 0)"/>
      <use xlink:href="#DejaVuSans-72" transform="translate(853.076172 0)"/>
      <use xlink:href="#DejaVuSans-65" transform="translate(891.939453 0)"/>
      <use xlink:href="#DejaVuSans-20" transform="translate(953.462891 0)"/>
      <use xlink:href="#DejaVuSans-28" transform="translate(985.25 0)"/>
      <use xlink:href="#DejaVuSans-2b" transform="translate(1024.263672 0)"/>
      <use xlink:href="#DejaVuSans-6f" transform="translate(1108.052734 0)"/>
      <use xlink:href="#DejaVuSans-6c" transform="translate(1169.234375 0)"/>
      <use xlink:href="#DejaVuSans-64" transform="translate(1197.017578 0)"/>
      <use xlink:href="#DejaVuSans-65" transform="translate(1260.494141 0)"/>
      <use xlink:href="#DejaVuSans-72" transform="translate(1322.017578 0)"/>
      <use xlink:href="#DejaVuSans-2d" transform="translate(1356.755859 0)"/>
      <use xlink:href="#DejaVuSans-6c" transform="translate(1392.839844 0)"/>
      <use xlink:href="#DejaVuSans-69" transform="translate(1420.623047 0)"/>
      <use xlink:href="#DejaVuSans-6b" transform="translate(1448.40625 0)"/>
      <use xlink:href="#DejaVuSans-65" transform="translate(1502.691406 0)"/>
      <use xlink:href="#DejaVuSans-29" transform="translate(1564.214844 0)"/>
     </g>
    </g>
   </g>
   <g id="line2d_14">
    <path d="M 68.37 189.927111 
L 71.487172 189.372773 
L 74.604343 188.818435 
L 77.721515 188.264097 
L 80.838687 187.709759 
L 83.955859 187.155421 
L 87.07303 186.601083 
L 90.190202 186.046745 
L 93.307374 185.492407 
L 96.424545 184.938069 
L 99.541717 184.383731 
L 102.658889 183.829393 
L 105.776061 183.275055 
L 108.893232 182.720717 
L 112.010404 182.166379 
L 115.127576 181.612041 
L 118.244747 181.057703 
L 121.361919 180.503365 
L 124.479091 179.949027 
L 127.596263 179.39469 
L 130.713434 178.840352 
L 133.830606 178.286014 
L 136.947778 177.731676 
L 140.064949 177.177338 
L 143.182121 176.623 
L 146.299293 176.068662 
L 149.416465 175.514324 
L 152.533636 174.959986 
L 155.650808 174.405648 
L 158.76798 173.85131 
L 161.885152 173.296972 
L 165.002323 172.742634 
L 168.119495 172.188296 
L 171.236667 171.633958 
L 174.353838 171.07962 
L 177.47101 170.525282 
L 180.588182 169.970944 
L 183.705354 169.416606 
L 186.822525 168.862268 
L 189.939697 168.30793 
L 193.056869 167.753592 
L 196.17404 167.199254 
L 199.291212 166.644916 
L 202.408384 166.090578 
L 205.525556 165.53624 
L 208.642727 164.981902 
L 211.759899 164.427564 
L 214.877071 163.873226 
L 217.994242 163.318888 
L 221.111414 162.76455 
L 224.228586 162.210212 
L 227.345758 161.655874 
L 230.462929 161.101537 
L 233.580101 160.547199 
L 236.697273 159.992861 
L 239.814444 159.438523 
L 242.931616 158.884185 
L 246.048788 158.329847 
L 249.16596 157.775509 
L 252.283131 157.221171 
L 255.400303 156.666833 
L 258.517475 156.112495 
L 261.634646 155.558157 
L 264.751818 155.003819 
L 267.86899 154.449481 
L 270.986162 153.895143 
L 274.103333 153.340805 
L 277.220505 152.786467 
L 280.337677 152.232129 
L 283.454848 151.677791 
L 286.57202 151.123453 
L 289.689192 150.569115 
L 292.806364 150.014777 
L 295.923535 149.460439 
L 299.040707 148.906101 
L 302.157879 148.351763 
L 305.275051 147.797425 
L 308.392222 147.243087 
L 311.509394 146.688749 
L 314.626566 146.134411 
L 317.743737 145.580073 
L 320.860909 145.025735 
L 323.978081 144.471397 
L 327.095253 143.917059 
L 330.212424 143.362721 
L 333.329596 142.808384 
L 336.446768 142.254046 
L 339.563939 141.699708 
L 342.681111 141.14537 
L 345.798283 140.591032 
L 348.915455 140.036694 
L 352.032626 139.482356 
L 355.149798 138.928018 
L 358.26697 138.37368 
L 361.384141 137.819342 
L 364.501313 137.265004 
L 367.618485 136.710666 
L 370.735657 136.156328 
L 373.852828 135.60199 
L 376.97 135.047652 
" clip-path="url(#pa60e246b98)" style="fill: none; stroke: #1f77b4; stroke-width: 1.5; stroke-linecap: square"/>
   </g>
   <g id="patch_3">
    <path d="M 52.94 274.84 
L 52.94 42.04725 
" style="fill: none; stroke: #000000; stroke-width: 0.8; stroke-linejoin: miter; stroke-linecap: square"/>
   </g>
   <g id="patch_4">
    <path d="M 392.4 274.84 
L 392.4 42.04725 
" style="fill: none; stroke: #000000; stroke-width: 0.8; stroke-linejoin: miter; stroke-linecap: square"/>
   </g>
   <g id="patch_5">
    <path d="M 52.94 274.84 
L 392.4 274.84 
" style="fill: none; stroke: #000000; stroke-width: 0.8; stroke-linejoin: miter; stroke-linecap: square"/>
   </g>
   <g id="patch_6">
    <path d="M 52.94 42.04725 
L 392.4 42.04725 
" style="fill: none; stroke: #000000; stroke-width: 0.8; stroke-linejoin: miter; stroke-linecap: square"/>
   </g>
   <g id="text_16">
    <!-- Cardiff_Long_HARM_K2: PCA fused age-axis vs age (controls; longitudinal rows) -->
    <g transform="translate(-15.493437 22.276125) scale(0.12 -0.12)">
     <defs>
      <path id="DejaVuSans-66" d="M 2375 4863 
L 2375 4384 
L 1825 4384 
Q 1516 4384 1395 4259 
Q 1275 4134 1275 3809 
L 1275 3500 
L 2222 3500 
L 2222 3053 
L 1275 3053 
L 1275 0 
L 697 0 
L 697 3053 
L 147 3053 
L 147 3500 
L 697 3500 
L 697 3744 
Q 697 4328 969 4595 
Q 1241 4863 1831 4863 
L 2375 4863 
z
" transform="scale(0.015625)"/>
      <path id="DejaVuSans-5f" d="M 3263 -1063 
L 3263 -1509 
L -63 -1509 
L -63 -1063 
L 3263 -1063 
z
" transform="scale(0.015625)"/>
      <path id="DejaVuSans-4c" d="M 628 4666 
L 1259 4666 
L 1259 531 
L 3531 531 
L 3531 0 
L 628 0 
L 628 4666 
z
" transform="scale(0.015625)"/>
      <path id="DejaVuSans-48" d="M 628 4666 
L 1259 4666 
L 1259 2753 
L 3553 2753 
L 3553 4666 
L 4184 4666 
L 4184 0 
L 3553 0 
L 3553 2222 
L 1259 2222 
L 1259 0 
L 628 0 
L 628 4666 
z
" transform="scale(0.015625)"/>
      <path id="DejaVuSans-52" d="M 2841 2188 
Q 3044 2119 3236 1894 
Q 3428 1669 3622 1275 
L 4263 0 
L 3584 0 
L 2988 1197 
Q 2756 1666 2539 1819 
Q 2322 1972 1947 1972 
L 1259 1972 
L 1259 0 
L 628 0 
L 628 4666 
L 2053 4666 
Q 2853 4666 3247 4331 
Q 3641 3997 3641 3322 
Q 3641 2881 3436 2590 
Q 3231 2300 2841 2188 
z
M 1259 4147 
L 1259 2491 
L 2053 2491 
Q 2509 2491 2742 2702 
Q 2975 2913 2975 3322 
Q 2975 3731 2742 3939 
Q 2509 4147 2053 4147 
L 1259 4147 
z
" transform="scale(0.015625)"/>
      <path id="DejaVuSans-4d" d="M 628 4666 
L 1569 4666 
L 2759 1491 
L 3956 4666 
L 4897 4666 
L 4897 0 
L 4281 0 
L 4281 4097 
L 3078 897 
L 2444 897 
L 1241 4097 
L 1241 0 
L 628 0 
L 628 4666 
z
" transform="scale(0.015625)"/>
      <path id="DejaVuSans-4b" d="M 628 4666 
L 1259 4666 
L 1259 2694 
L 3353 4666 
L 4166 4666 
L 1850 2491 
L 4331 0 
L 3500 0 
L 1259 2247 
L 1259 0 
L 628 0 
L 628 4666 
z
" transform="scale(0.015625)"/>
      <path id="DejaVuSans-3a" d="M 750 794 
L 1409 794 
L 1409 0 
L 750 0 
L 750 794 
z
M 750 3309 
L 1409 3309 
L 1409 2516 
L 750 2516 
L 750 3309 
z
" transform="scale(0.015625)"/>
      <path id="DejaVuSans-75" d="M 544 1381 
L 544 3500 
L 1119 3500 
L 1119 1403 
Q 1119 906 1312 657 
Q 1506 409 1894 409 
Q 2359 409 2629 706 
Q 2900 1003 2900 1516 
L 2900 3500 
L 3475 3500 
L 3475 0 
L 2900 0 
L 2900 538 
Q 2691 219 2414 64 
Q 2138 -91 1772 -91 
Q 1169 -91 856 284 
Q 544 659 544 1381 
z
M 1991 3584 
L 1991 3584 
z
" transform="scale(0.015625)"/>
      <path id="DejaVuSans-76" d="M 191 3500 
L 800 3500 
L 1894 563 
L 2988 3500 
L 3597 3500 
L 2284 0 
L 1503 0 
L 191 3500 
z
" transform="scale(0.015625)"/>
      <path id="DejaVuSans-3b" d="M 750 3309 
L 1409 3309 
L 1409 2516 
L 750 2516 
L 750 3309 
z
M 750 794 
L 1409 794 
L 1409 256 
L 897 -744 
L 494 -744 
L 750 256 
L 750 794 
z
" transform="scale(0.015625)"/>
      <path id="DejaVuSans-77" d="M 269 3500 
L 844 3500 
L 1563 769 
L 2278 3500 
L 2956 3500 
L 3675 769 
L 4391 3500 
L 4966 3500 
L 4050 0 
L 3372 0 
L 2619 2869 
L 1863 0 
L 1184 0 
L 269 3500 
z
" transform="scale(0.015625)"/>
     </defs>
     <use xlink:href="#DejaVuSans-43"/>
     <use xlink:href="#DejaVuSans-61" transform="translate(69.824219 0)"/>
     <use xlink:href="#DejaVuSans-72" transform="translate(131.103516 0)"/>
     <use xlink:href="#DejaVuSans-64" transform="translate(170.466797 0)"/>
     <use xlink:href="#DejaVuSans-69" transform="translate(233.943359 0)"/>
     <use xlink:href="#DejaVuSans-66" transform="translate(261.726562 0)"/>
     <use xlink:href="#DejaVuSans-66" transform="translate(296.931641 0)"/>
     <use xlink:href="#DejaVuSans-5f" transform="translate(332.136719 0)"/>
     <use xlink:href="#DejaVuSans-4c" transform="translate(382.136719 0)"/>
     <use xlink:href="#DejaVuSans-6f" transform="translate(436.099609 0)"/>
     <use xlink:href="#DejaVuSans-6e" transform="translate(497.28125 0)"/>
     <use xlink:href="#DejaVuSans-67" transform="translate(560.660156 0)"/>
     <use xlink:href="#DejaVuSans-5f" transform="translate(624.136719 0)"/>
     <use xlink:href="#DejaVuSans-48" transform="translate(674.136719 0)"/>
     <use xlink:href="#DejaVuSans-41" transform="translate(749.332031 0)"/>
     <use xlink:href="#DejaVuSans-52" transform="translate(817.740234 0)"/>
     <use xlink:href="#DejaVuSans-4d" transform="translate(887.222656 0)"/>
     <use xlink:href="#DejaVuSans-5f" transform="translate(973.501953 0)"/>
     <use xlink:href="#DejaVuSans-4b" transform="translate(1023.501953 0)"/>
     <use xlink:href="#DejaVuSans-32" transform="translate(1089.078125 0)"/>
     <use xlink:href="#DejaVuSans-3a" transform="translate(1152.701172 0)"/>
     <use xlink:href="#DejaVuSans-20" transform="translate(1186.392578 0)"/>
     <use xlink:href="#DejaVuSans-50" transform="translate(1218.179688 0)"/>
     <use xlink:href="#DejaVuSans-43" transform="translate(1278.482422 0)"/>
     <use xlink:href="#DejaVuSans-41" transform="translate(1348.306641 0)"/>
     <use xlink:href="#DejaVuSans-20" transform="translate(1416.714844 0)"/>
     <use xlink:href="#DejaVuSans-66" transform="translate(1448.501953 0)"/>
     <use xlink:href="#DejaVuSans-75" transform="translate(1483.707031 0)"/>
     <use xlink:href="#DejaVuSans-73" transform="translate(1547.085938 0)"/>
     <use xlink:href="#DejaVuSans-65" transform="translate(1599.185547 0)"/>
     <use xlink:href="#DejaVuSans-64" transform="translate(1660.708984 0)"/>
     <use xlink:href="#DejaVuSans-20" transform="translate(1724.185547 0)"/>
     <use xlink:href="#DejaVuSans-61" transform="translate(1755.972656 0)"/>
     <use xlink:href="#DejaVuSans-67" transform="translate(1817.251953 0)"/>
     <use xlink:href="#DejaVuSans-65" transform="translate(1880.728516 0)"/>
     <use xlink:href="#DejaVuSans-2d" transform="translate(1942.251953 0)"/>
     <use xlink:href="#DejaVuSans-61" transform="translate(1978.335938 0)"/>
     <use xlink:href="#DejaVuSans-78" transform="translate(2039.615234 0)"/>
     <use xlink:href="#DejaVuSans-69" transform="translate(2098.794922 0)"/>
     <use xlink:href="#DejaVuSans-73" transform="translate(2126.578125 0)"/>
     <use xlink:href="#DejaVuSans-20" transform="translate(2178.677734 0)"/>
     <use xlink:href="#DejaVuSans-76" transform="translate(2210.464844 0)"/>
     <use xlink:href="#DejaVuSans-73" transform="translate(2269.644531 0)"/>
     <use xlink:href="#DejaVuSans-20" transform="translate(2321.744141 0)"/>
     <use xlink:href="#DejaVuSans-61" transform="translate(2353.53125 0)"/>
     <use xlink:href="#DejaVuSans-67" transform="translate(2414.810547 0)"/>
     <use xlink:href="#DejaVuSans-65" transform="translate(2478.287109 0)"/>
     <use xlink:href="#DejaVuSans-20" transform="translate(2539.810547 0)"/>
     <use xlink:href="#DejaVuSans-28" transform="translate(2571.597656 0)"/>
     <use xlink:href="#DejaVuSans-63" transform="translate(2610.611328 0)"/>
     <use xlink:href="#DejaVuSans-6f" transform="translate(2665.591797 0)"/>
     <use xlink:href="#DejaVuSans-6e" transform="translate(2726.773438 0)"/>
     <use xlink:href="#DejaVuSans-74" transform="translate(2790.152344 0)"/>
     <use xlink:href="#DejaVuSans-72" transform="translate(2829.361328 0)"/>
     <use xlink:href="#DejaVuSans-6f" transform="translate(2868.224609 0)"/>
     <use xlink:href="#DejaVuSans-6c" transform="translate(2929.40625 0)"/>
     <use xlink:href="#DejaVuSans-73" transform="translate(2957.189453 0)"/>
     <use xlink:href="#DejaVuSans-3b" transform="translate(3009.289062 0)"/>
     <use xlink:href="#DejaVuSans-20" transform="translate(3042.980469 0)"/>
     <use xlink:href="#DejaVuSans-6c" transform="translate(3074.767578 0)"/>
     <use xlink:href="#DejaVuSans-6f" transform="translate(3102.550781 0)"/>
     <use xlink:href="#DejaVuSans-6e" transform="translate(3163.732422 0)"/>
     <use xlink:href="#DejaVuSans-67" transform="translate(3227.111328 0)"/>
     <use xlink:href="#DejaVuSans-69" transform="translate(3290.587891 0)"/>
     <use xlink:href="#DejaVuSans-74" transform="translate(3318.371094 0)"/>
     <use xlink:href="#DejaVuSans-75" transform="translate(3357.580078 0)"/>
     <use xlink:href="#DejaVuSans-64" transform="translate(3420.958984 0)"/>
     <use xlink:href="#DejaVuSans-69" transform="translate(3484.435547 0)"/>
     <use xlink:href="#DejaVuSans-6e" transform="translate(3512.21875 0)"/>
     <use xlink:href="#DejaVuSans-61" transform="translate(3575.597656 0)"/>
     <use xlink:href="#DejaVuSans-6c" transform="translate(3636.876953 0)"/>
     <use xlink:href="#DejaVuSans-20" transform="translate(3664.660156 0)"/>
     <use xlink:href="#DejaVuSans-72" transform="translate(3696.447266 0)"/>
     <use xlink:href="#DejaVuSans-6f" transform="translate(3735.310547 0)"/>
     <use xlink:href="#DejaVuSans-77" transform="translate(3796.492188 0)"/>
     <use xlink:href="#DejaVuSans-73" transform="translate(3878.279297 0)"/>
     <use xlink:href="#DejaVuSans-29" transform="translate(3930.378906 0)"/>
    </g>
    <!-- Spearman r=0.38, p=3.69e-05 -->
    <g transform="translate(129.735625 36.04725) scale(0.12 -0.12)">
     <defs>
      <path id="DejaVuSans-53" d="M 3425 4513 
L 3425 3897 
Q 3066 4069 2747 4153 
Q 2428 4238 2131 4238 
Q 1616 4238 1336 4038 
Q 1056 3838 1056 3469 
Q 1056 3159 1242 3001 
Q 1428 2844 1947 2747 
L 2328 2669 
Q 3034 2534 3370 2195 
Q 3706 1856 3706 1288 
Q 3706 609 3251 259 
Q 2797 -91 1919 -91 
Q 1588 -91 1214 -16 
Q 841 59 441 206 
L 441 856 
Q 825 641 1194 531 
Q 1563 422 1919 422 
Q 2459 422 2753 634 
Q 3047 847 3047 1241 
Q 3047 1584 2836 1778 
Q 2625 1972 2144 2069 
L 1759 2144 
Q 1053 2284 737 2584 
Q 422 2884 422 3419 
Q 422 4038 858 4394 
Q 1294 4750 2059 4750 
Q 2388 4750 2728 4690 
Q 3069 4631 3425 4513 
z
" transform="scale(0.015625)"/>
      <path id="DejaVuSans-70" d="M 1159 525 
L 1159 -1331 
L 581 -1331 
L 581 3500 
L 1159 3500 
L 1159 2969 
Q 1341 3281 1617 3432 
Q 1894 3584 2278 3584 
Q 2916 3584 3314 3078 
Q 3713 2572 3713 1747 
Q 3713 922 3314 415 
Q 2916 -91 2278 -91 
Q 1894 -91 1617 61 
Q 1341 213 1159 525 
z
M 3116 1747 
Q 3116 2381 2855 2742 
Q 2594 3103 2138 3103 
Q 1681 3103 1420 2742 
Q 1159 2381 1159 1747 
Q 1159 1113 1420 752 
Q 1681 391 2138 391 
Q 2594 391 2855 752 
Q 3116 1113 3116 1747 
z
" transform="scale(0.015625)"/>
      <path id="DejaVuSans-6d" d="M 3328 2828 
Q 3544 3216 3844 3400 
Q 4144 3584 4550 3584 
Q 5097 3584 5394 3201 
Q 5691 2819 5691 2113 
L 5691 0 
L 5113 0 
L 5113 2094 
Q 5113 2597 4934 2840 
Q 4756 3084 4391 3084 
Q 3944 3084 3684 2787 
Q 3425 2491 3425 1978 
L 3425 0 
L 2847 0 
L 2847 2094 
Q 2847 2600 2669 2842 
Q 2491 3084 2119 3084 
Q 1678 3084 1418 2786 
Q 1159 2488 1159 1978 
L 1159 0 
L 581 0 
L 581 3500 
L 1159 3500 
L 1159 2956 
Q 1356 3278 1631 3431 
Q 1906 3584 2284 3584 
Q 2666 3584 2933 3390 
Q 3200 3197 3328 2828 
z
" transform="scale(0.015625)"/>
      <path id="DejaVuSans-3d" d="M 678 2906 
L 4684 2906 
L 4684 2381 
L 678 2381 
L 678 2906 
z
M 678 1631 
L 4684 1631 
L 4684 1100 
L 678 1100 
L 678 1631 
z
" transform="scale(0.015625)"/>
      <path id="DejaVuSans-2e" d="M 684 794 
L 1344 794 
L 1344 0 
L 684 0 
L 684 794 
z
" transform="scale(0.015625)"/>
      <path id="DejaVuSans-2c" d="M 750 794 
L 1409 794 
L 1409 256 
L 897 -744 
L 494 -744 
L 750 256 
L 750 794 
z
" transform="scale(0.015625)"/>
      <path id="DejaVuSans-39" d="M 703 97 
L 703 672 
Q 941 559 1184 500 
Q 1428 441 1663 441 
Q 2288 441 2617 861 
Q 2947 1281 2994 2138 
Q 2813 1869 2534 1725 
Q 2256 1581 1919 1581 
Q 1219 1581 811 2004 
Q 403 2428 403 3163 
Q 403 3881 828 4315 
Q 1253 4750 1959 4750 
Q 2769 4750 3195 4129 
Q 3622 3509 3622 2328 
Q 3622 1225 3098 567 
Q 2575 -91 1691 -91 
Q 1453 -91 1209 -44 
Q 966 3 703 97 
z
M 1959 2075 
Q 2384 2075 2632 2365 
Q 2881 2656 2881 3163 
Q 2881 3666 2632 3958 
Q 2384 4250 1959 4250 
Q 1534 4250 1286 3958 
Q 1038 3666 1038 3163 
Q 1038 2656 1286 2365 
Q 1534 2075 1959 2075 
z
" transform="scale(0.015625)"/>
     </defs>
     <use xlink:href="#DejaVuSans-53"/>
     <use xlink:href="#DejaVuSans-70" transform="translate(63.476562 0)"/>
     <use xlink:href="#DejaVuSans-65" transform="translate(126.953125 0)"/>
     <use xlink:href="#DejaVuSans-61" transform="translate(188.476562 0)"/>
     <use xlink:href="#DejaVuSans-72" transform="translate(249.755859 0)"/>
     <use xlink:href="#DejaVuSans-6d" transform="translate(289.119141 0)"/>
     <use xlink:href="#DejaVuSans-61" transform="translate(386.53125 0)"/>
     <use xlink:href="#DejaVuSans-6e" transform="translate(447.810547 0)"/>
     <use xlink:href="#DejaVuSans-20" transform="translate(511.189453 0)"/>
     <use xlink:href="#DejaVuSans-72" transform="translate(542.976562 0)"/>
     <use xlink:href="#DejaVuSans-3d" transform="translate(584.089844 0)"/>
     <use xlink:href="#DejaVuSans-30" transform="translate(667.878906 0)"/>
     <use xlink:href="#DejaVuSans-2e" transform="translate(731.501953 0)"/>
     <use xlink:href="#DejaVuSans-33" transform="translate(763.289062 0)"/>
     <use xlink:href="#DejaVuSans-38" transform="translate(826.912109 0)"/>
     <use xlink:href="#DejaVuSans-2c" transform="translate(890.535156 0)"/>
     <use xlink:href="#DejaVuSans-20" transform="translate(922.322266 0)"/>
     <use xlink:href="#DejaVuSans-70" transform="translate(954.109375 0)"/>
     <use xlink:href="#DejaVuSans-3d" transform="translate(1017.585938 0)"/>
     <use xlink:href="#DejaVuSans-33" transform="translate(1101.375 0)"/>
     <use xlink:href="#DejaVuSans-2e" transform="translate(1164.998047 0)"/>
     <use xlink:href="#DejaVuSans-36" transform="translate(1196.785156 0)"/>
     <use xlink:href="#DejaVuSans-39" transform="translate(1260.408203 0)"/>
     <use xlink:href="#DejaVuSans-65" transform="translate(1324.03125 0)"/>
     <use xlink:href="#DejaVuSans-2d" transform="translate(1385.554688 0)"/>
     <use xlink:href="#DejaVuSans-30" transform="translate(1421.638672 0)"/>
     <use xlink:href="#DejaVuSans-35" transform="translate(1485.261719 0)"/>
    </g>
   </g>
  </g>
 </g>
 <defs>
  <clipPath id="pa60e246b98">
   <rect x="52.94" y="42.04725" width="339.46" height="232.79275"/>
  </clipPath>
 </defs>
</svg>
